<?xml version="1.0" encoding="UTF-8"?>
<svg width="38px" height="40px" viewBox="0 0 38 40" version="1.1" xmlns="http://www.w3.org/2000/svg" xmlns:xlink="http://www.w3.org/1999/xlink">
    <title>pdf (1)</title>
    <g id="Page-1" stroke="none" stroke-width="1" fill="none" fill-rule="evenodd">
        <g id="Appliances_page" transform="translate(-215.000000, -2029.000000)" fill="#FFFFFF" fill-rule="nonzero">
            <g id="BANNER" transform="translate(0.000000, 257.000000)">
                <g id="Group-16" transform="translate(143.000000, 1271.000000)">
                    <g id="Group-26" transform="translate(1.000000, 400.000000)">
                        <g id="Group-23" transform="translate(71.000000, 101.000000)">
                            <g id="Group-62">
                                <g id="pdf-(1)">
                                    <path d="M37.1464071,10.7120076 L27.0620117,0.233325195 C26.9184448,0.0842692057 26.7203735,0 26.5134888,0 L11.4834188,0 C9.80135905,0 8.43287354,1.36794434 8.43287354,3.04930827 L8.43287354,13.7019409 L2.34175618,13.7019409 C1.08328451,13.7019409 0.0594523112,14.7254639 0.0594523112,15.9836263 L0.0594523112,27.4058919 C0.0594523112,28.6639771 1.08328451,29.6875 2.34175618,29.6875 L8.43287354,29.6875 L8.43287354,36.5393595 C8.43287354,38.2177856 9.80135905,39.5833333 11.4834188,39.5833333 L34.3086222,39.5833333 C35.990682,39.5833333 37.3591675,38.2185588 37.3591675,36.5410604 L37.3591675,11.2398885 C37.3591675,11.0430542 37.2828613,10.8538737 37.1464071,10.7120076 Z M26.7021281,2.05500895 L34.9805339,10.6570394 L26.7021281,10.6570394 L26.7021281,2.05500895 Z M2.34175618,28.1650879 C1.92272949,28.1650879 1.58194173,27.8245321 1.58194173,27.4058919 L1.58194173,15.9836263 C1.58194173,15.5649862 1.9228068,15.224353 2.34175618,15.224353 L22.8974121,15.224353 C23.3164388,15.224353 23.6572266,15.5649862 23.6572266,15.9836263 L23.6572266,27.4058919 C23.6572266,27.8245321 23.3163615,28.1650879 22.8974121,28.1650879 L2.34175618,28.1650879 Z M35.8366781,36.5410604 C35.8366781,37.3791138 35.1511597,38.0609212 34.3085449,38.0609212 L11.4834188,38.0609212 C10.640804,38.0609212 9.95528564,37.378418 9.95528564,36.5394368 L9.95528564,29.6875 L22.8974121,29.6875 C24.1558838,29.6875 25.179716,28.6639771 25.179716,27.4058919 L25.179716,15.9836263 C25.179716,14.7254639 24.1558838,13.7019409 22.8974121,13.7019409 L9.95528564,13.7019409 L9.95528564,3.04930827 C9.95528564,2.20731201 10.640804,1.52241211 11.4834188,1.52241211 L25.1796387,1.52241211 L25.1796387,11.4182454 C25.1796387,11.8386637 25.5205037,12.1794515 25.9408447,12.1794515 L35.8366781,12.1794515 L35.8366781,36.5410604 Z" id="Shape"></path>
                                    <path d="M9.15990804,19.3196045 C8.90717773,18.9910319 8.59344889,18.777653 8.21879883,18.6795451 C7.97495931,18.6141398 7.45163981,18.5814372 6.64876302,18.5814372 L4.53012695,18.5814372 L4.53012695,25.1201864 L5.85037028,25.1201864 L5.85037028,22.6536499 L6.71123047,22.6536499 C7.30892334,22.6536499 7.76536865,22.6224162 8.08056641,22.5599487 C8.3125,22.5093872 8.54072266,22.4060994 8.76523437,22.2499308 C8.98974609,22.0938395 9.1748291,21.8789917 9.32056071,21.6054647 C9.46629232,21.3319377 9.53911947,20.994397 9.53911947,20.5929972 C9.53904215,20.0726156 9.41263835,19.6481771 9.15990804,19.3196045 Z M8.02923177,21.1193319 C7.92965495,21.2650635 7.79211833,21.3720622 7.61662191,21.4404826 C7.44112549,21.508903 7.09330241,21.5430745 6.57292074,21.5430745 L5.85037028,21.5430745 L5.85037028,19.6876058 L6.48818766,19.6876058 C6.96396077,19.6876058 7.28062744,19.7024495 7.43818766,19.7322144 C7.65226237,19.77087 7.8292277,19.867509 7.96892904,20.0221313 C8.10870768,20.1767537 8.17859709,20.3730469 8.17859709,20.6108561 C8.17867432,20.8041341 8.12880859,20.9736003 8.02923177,21.1193319 Z" id="Shape"></path>
                                    <path d="M15.8859823,20.3677897 C15.7432658,19.95 15.5350667,19.5969198 15.2615397,19.3084717 C14.9880127,19.0200236 14.6593628,18.8193237 14.2758219,18.7062948 C13.990389,18.6230306 13.5755371,18.5814372 13.0314209,18.5814372 L10.6183838,18.5814372 L10.6183838,25.1201864 L13.1027791,25.1201864 C13.5904582,25.1201864 13.979952,25.0741089 14.2713379,24.9818766 C14.660909,24.857019 14.9701538,24.6830688 15.1990723,24.460026 C15.5023641,24.165625 15.7357666,23.7806152 15.8993571,23.3048421 C16.0331828,22.915271 16.100057,22.4514038 16.100057,21.9132406 C16.100057,21.3007039 16.0286987,20.7855794 15.8859823,20.3677897 Z M14.6013794,23.0528849 C14.5121623,23.3458171 14.3969686,23.5561808 14.255721,23.6839762 C14.1144735,23.811849 13.9368123,23.902535 13.7227376,23.9560343 C13.5592244,23.9977051 13.293042,24.0185018 12.9243449,24.0185018 L11.9386271,24.0185018 L11.9386271,24.0185018 L11.9386271,19.6876058 L12.5318359,19.6876058 C13.0699992,19.6876058 13.4313517,19.7084025 13.6156616,19.7500732 C13.862439,19.8035726 14.066154,19.9061646 14.2267293,20.0578491 C14.3873047,20.2095337 14.5121623,20.4205933 14.6013794,20.6911825 C14.6905965,20.9617716 14.7352051,21.3497965 14.7352051,21.8553345 C14.7352051,22.3607951 14.6905965,22.7599528 14.6013794,23.0528849 Z" id="Shape"></path>
                                    <polygon id="Path" points="21.7110718 19.6876058 21.7110718 18.5814372 17.2284912 18.5814372 17.2284912 25.1201864 18.5487345 25.1201864 18.5487345 22.3414673 21.2784383 22.3414673 21.2784383 21.2352987 18.5487345 21.2352987 18.5487345 19.6876058"></polygon>
                                </g>
                            </g>
                        </g>
                    </g>
                </g>
            </g>
        </g>
    </g>
</svg>