<?xml version="1.0" encoding="UTF-8"?>
<svg width="240px" height="340px" viewBox="0 0 240 340" version="1.1" xmlns="http://www.w3.org/2000/svg" xmlns:xlink="http://www.w3.org/1999/xlink">
    <title>?</title>
    <g id="Page-1" stroke="none" stroke-width="1" fill="none" fill-rule="evenodd" fill-opacity="0.37">
        <g id="Appliances_page" transform="translate(-1318.000000, -2259.000000)" fill="#303030" fill-rule="nonzero">
            <g id="BANNER" transform="translate(0.000000, 106.000000)">
                <g id="Group-16" transform="translate(143.000000, 1271.000000)">
                    <g id="Group-25" transform="translate(1.000000, 847.000000)">
                        <path d="M1332.58333,278 C1332.08333,254.5 1337.58333,242 1353.08333,230 C1379.58333,210 1384.08333,205.5 1393.58333,194.5 C1407.08333,177.5 1413.58333,159 1413.58333,136 C1413.58333,75.5 1367.08333,35 1297.58333,35 C1224.58333,35 1176.08333,79.5 1174.08333,149.5 L1238.58333,149.5 C1239.58333,112 1258.08333,93.5 1295.58333,93.5 C1325.58333,93.5 1347.08333,112 1347.08333,138.5 C1347.08333,155.5 1340.58333,164.5 1313.58333,186 C1273.58333,217.5 1269.58333,225.5 1269.58333,278 L1332.58333,278 Z M1338.08333,375 L1338.08333,305 L1268.08333,305 L1268.08333,375 L1338.08333,375 Z" id="?"></path>
                    </g>
                </g>
            </g>
        </g>
    </g>
</svg>