<?xml version="1.0" encoding="utf-8"?><svg version="1.1" xmlns="http://www.w3.org/2000/svg" width="465" height="440" data-sprite-id="d0f2ad0e7566edef00e64e2ed5b19938" data-total="85"><svg width="19" height="21" xmlns="http://www.w3.org/2000/svg" viewBox="0 0 19 21" x="416" y="0" data-name="account" data-svg-id="f46201b46b"><path d="M13.536 13.103a4.473 4.473 0 014.467 4.468v2.017a.434.434 0 01-.867 0v-2.017a3.605 3.605 0 00-3.6-3.6H5.467a3.605 3.605 0 00-3.6 3.6v2.017a.434.434 0 01-.867 0v-2.017a4.473 4.473 0 014.467-4.468h8.069zM5.033 5.468a4.467 4.467 0 118.934-.002 4.467 4.467 0 01-8.934.002zm8.068 0h.001a3.6 3.6 0 10-7.2 0 3.6 3.6 0 007.199 0z" fill="#FFF" fill-rule="nonzero" stroke="#FFF" stroke-width=".2"/></svg><svg width="19" height="21" xmlns="http://www.w3.org/2000/svg" viewBox="0 0 19 21" x="416" y="31" data-name="account_dark" data-svg-id="5b41bc6ebb"><path d="M13.536 13.103a4.473 4.473 0 014.467 4.468v2.017a.434.434 0 01-.867 0v-2.017a3.605 3.605 0 00-3.6-3.6H5.467a3.605 3.605 0 00-3.6 3.6v2.017a.434.434 0 01-.867 0v-2.017a4.473 4.473 0 014.467-4.468h8.069zM5.033 5.468a4.467 4.467 0 118.934-.002 4.467 4.467 0 01-8.934.002zm8.068 0h.001a3.6 3.6 0 10-7.2 0 3.6 3.6 0 007.199 0z" fill="#222" fill-rule="nonzero" stroke="#222" stroke-width=".2"/></svg><svg height="40" width="40" xmlns="http://www.w3.org/2000/svg" viewBox="0 0 40 40" x="364" y="90" data-name="appliances" data-svg-id="24e544bc53"><g fill="#fff"><path d="M38.162 17.535h-6.93v-6.343h5.677a1.84 1.84 0 001.839-1.838V1.838A1.84 1.84 0 0036.909 0H24.384a1.84 1.84 0 00-1.839 1.838V5.01h-3.838V3.09A3.095 3.095 0 0015.617 0H3.09A3.095 3.095 0 000 3.09v35.072A1.84 1.84 0 001.838 40h15.03a1.84 1.84 0 001.839-1.838v-8.808h2.586v8.808A1.84 1.84 0 0023.13 40h15.03A1.84 1.84 0 0040 38.162V19.374a1.84 1.84 0 00-1.838-1.839zm.666 1.839v3.171h-5.216a1.84 1.84 0 00-1.713-2.505 1.84 1.84 0 00-1.713 2.505h-1.459v-1.919a.586.586 0 00-.586-.586h-3.757a.586.586 0 00-.586.586v1.92h-1.333v-3.172c0-.368.299-.667.666-.667h15.03c.368 0 .667.299.667.667zm-7.596 2.505a.667.667 0 111.335.001.667.667 0 01-1.335-.001zm-6.262.666v-1.333h2.586v1.333zM36.91 10.02h-1.92V4.93h2.586v4.424c0 .367-.3.666-.667.666zm.666-8.182v1.92H34.99V1.172h1.919c.368 0 .667.299.667.666zm-13.859 0c0-.367.3-.666.667-.666h9.434v8.848h-9.434a.667.667 0 01-.667-.666zM1.172 26.222h1.293a.04.04 0 01.04.04v4.384a.04.04 0 01-.04.04H1.172zm0-10.646h1.293a.04.04 0 01.04.04V20a.04.04 0 01-.04.04H1.172zm16.363 22.586c0 .367-.299.666-.666.666H1.839a.667.667 0 01-.667-.666v-6.303h1.293c.668 0 1.212-.544 1.212-1.213v-4.383c0-.669-.544-1.213-1.212-1.213H1.172v-1.333h13.192a.586.586 0 000-1.172H1.172v-1.333h1.293c.668 0 1.212-.543 1.212-1.212v-4.384c0-.668-.544-1.212-1.212-1.212H1.172V3.091c0-1.058.86-1.92 1.919-1.92h12.525c1.058 0 1.92.862 1.92 1.92v19.454h-.667a.586.586 0 000 1.172h.666v14.445zm1.172-9.98v-22h3.838v3.172a1.84 1.84 0 001.839 1.838h5.676v6.343h-6.929a1.84 1.84 0 00-1.838 1.839v8.808zm19.455 10.646h-15.03a.667.667 0 01-.667-.666V23.717h16.363v14.445c0 .367-.299.666-.666.666z"/><path d="M10.606 5.01H8.101c-.668 0-1.212.544-1.212 1.212v1.253c0 .668.544 1.212 1.212 1.212h2.505c.668 0 1.212-.544 1.212-1.212V6.222c0-.668-.544-1.212-1.212-1.212zm.04 2.465a.04.04 0 01-.04.04H8.101a.04.04 0 01-.04-.04V6.222a.04.04 0 01.04-.04h2.505a.04.04 0 01.04.04zM35.03 21.212h1.879a.586.586 0 100-1.172H35.03a.586.586 0 000 1.172zM25.636 8.687H31.9a.586.586 0 00.586-.586V3.09a.586.586 0 00-.586-.586h-1.252a.586.586 0 000 1.172h.666v3.838h-5.09V3.677h1.918a.586.586 0 100-1.172h-2.505a.586.586 0 00-.586.586V8.1c0 .324.263.586.586.586z"/></g></svg><svg height="40" width="40" xmlns="http://www.w3.org/2000/svg" viewBox="0 0 40 40" x="53" y="204" data-name="appliances_dark" data-svg-id="10d363f989"><g fill="#292929"><path d="M38.162 17.535h-6.93v-6.343h5.677a1.84 1.84 0 001.839-1.838V1.838A1.84 1.84 0 0036.909 0H24.384a1.84 1.84 0 00-1.839 1.838V5.01h-3.838V3.09A3.095 3.095 0 0015.617 0H3.09A3.095 3.095 0 000 3.09v35.072A1.84 1.84 0 001.838 40h15.03a1.84 1.84 0 001.839-1.838v-8.808h2.586v8.808A1.84 1.84 0 0023.13 40h15.03A1.84 1.84 0 0040 38.162V19.374a1.84 1.84 0 00-1.838-1.839zm.666 1.839v3.171h-5.216a1.84 1.84 0 00-1.713-2.505 1.84 1.84 0 00-1.713 2.505h-1.459v-1.919a.586.586 0 00-.586-.586h-3.757a.586.586 0 00-.586.586v1.92h-1.333v-3.172c0-.368.299-.667.666-.667h15.03c.368 0 .667.299.667.667zm-7.596 2.505a.667.667 0 111.335.001.667.667 0 01-1.335-.001zm-6.262.666v-1.333h2.586v1.333zM36.91 10.02h-1.92V4.93h2.586v4.424c0 .367-.3.666-.667.666zm.666-8.182v1.92H34.99V1.172h1.919c.368 0 .667.299.667.666zm-13.859 0c0-.367.3-.666.667-.666h9.434v8.848h-9.434a.667.667 0 01-.667-.666zM1.172 26.222h1.293a.04.04 0 01.04.04v4.384a.04.04 0 01-.04.04H1.172zm0-10.646h1.293a.04.04 0 01.04.04V20a.04.04 0 01-.04.04H1.172zm16.363 22.586c0 .367-.299.666-.666.666H1.839a.667.667 0 01-.667-.666v-6.303h1.293c.668 0 1.212-.544 1.212-1.213v-4.383c0-.669-.544-1.213-1.212-1.213H1.172v-1.333h13.192a.586.586 0 000-1.172H1.172v-1.333h1.293c.668 0 1.212-.543 1.212-1.212v-4.384c0-.668-.544-1.212-1.212-1.212H1.172V3.091c0-1.058.86-1.92 1.919-1.92h12.525c1.058 0 1.92.862 1.92 1.92v19.454h-.667a.586.586 0 000 1.172h.666v14.445zm1.172-9.98v-22h3.838v3.172a1.84 1.84 0 001.839 1.838h5.676v6.343h-6.929a1.84 1.84 0 00-1.838 1.839v8.808zm19.455 10.646h-15.03a.667.667 0 01-.667-.666V23.717h16.363v14.445c0 .367-.299.666-.666.666z"/><path d="M10.606 5.01H8.101c-.668 0-1.212.544-1.212 1.212v1.253c0 .668.544 1.212 1.212 1.212h2.505c.668 0 1.212-.544 1.212-1.212V6.222c0-.668-.544-1.212-1.212-1.212zm.04 2.465a.04.04 0 01-.04.04H8.101a.04.04 0 01-.04-.04V6.222a.04.04 0 01.04-.04h2.505a.04.04 0 01.04.04zM35.03 21.212h1.879a.586.586 0 100-1.172H35.03a.586.586 0 000 1.172zM25.636 8.687H31.9a.586.586 0 00.586-.586V3.09a.586.586 0 00-.586-.586h-1.252a.586.586 0 000 1.172h.666v3.838h-5.09V3.677h1.918a.586.586 0 100-1.172h-2.505a.586.586 0 00-.586.586V8.1c0 .324.263.586.586.586z"/></g></svg><svg width="17" height="10" xmlns="http://www.w3.org/2000/svg" viewBox="0 0 17 10" x="416" y="394" data-name="arr_d" data-svg-id="0b3e14f2c2"><path d="M15.247 1.55L8.5 8.297 1.753 1.55" stroke="#B3B3B3" fill="none" fill-rule="evenodd"/></svg><svg width="9" height="14" xmlns="http://www.w3.org/2000/svg" viewBox="0 0 9 14" x="445" y="48" data-name="arr_l" data-svg-id="1c9d395fbd"><path d="M7.797.253L1.05 7l6.747 6.747" stroke="#B3B3B3" fill="none" fill-rule="evenodd"/></svg><svg width="9" height="14" xmlns="http://www.w3.org/2000/svg" viewBox="0 0 9 14" x="445" y="72" data-name="arr_r" data-svg-id="07e61c5779"><path d="M1.05.253L7.797 7 1.05 13.747" stroke="#B3B3B3" fill="none" fill-rule="evenodd"/></svg><svg width="17" height="10" xmlns="http://www.w3.org/2000/svg" viewBox="0 0 17 10" x="54" y="386" data-name="arr_sm_d" data-svg-id="902369d57c"><path d="M15.247 1.55L8.5 8.297 1.753 1.55" stroke="#FFF" fill="none" fill-rule="evenodd"/></svg><svg fill="none" height="42" width="43" xmlns="http://www.w3.org/2000/svg" viewBox="0 0 43 42" x="204" y="143" data-name="back" data-svg-id="664a40cefa"><g stroke="#fff"><circle cx="21.006" cy="21" r="20.5"/><path d="M30.006 21.025h-17m0 0l5.176-5.466m-5.176 5.466l4.89 4.631" stroke-linecap="round"/></g></svg><svg height="24" width="24" xmlns="http://www.w3.org/2000/svg" viewBox="0 0 24 24" x="109" y="350" data-name="chef" data-svg-id="d6ca270dac"><g fill="#fff"><path d="M6.36 11.13a.53.53 0 10-1.06 0c0 1.392 1.535 3.303 1.71 3.517a.531.531 0 00.82-.673c-.568-.692-1.47-2.077-1.47-2.844zM17.49 10.6a.53.53 0 00-.53.53c0 .765-.901 2.15-1.47 2.845a.53.53 0 00.82.672c.176-.214 1.71-2.125 1.71-3.517a.53.53 0 00-.53-.53zM11.66 10.6a.53.53 0 00-.53.53v3.18a.53.53 0 101.06 0v-3.18a.53.53 0 00-.53-.53z"/><path d="M17.49 2.12c-.32 0-.656.043-1.005.107A6.344 6.344 0 0011.66 0C9.731 0 8.003.867 6.836 2.227A5.557 5.557 0 005.83 2.12 5.837 5.837 0 000 7.95a5.828 5.828 0 003.193 5.196l-.01 8.01c-.001.578.223 1.121.632 1.53.409.41.952.635 1.53.635h12.633c1.193 0 2.163-.97 2.163-2.163v-8.02a5.83 5.83 0 003.18-5.188 5.837 5.837 0 00-5.83-5.83zm1.59 19.038c0 .608-.494 1.103-1.102 1.103H5.345c-.295 0-.572-.115-.78-.324a1.095 1.095 0 01-.323-.78l.003-2.076h14.836zm.329-8.845a.52.52 0 00-.322.413.512.512 0 00-.006.09v5.205H4.246l.007-5.199a.546.546 0 00-.089-.306.525.525 0 00-.24-.197A4.77 4.77 0 011.06 7.95c0-2.63 2.14-4.77 4.77-4.77.103 0 .212.013.318.02A6.314 6.314 0 005.3 6.36a.53.53 0 101.06 0c0-2.922 2.378-5.3 5.3-5.3 2.923 0 5.3 2.378 5.3 5.3a.53.53 0 101.06 0c0-1.15-.31-2.227-.847-3.16.106-.007.215-.02.318-.02 2.63 0 4.77 2.14 4.77 4.77a4.77 4.77 0 01-2.852 4.363z"/></g></svg><svg width="194" height="194" fill="none" xmlns="http://www.w3.org/2000/svg" viewBox="0 0 194 194" x="0" y="0" data-name="cloud_up" data-svg-id="8c8c69524b"><path d="M37.547 81.116C43.044 53.31 67.577 32.333 97 32.333c23.361 0 43.609 13.257 53.754 32.617C175.044 67.576 194 88.148 194 113.166c0 26.796-21.704 48.5-48.5 48.5H40.417C18.107 161.667 0 143.56 0 121.25c0-21.34 16.611-38.638 37.547-40.134zm43.286 23.967v32.333h32.333v-32.333h24.25L97 64.667l-40.417 40.417h24.25v-.001z" fill="#333"/></svg><svg height="18" width="15" xmlns="http://www.w3.org/2000/svg" viewBox="0 0 15 18" x="416" y="287" data-name="cookbook" data-svg-id="556444b26a"><g fill="none" fill-rule="evenodd"><path d="M11.535 11.18a3.564 3.564 0 00-3.059-3.524v-.415a.5.5 0 00-1 0v.415a3.564 3.564 0 00-3.058 3.524v.188h-.47a.5.5 0 100 1h8.057a.5.5 0 000-1h-.47zm-1 .188H5.418v-.188A2.562 2.562 0 017.976 8.62a2.562 2.562 0 012.559 2.559zm-.137-8.437a1.308 1.308 0 010 2.613H7.186a.31.31 0 00-.306.307v.806a.5.5 0 11-1 0V5.85c0-.72.586-1.307 1.306-1.307h3.212c.166 0 .306-.14.306-.306s-.14-.307-.306-.307c-.343-.036-.514-.202-.514-.498s.171-.464.514-.502z" fill="#222" fill-rule="nonzero"/><g stroke="#222" stroke-width="1.1"><path d="M2.55.55v13.9H12A2.45 2.45 0 0014.45 12V3A2.45 2.45 0 0012 .55z"/><path d="M3.334 14.62v2.566L4.82 16.4l1.56.86v-2.64" stroke-linejoin="round"/><path d="M2.45 14.45V.55H1A.45.45 0 00.55 1v13c0 .249.201.45.45.45z"/></g></g></svg><svg width="12" height="13" fill="none" xmlns="http://www.w3.org/2000/svg" viewBox="0 0 12 13" x="22" y="416" data-name="dot" data-svg-id="a5cabab634"><rect x=".5" y=".921" width="11" height="11.042" rx="5.5" fill="#fff" stroke="#fff"/></svg><svg width="18" height="15" xmlns="http://www.w3.org/2000/svg" viewBox="0 0 18 15" x="416" y="315" data-name="enveope" data-svg-id="9448c8bb0c"><g stroke="#222" stroke-width="1.2" fill="none" fill-rule="evenodd"><path d="M1.076.905l7.217 7.217a1 1 0 001.414 0L16.924.905"/><rect x=".6" y=".6" width="16.8" height="13.8" rx="2"/></g></svg><svg height="26" width="26" xmlns="http://www.w3.org/2000/svg" viewBox="0 0 26 26" x="313" y="256" data-name="facebook" data-svg-id="c7768bccfa"><g fill="none"><rect height="25" rx="6" stroke="#dbdbdb" width="25" x=".5" y=".5"/><path d="M16.547 13.047h-2.464v8.077h-3.107v-8.077H9.32V9.734h1.45V8.325c0-1.325.662-3.417 3.458-3.417h2.547v2.755h-1.802c-.29 0-.683.186-.683.828v1.243h2.547z" fill="#292929"/></g></svg><svg height="37" width="37" xmlns="http://www.w3.org/2000/svg" viewBox="0 0 37 37" x="369" y="32" data-name="faq-facebook" data-svg-id="14bea441bc"><g fill="#fff"><path d="M18.392 26.966a.718.718 0 00-.718.718v.012a.718.718 0 101.437 0v-.003-.003-.003-.003a.718.718 0 00-.719-.718z"/><path d="M29.744 0H7.04A7.049 7.049 0 000 7.04v22.704a7.049 7.049 0 007.04 7.04h11.352a.718.718 0 00.719-.718v-5.568a.718.718 0 10-1.437 0v4.85H7.04a5.61 5.61 0 01-5.604-5.604V7.04A5.61 5.61 0 017.04 1.437h22.703a5.61 5.61 0 015.604 5.604v22.703a5.61 5.61 0 01-5.604 5.604h-4.598v-12.68h4.165c.37 0 .678-.28.715-.647l.517-5.134a.718.718 0 00-.715-.79h-4.682V13.4c0-.488.155-.67.573-.67h4.077a.718.718 0 00.718-.718V7.008a.718.718 0 00-.718-.718h-5.354c-3.034 0-4.642 1.332-5.458 2.45-1.14 1.563-1.31 3.41-1.31 4.37v3.019h-3.52a.718.718 0 00-.72.718v5.102c0 .396.323.718.72.718h3.52v2.048a.718.718 0 101.437 0v-2.766a.718.718 0 00-.719-.719h-3.52v-3.664h3.52a.718.718 0 00.719-.719v-3.736c0-1.62.52-5.384 5.331-5.384h4.635v3.568H25.72c-.927 0-2.01.551-2.01 2.106v3.414c0 .397.321.718.718.718h4.607l-.373 3.697h-4.234a.718.718 0 00-.718.719v14.117c0 .397.321.718.718.718h5.317a7.049 7.049 0 007.04-7.04V7.04A7.049 7.049 0 0029.744 0z"/><path d="M4.167 7.364a.718.718 0 00-.718.719v5.999a.718.718 0 101.436 0v-6a.718.718 0 00-.718-.718zM4.167 16.48a.718.718 0 00-.718.718v.009a.718.718 0 101.436 0v-.009a.718.718 0 00-.718-.718z"/></g></svg><svg height="40" width="40" xmlns="http://www.w3.org/2000/svg" viewBox="0 0 40 40" x="103" y="204" data-name="faq-mail" data-svg-id="18721a88ed"><g fill="#fff"><path d="M39.757 15.202a.626.626 0 00-.027-.135.663.663 0 00-.038-.114.595.595 0 00-.066-.101.625.625 0 00-.088-.103c-.01-.009-.016-.022-.027-.03l-6.374-4.951v-5.13c0-1.099-.89-1.99-1.988-1.99h-7.183L21.09.417a1.965 1.965 0 00-2.417 0l-2.876 2.233H8.614c-1.098 0-1.988.89-1.988 1.988v5.13L.254 14.719c-.011.01-.016.022-.027.031a.622.622 0 00-.088.103.592.592 0 00-.066.101.654.654 0 00-.038.114.628.628 0 00-.027.133c0 .014-.008.026-.008.04v22.536c.001.422.137.832.39 1.17.003.006.004.013.008.019.005.005.015.01.022.018.372.49.951.779 1.566.782h35.79a1.98 1.98 0 001.573-.785c.005-.007.013-.009.018-.015.004-.007.005-.013.009-.019.252-.338.388-.748.389-1.17V15.242c0-.014-.007-.026-.008-.04zM19.484 1.462a.635.635 0 01.79 0l1.53 1.187h-3.845zM2.154 38.439l17.33-13.462a.636.636 0 01.79 0L37.61 38.44zm36.285-1.033L21.09 23.93a1.967 1.967 0 00-2.417 0L1.323 37.406V16.25l10.862 8.434a.663.663 0 10.812-1.048L1.963 15.07l4.663-3.623v5.121a.663.663 0 001.325 0V4.637c0-.366.297-.663.663-.663H31.15c.366 0 .662.297.662.663v11.93a.663.663 0 101.326 0v-5.121l4.663 3.623-11.054 8.583a.663.663 0 10.813 1.048l10.88-8.449z"/><path d="M27.835 15.904v-2.65a7.953 7.953 0 10-7.954 7.953.663.663 0 100-1.326 6.628 6.628 0 116.628-6.628v2.652a1.326 1.326 0 11-2.65 0v-2.652a.663.663 0 10-1.326 0 2.651 2.651 0 11-2.652-2.65.663.663 0 100-1.326 3.977 3.977 0 102.68 6.907 2.644 2.644 0 005.274-.28z"/></g></svg><svg height="40" width="32" xmlns="http://www.w3.org/2000/svg" viewBox="0 0 32 40" x="349" y="204" data-name="faq-phone" data-svg-id="0c07147934"><g fill="#fff"><path d="M25.804 15.406l-.893.976 4.062 3.723a4.647 4.647 0 011.501 3.418v16.212H31.8V23.523a5.976 5.976 0 00-1.933-4.394z"/><path d="M20.54 0H3.322A3.315 3.315 0 00.01 3.311v33.113a3.315 3.315 0 003.31 3.311h16.557V38.55a15.056 15.056 0 012.538-8.381.662.662 0 00-.083-.836l-4.636-4.636a2.148 2.148 0 01.158-3.178 2.23 2.23 0 012.965.228l6.537 6.537.936-.936-4.441-4.443V3.31A3.315 3.315 0 0020.54 0zm1.987 21.58l-.77-.77a3.564 3.564 0 00-4.745-.314 3.473 3.473 0 00-.251 5.138l4.258 4.258a16.374 16.374 0 00-2.46 8.519H3.321a1.987 1.987 0 01-1.987-1.987v-1.987h16.556v-1.324H1.335V5.298h21.192zm0-17.606H1.335V3.31c0-1.097.89-1.986 1.987-1.986H20.54c1.097 0 1.987.89 1.987 1.986z"/><path d="M3.984 11.92h2.65c.73 0 1.324-.592 1.324-1.324V7.947c0-.732-.593-1.324-1.325-1.324H3.984c-.732 0-1.324.592-1.324 1.324v2.649c0 .732.592 1.325 1.324 1.325zm0-3.973h2.65v2.649h-2.65zM10.607 11.92h2.649c.731 0 1.324-.592 1.324-1.324V7.947c0-.732-.593-1.324-1.324-1.324h-2.65c-.731 0-1.324.592-1.324 1.324v2.649c0 .732.593 1.325 1.325 1.325zm0-3.973h2.649v2.649h-2.65zM17.23 11.92h2.648c.732 0 1.325-.592 1.325-1.324V7.947c0-.732-.593-1.324-1.325-1.324H17.23c-.731 0-1.324.592-1.324 1.324v2.649c0 .732.593 1.325 1.324 1.325zm0-3.973h2.648v2.649H17.23zM3.984 18.543h2.65c.73 0 1.324-.593 1.324-1.324v-2.65c0-.731-.593-1.324-1.325-1.324H3.984c-.732 0-1.324.593-1.324 1.325v2.649c0 .731.592 1.324 1.324 1.324zm0-3.973h2.65v2.649h-2.65zM3.984 25.166h2.65c.73 0 1.324-.593 1.324-1.325v-2.649c0-.732-.593-1.324-1.325-1.324H3.984c-.732 0-1.324.592-1.324 1.324v2.65c0 .73.592 1.324 1.324 1.324zm0-3.974h2.65v2.65h-2.65zM10.607 18.543h2.649c.731 0 1.324-.593 1.324-1.324v-2.65c0-.731-.593-1.324-1.324-1.324h-2.65c-.731 0-1.324.593-1.324 1.325v2.649c0 .731.593 1.324 1.325 1.324zm0-3.973h2.649v2.649h-2.65zM17.23 18.543h2.648c.732 0 1.325-.593 1.325-1.324v-2.65c0-.731-.593-1.324-1.325-1.324H17.23c-.731 0-1.324.593-1.324 1.325v2.649c0 .731.593 1.324 1.324 1.324zm0-3.973h2.648v2.649H17.23zM10.607 25.166h2.649c.731 0 1.324-.593 1.324-1.325v-2.649c0-.732-.593-1.324-1.324-1.324h-2.65c-.731 0-1.324.592-1.324 1.324v2.65c0 .73.593 1.324 1.325 1.324zm0-3.974h2.649v2.65h-2.65zM3.984 31.788h2.65c.73 0 1.324-.593 1.324-1.324v-2.65c0-.731-.593-1.324-1.325-1.324H3.984c-.732 0-1.324.593-1.324 1.325v2.649c0 .731.592 1.324 1.324 1.324zm0-3.973h2.65v2.649h-2.65zM10.607 31.788h2.649c.731 0 1.324-.593 1.324-1.324v-2.65c0-.731-.593-1.324-1.324-1.324h-2.65c-.731 0-1.324.593-1.324 1.325v2.649c0 .731.593 1.324 1.325 1.324zm0-3.973h2.649v2.649h-2.65zM11.269 35.762h1.324v1.324H11.27z"/></g></svg><svg fill="none" height="42" width="43" xmlns="http://www.w3.org/2000/svg" viewBox="0 0 43 42" x="257" y="143" data-name="forward" data-svg-id="0e272778ce"><g stroke="#fff"><circle cx="21.006" cy="21" r="20.5" transform="rotate(180 21.006 21)"/><path d="M12.006 20.975h17m0 0l-5.176 5.466m5.176-5.466l-4.891-4.631" stroke-linecap="round"/></g></svg><svg width="18" height="18" xmlns="http://www.w3.org/2000/svg" viewBox="0 0 18 18" x="416" y="179" data-name="gear" data-svg-id="8e8090960e"><g fill="#222" fill-rule="nonzero"><path d="M9 4.697A4.308 4.308 0 004.697 9 4.308 4.308 0 009 13.303 4.308 4.308 0 0013.303 9 4.308 4.308 0 009 4.697zm0 7.53A3.23 3.23 0 015.773 9 3.23 3.23 0 019 5.773 3.23 3.23 0 0112.227 9 3.23 3.23 0 019 12.227z"/><path d="M17.576 6.95l-1.383-.3a7.53 7.53 0 00-.445-1.074l.766-1.191a.538.538 0 00-.072-.671l-2.156-2.156a.538.538 0 00-.67-.072l-1.192.766a7.53 7.53 0 00-1.074-.445l-.3-1.383A.538.538 0 0010.523 0H7.476a.538.538 0 00-.525.424L6.65 1.807a7.53 7.53 0 00-1.074.445l-1.191-.766a.538.538 0 00-.671.072L1.558 3.714a.538.538 0 00-.072.67l.766 1.192a7.53 7.53 0 00-.445 1.074l-1.383.3A.538.538 0 000 7.477v3.048c0 .253.176.472.424.525l1.383.301c.12.369.27.728.445 1.074l-.766 1.191a.538.538 0 00.072.671l2.156 2.156a.538.538 0 00.67.072l1.192-.766a7.53 7.53 0 001.074.445l.3 1.383a.538.538 0 00.526.424h3.048a.538.538 0 00.525-.424l.301-1.383a7.53 7.53 0 001.074-.445l1.191.766a.538.538 0 00.671-.072l2.156-2.156a.538.538 0 00.072-.67l-.766-1.192a7.53 7.53 0 00.445-1.074l1.383-.3a.538.538 0 00.424-.526V7.476a.538.538 0 00-.424-.525zm-.652 3.14l-1.268.276a.538.538 0 00-.404.381c-.14.5-.34.984-.596 1.437a.538.538 0 00.016.556l.702 1.092-1.542 1.542-1.092-.702a.537.537 0 00-.555-.016 6.457 6.457 0 01-1.438.596.538.538 0 00-.38.404l-.277 1.268H7.91l-.276-1.268a.538.538 0 00-.381-.404c-.5-.14-.984-.34-1.437-.596a.538.538 0 00-.556.016l-1.092.702-1.542-1.542.702-1.092a.538.538 0 00.016-.556 6.46 6.46 0 01-.596-1.437.538.538 0 00-.404-.38l-1.268-.277V7.91l1.268-.276a.538.538 0 00.404-.381c.14-.5.34-.984.596-1.437a.538.538 0 00-.016-.556l-.702-1.092 1.542-1.542 1.092.702a.537.537 0 00.555.016 6.457 6.457 0 011.438-.596.538.538 0 00.38-.404l.277-1.268h2.18l.276 1.268c.043.195.19.35.381.404.5.14.984.34 1.437.596a.538.538 0 00.556-.016l1.092-.702 1.542 1.542-.702 1.092a.538.538 0 00-.016.556c.256.453.456.937.596 1.437a.538.538 0 00.404.38l1.268.277v2.18z"/></g></svg><svg height="24" width="27" xmlns="http://www.w3.org/2000/svg" viewBox="0 0 27 24" x="72" y="350" data-name="heart" data-svg-id="1c79c39632"><g fill="#fff"><path d="M18.519.017a7.6 7.6 0 00-5.447 2.29A7.625 7.625 0 000 7.643c0 8.715 13.072 16.34 13.072 16.34s13.073-7.625 13.073-16.34A7.626 7.626 0 0018.519.017zm.382 18.235c-2.373 2.18-4.777 3.786-5.829 4.453-1.051-.667-3.456-2.274-5.828-4.453-1.82-1.672-3.263-3.346-4.291-4.978-1.237-1.963-1.864-3.858-1.864-5.631 0-1.746.68-3.387 1.915-4.622a6.493 6.493 0 014.621-1.914 6.518 6.518 0 014.668 1.962l.78.794.777-.794a6.521 6.521 0 014.669-1.962c1.746 0 3.387.68 4.622 1.914a6.494 6.494 0 011.914 4.622c0 1.773-.627 3.668-1.864 5.63-1.028 1.633-2.471 3.307-4.29 4.979z"/><path d="M8.01 2.355a.544.544 0 00-.385-.16A5.447 5.447 0 002.18 7.644a.545.545 0 001.09 0A4.33 4.33 0 014.543 4.56a4.329 4.329 0 013.081-1.276.543.543 0 00.386-.93z"/></g></svg><svg width="12" height="14" xmlns="http://www.w3.org/2000/svg" viewBox="0 0 12 14" x="0" y="416" data-name="home" data-svg-id="ed27b89734"><g stroke="#FFF" fill="none" fill-rule="evenodd" stroke-linecap="round" stroke-linejoin="round"><path d="M.5 4.739L5.95.5l5.45 4.239V11.4c0 .669-.542 1.211-1.211 1.211H1.711A1.211 1.211 0 01.5 11.4V4.739z"/><path d="M4.133 12.612V6.556h3.633v6.056"/></g></svg><svg width="36" height="31" xmlns="http://www.w3.org/2000/svg" viewBox="0 0 36 31" x="94" y="256" data-name="i-cooking-time" data-svg-id="5aebc5fff8"><g fill="#FFF" fill-rule="nonzero" stroke="#FFF" stroke-width=".2"><path d="M16.844 27.884A13.078 13.078 0 1126.93 9.721c.382.092.751.23 1.1.411-2.52-6.879-9.929-10.639-16.968-8.611-7.04 2.027-11.314 9.152-9.789 16.317 1.525 7.165 8.33 11.932 15.585 10.917a.824.824 0 01-.017-.156l.003-.715z"/><path d="M30.611 23.395h-8.069a4.473 4.473 0 00-4.467 4.468v2.017a.434.434 0 00.867 0v-2.017a3.605 3.605 0 013.6-3.6h8.069a3.605 3.605 0 013.6 3.6v2.017a.434.434 0 00.867 0v-2.017a4.473 4.473 0 00-4.467-4.468h0zM22.108 15.76a4.467 4.467 0 108.934-.002 4.467 4.467 0 00-8.934.002h0zm8.068 0a3.6 3.6 0 11-7.202 0 3.6 3.6 0 017.203 0h-.001zM15.141 7.8V3.087a.433.433 0 10-.865 0V7.8a.433.433 0 10.865 0h0zM2.626 14.693a.433.433 0 000 .866h4.713a.433.433 0 100-.866H2.626zM14.236 22.496v4.713a.433.433 0 10.866 0v-4.713a.433.433 0 10-.866 0zM19.163 13.35a.433.433 0 00-.593-.151l-3.781 2.25-5.94-7.393a.433.433 0 00-.675.542l6.175 7.687.022.022a.45.45 0 00.117.09c.021.011.043.02.066.027l.03.01a.4.4 0 00.231-.008c.013 0 .025-.011.038-.016a.35.35 0 00.054-.023l4.1-2.442a.433.433 0 00.156-.595h0z"/></g></svg><svg width="18" height="20" xmlns="http://www.w3.org/2000/svg" viewBox="0 0 18 20" x="416" y="149" data-name="i-delete" data-svg-id="45dbd3aa37"><g fill="#FFF" fill-rule="nonzero"><path d="M12.466 6.538l-1.485-.054-.321 8.788 1.484.054zM8.109 6.51h1.485V15.3H8.109zM7.044 15.272l-.322-8.789-1.484.055.322 8.788z"/><path d="M.014 2.847v1.485h1.548L2.79 18.285a.743.743 0 00.74.678h10.62a.743.743 0 00.739-.678l1.228-13.953h1.573V2.847H.014zm13.455 14.63H4.21L3.053 4.333h11.573l-1.157 13.146z"/><path d="M11.278 0H6.426a1.24 1.24 0 00-1.238 1.238V3.59h1.485V1.485h4.357V3.59h1.486V1.238A1.24 1.24 0 0011.278 0z"/></g></svg><svg width="19" height="19" xmlns="http://www.w3.org/2000/svg" viewBox="0 0 19 19" x="416" y="62" data-name="i-edit" data-svg-id="d3b04d1b16"><g fill="#FFF" fill-rule="nonzero"><path d="M18.741 4.13L14.833.222a.756.756 0 00-1.07 0L1.458 12.501a.756.756 0 00-.202.36L.021 18.03a.757.757 0 00.911.911l5.17-1.236a.754.754 0 00.36-.201l12.28-12.306a.756.756 0 000-1.069zm-13.2 12.155l-3.762.9.9-3.764L14.297 1.826l2.84 2.84L5.541 16.285z"/><path d="M10.863 4.166l1.07-1.07 3.934 3.934-1.07 1.07z"/><path d="M3.373 14.519l9.456-9.456 1.07 1.07-9.456 9.455z"/><path d="M1.432 13.622l1.07-1.07L6.41 16.46l-1.07 1.07z"/></g></svg><svg width="32" height="31" xmlns="http://www.w3.org/2000/svg" viewBox="0 0 32 31" x="271" y="256" data-name="i-eye" data-svg-id="271d0ffe0a"><g transform="translate(1)" stroke="#FFF" stroke-width="1.24" fill="none" fill-rule="evenodd"><path d="M0 16.74c1.147-5.373 6.138-8.06 14.973-8.06s13.764 2.687 14.787 8.06"/><circle cx="14.88" cy="16.74" r="4.34"/><path d="M0 16.12c1.147 5.373 6.138 8.06 14.973 8.06s13.764-2.687 14.787-8.06"/><path stroke-linecap="round" d="M6.361 6.82L3.066 3.526M23.56 6.82l3.294-3.294M14.88 5.579V.726M6.361 6.82L3.066 3.526"/><g stroke-linecap="round"><path d="M8.756 26.98L7.44 28.295M21.08 26.98l1.316 1.315M14.88 26.908v3.1"/></g><path stroke-linecap="round" d="M23.56 6.82l3.294-3.294"/></g></svg><svg width="33" height="31" xmlns="http://www.w3.org/2000/svg" viewBox="0 0 33 31" x="228" y="256" data-name="i-eye-dark" data-svg-id="8bd572f65e"><g transform="translate(1.5)" stroke="#292929" stroke-width="1.24" fill="none" fill-rule="evenodd"><path d="M0 16.74c1.147-5.373 6.138-8.06 14.973-8.06s13.764 2.687 14.787 8.06"/><circle cx="14.88" cy="16.74" r="4.34"/><path d="M0 16.12c1.147 5.373 6.138 8.06 14.973 8.06s13.764-2.687 14.787-8.06"/><path stroke-linecap="round" d="M6.361 6.82L3.066 3.526M23.56 6.82l3.294-3.294M14.88 5.579V.726M6.361 6.82L3.066 3.526M23.56 6.82l3.294-3.294"/><g stroke-linecap="round"><path d="M8.756 26.98L7.44 28.295M21.08 26.98l1.316 1.315M14.88 26.908v3.1"/></g></g></svg><svg width="38" height="40" xmlns="http://www.w3.org/2000/svg" viewBox="0 0 38 40" x="253" y="204" data-name="i-file" data-svg-id="57f57fe95e"><path d="M26.513 0c.207 0 .405.084.549.233l10.084 10.479a.762.762 0 01.213.528V36.54a3.05 3.05 0 01-3.05 3.042H11.483a3.05 3.05 0 01-3.05-3.044v-6.852H2.342a2.285 2.285 0 01-2.283-2.281V15.984a2.285 2.285 0 012.283-2.282h6.09V3.049A3.053 3.053 0 0111.484 0zM25.18 1.522H11.483A1.53 1.53 0 009.955 3.05v10.653h12.942a2.285 2.285 0 012.283 2.282v11.422a2.285 2.285 0 01-2.283 2.282H9.955v6.851c0 .84.686 1.522 1.528 1.522H34.31c.842 0 1.528-.682 1.528-1.52V12.18H25.94a.761.761 0 01-.761-.76V1.521zm-2.283 13.702H2.342a.76.76 0 00-.76.76v11.422c0 .419.34.76.76.76h20.555a.76.76 0 00.76-.76V15.984a.76.76 0 00-.76-.76zM8.215 18.5l.15.15v.896l-.15.15H5.41v1.602l2.426.001.15.15v.888l-.15.15H5.411v2.561l-.15.15H4.15l-.15-.15V18.65l.15-.15h4.065zm2.052 0l.15.15v6.398l-.15.15H9.16l-.15-.15V18.65l.15-.15h1.107zm2.479 0l.15.15-.001 5.36h2.755l.15.15v.888l-.15.15h-4.016l-.15-.15V18.65l.15-.15h1.112zm7.91 0l.15.15v.896l-.15.15h-2.892v1.466l2.479.001.15.15v.879l-.15.15h-2.479v1.668h2.923l.15.15v.888l-.15.15h-4.184l-.15-.15V18.65l.15-.15h4.153zm6.046-16.445v8.602h8.279l-8.279-8.602z" fill="#FFF" fill-rule="nonzero"/></svg><svg width="34" height="31" xmlns="http://www.w3.org/2000/svg" viewBox="0 0 34 31" x="140" y="256" data-name="i-heart" data-svg-id="f00230ce99"><g fill="#FFF" fill-rule="nonzero"><path d="M23.92.022a9.817 9.817 0 00-7.035 2.957A9.82 9.82 0 009.85.022C4.41.022 0 4.432 0 9.872c0 11.257 16.885 21.106 16.885 21.106S33.77 21.128 33.77 9.872c0-5.44-4.41-9.85-9.85-9.85zm.494 23.553c-3.065 2.816-6.17 4.891-7.529 5.752-1.358-.86-4.464-2.936-7.529-5.752-2.35-2.159-4.214-4.321-5.542-6.43-1.597-2.535-2.407-4.982-2.407-7.273 0-2.255.878-4.375 2.473-5.97A8.387 8.387 0 019.85 1.43a8.42 8.42 0 016.03 2.535l1.005 1.026 1.005-1.026a8.423 8.423 0 016.03-2.535c2.256 0 4.376.878 5.97 2.473a8.388 8.388 0 012.472 5.97c0 2.29-.81 4.738-2.407 7.273-1.327 2.109-3.192 4.271-5.541 6.43z"/><path d="M10.347 3.042a.703.703 0 00-.498-.206 7.036 7.036 0 00-7.035 7.036.704.704 0 001.407 0c0-1.504.586-2.917 1.649-3.98a5.591 5.591 0 013.98-1.649.704.704 0 00.498-1.201z"/></g></svg><svg width="34" height="31" xmlns="http://www.w3.org/2000/svg" viewBox="0 0 34 31" x="184" y="256" data-name="i-heart-dark" data-svg-id="34a7571cfd"><g fill="#292929" fill-rule="nonzero"><path d="M23.92.022a9.817 9.817 0 00-7.035 2.957A9.82 9.82 0 009.85.022C4.41.022 0 4.432 0 9.872c0 11.257 16.885 21.106 16.885 21.106S33.77 21.128 33.77 9.872c0-5.44-4.41-9.85-9.85-9.85zm.494 23.553c-3.065 2.816-6.17 4.891-7.529 5.752-1.358-.86-4.464-2.936-7.529-5.752-2.35-2.159-4.214-4.321-5.542-6.43-1.597-2.535-2.407-4.982-2.407-7.273 0-2.255.878-4.375 2.473-5.97A8.387 8.387 0 019.85 1.43a8.42 8.42 0 016.03 2.535l1.005 1.026 1.005-1.026a8.423 8.423 0 016.03-2.535c2.256 0 4.376.878 5.97 2.473a8.388 8.388 0 012.472 5.97c0 2.29-.81 4.738-2.407 7.273-1.327 2.109-3.192 4.271-5.541 6.43z"/><path d="M10.347 3.042a.703.703 0 00-.498-.206 7.036 7.036 0 00-7.035 7.036.704.704 0 001.407 0c0-1.504.586-2.917 1.649-3.98a5.591 5.591 0 013.98-1.649.704.704 0 00.498-1.201z"/></g></svg><svg width="38" height="40" xmlns="http://www.w3.org/2000/svg" viewBox="0 0 38 40" x="301" y="204" data-name="i-pdf" data-svg-id="0ca483bacf"><g fill="#FFF" fill-rule="nonzero"><path d="M37.146 10.712L27.062.233A.762.762 0 0026.513 0h-15.03a3.053 3.053 0 00-3.05 3.05v10.652H2.342a2.285 2.285 0 00-2.283 2.282v11.422a2.285 2.285 0 002.283 2.282h6.09v6.851a3.05 3.05 0 003.051 3.044H34.31a3.05 3.05 0 003.05-3.042V11.24a.762.762 0 00-.213-.528zM26.702 2.055l8.279 8.602h-8.279V2.055zm-24.36 26.11a.76.76 0 01-.76-.76V15.985c0-.419.34-.76.76-.76h20.555c.42 0 .76.341.76.76v11.422a.76.76 0 01-.76.76H2.342zm33.495 8.376c0 .838-.686 1.52-1.528 1.52H11.483a1.527 1.527 0 01-1.528-1.522v-6.852h12.942a2.285 2.285 0 002.283-2.281V15.984a2.285 2.285 0 00-2.283-2.282H9.955V3.049a1.53 1.53 0 011.528-1.527H25.18v9.896c0 .42.34.761.76.761h9.897v24.362z"/><path d="M9.16 19.32a1.714 1.714 0 00-.941-.64c-.244-.066-.767-.099-1.57-.099H4.53v6.54h1.32v-2.467h.861c.598 0 1.054-.032 1.37-.094.232-.05.46-.154.684-.31.225-.156.41-.371.556-.645.145-.273.218-.61.218-1.012 0-.52-.126-.945-.38-1.273zm-1.13 1.8a.867.867 0 01-.413.32c-.176.069-.524.103-1.044.103H5.85v-1.855h.638c.476 0 .793.014.95.044a.913.913 0 01.53.29c.14.155.21.351.21.589 0 .193-.05.363-.149.508zM15.886 20.368a2.857 2.857 0 00-.624-1.06 2.187 2.187 0 00-.986-.602c-.286-.083-.7-.125-1.245-.125h-2.413v6.54h2.485c.487 0 .877-.047 1.168-.14.39-.124.7-.298.928-.521.303-.294.537-.68.7-1.155.134-.39.201-.854.201-1.392 0-.612-.071-1.127-.214-1.545zm-1.285 2.685c-.089.293-.204.503-.345.631a1.218 1.218 0 01-.533.272c-.164.042-.43.063-.799.063h-.985v-4.331h.593c.538 0 .9.02 1.084.062.246.054.45.156.61.308.161.152.286.363.375.633.09.27.134.659.134 1.164 0 .506-.044.905-.134 1.198zM21.711 19.688V18.58h-4.483v6.54h1.32v-2.78h2.73v-1.106h-2.73v-1.547z"/></g></svg><svg width="37" height="32" xmlns="http://www.w3.org/2000/svg" viewBox="0 0 37 32" x="47" y="256" data-name="i-persons" data-svg-id="b32c738887"><g fill="#FFF" fill-rule="nonzero" stroke="#FFF" stroke-width=".2"><path d="M18.758 9.05a4.025 4.025 0 100-8.05 4.025 4.025 0 000 8.05zm0-7.269a3.244 3.244 0 11-3.244 3.244 3.248 3.248 0 013.244-3.248v.004zM11.511 25.545H5.027a4.03 4.03 0 00-4.025 4.025v1.817a.39.39 0 10.781 0V29.57a3.248 3.248 0 013.244-3.244h7.269a3.248 3.248 0 013.244 3.244v1.817a.39.39 0 10.78 0V29.57a4.029 4.029 0 00-4.024-4.025c-.211 0-.394.003-.785 0zM31.509 25.545h-6.484A4.03 4.03 0 0021 29.57v1.817a.39.39 0 10.781 0V29.57a3.248 3.248 0 013.244-3.244h7.269a3.248 3.248 0 013.244 3.244v1.817a.39.39 0 10.78 0V29.57a4.029 4.029 0 00-4.024-4.025c-.211 0-.394.003-.785 0zM21.509 12h-6.484a4.026 4.026 0 00-3.365 1.82c-.072.109-.14.376.114.54.254.163.498-.055.568-.157a3.247 3.247 0 012.683-1.422h7.269a3.244 3.244 0 012.622 1.336c.084.115.297.355.605.242.308-.113.23-.399.14-.535A4.026 4.026 0 0022.295 12c-.211 0-.394.003-.785 0zM28.581 22.695a4.025 4.025 0 10.002-8.05 4.025 4.025 0 00-.002 8.05zm0-7.269a3.244 3.244 0 11-3.244 3.244 3.248 3.248 0 013.244-3.248v.004zM8.659 22.695a4.025 4.025 0 100-8.05 4.025 4.025 0 000 8.05h0zm0-7.269a3.244 3.244 0 11-3.245 3.244 3.247 3.247 0 013.245-3.248v.004z"/></g></svg><svg width="24" height="38" xmlns="http://www.w3.org/2000/svg" viewBox="0 0 24 38" x="78" y="300" data-name="i-play" data-svg-id="e70a81ba96"><path d="M20 19L2 33V5z" stroke="#FFF" stroke-width="4" fill="none" fill-rule="evenodd"/></svg><svg width="14" height="14" xmlns="http://www.w3.org/2000/svg" viewBox="0 0 14 14" x="30" y="386" data-name="i-share" data-svg-id="adf524b90d"><path d="M10.683 8.987c-.805 0-1.522.383-1.98.976L4.858 7.816a2.51 2.51 0 00-.003-1.653l3.84-2.143a2.497 2.497 0 001.984.982c1.377 0 2.5-1.122 2.5-2.501C13.18 1.12 12.06 0 10.68 0a2.503 2.503 0 00-2.358 3.329L4.485 5.472A2.489 2.489 0 002.5 4.49 2.505 2.505 0 000 6.991a2.501 2.501 0 004.49 1.516l3.84 2.147a2.49 2.49 0 00-.145.834c0 1.376 1.121 2.5 2.5 2.5 1.38 0 2.502-1.12 2.502-2.5s-1.124-2.501-2.504-2.501zm0-8.2c.947 0 1.717.77 1.717 1.717 0 .947-.77 1.716-1.717 1.716-.947 0-1.717-.77-1.717-1.716A1.72 1.72 0 0110.683.787zm-8.18 7.92c-.946 0-1.716-.769-1.716-1.716s.77-1.716 1.717-1.716c.947 0 1.716.77 1.716 1.716a1.72 1.72 0 01-1.716 1.717zm8.18 4.494c-.947 0-1.717-.77-1.717-1.716 0-.947.77-1.717 1.717-1.717.947 0 1.717.77 1.717 1.717 0 .947-.77 1.716-1.717 1.716z" fill="#FFF" fill-rule="nonzero"/></svg><svg width="37" height="34" xmlns="http://www.w3.org/2000/svg" viewBox="0 0 37 34" x="0" y="256" data-name="i-star-dark" data-svg-id="f647570aa0"><path d="M18.493 2l4.24 10.835 11.767.624-9.146 7.32L28.388 32 18.5 25.69 8.612 32l3.034-11.22L2.5 13.46l11.766-.625z" stroke="#292929" stroke-width="1.4" fill="none" fill-rule="evenodd"/></svg><svg width="11" height="21" fill="none" xmlns="http://www.w3.org/2000/svg" viewBox="0 0 11 21" x="416" y="340" data-name="icon_facebook" data-svg-id="b70e4886a5"><path d="M8.383 4.737h2.571V.938H7.931v.014c-3.662.13-4.413 2.188-4.48 4.35h-.007V7.2H.95v3.72h2.494v9.971h3.76V10.92h3.078l.595-3.72H7.204V6.054c0-.731.487-1.317 1.179-1.317z" fill="#fff"/></svg><svg xmlns="http://www.w3.org/2000/svg" width="20" height="20" viewBox="0 0 20 20" x="385" y="256" data-name="icon_facebook_dark" data-svg-id="9a105434ad"><path d="M11.25 20v-8.75H15l.625-3.75H11.25V5.625c0-1.25.625-1.875 1.875-1.875H15V0h-3.125C8.75 0 7.5 1.875 7.5 5v2.5H3.75v3.75H7.5V20zm0 0" fill="#3b5998"/></svg><svg xmlns="http://www.w3.org/2000/svg" width="20" height="20" viewBox="0 0 20 20" x="0" y="386" data-name="icon_google_dark" data-svg-id="8f9dc01319"><path d="M18.172 8.367H17.5v-.035H10v3.336h4.71A5.003 5.003 0 0110 15a5 5 0 110-10c1.273 0 2.434.48 3.316 1.266l2.36-2.356A8.3 8.3 0 0010 1.668a8.332 8.332 0 108.172 6.7zm0 0" fill="#ffc107"/><path d="M2.629 6.121L5.367 8.13A4.998 4.998 0 0110 5c1.273 0 2.434.48 3.316 1.266l2.36-2.356A8.3 8.3 0 0010 1.668a8.324 8.324 0 00-7.371 4.453zm0 0" fill="#ff3d00"/><path d="M10 18.332c2.152 0 4.11-.824 5.586-2.16l-2.578-2.184A4.962 4.962 0 0110 15a5.002 5.002 0 01-4.703-3.313l-2.715 2.094A8.325 8.325 0 0010 18.332zm0 0" fill="#4caf50"/><path d="M18.172 8.367H17.5v-.035H10v3.336h4.71a5.043 5.043 0 01-1.702 2.32l2.578 2.18c-.18.168 2.746-2 2.746-6.168 0-.559-.055-1.105-.16-1.633zm0 0" fill="#1976d2"/></svg><svg width="24" height="24" fill="none" xmlns="http://www.w3.org/2000/svg" viewBox="0 0 24 24" x="143" y="350" data-name="icon_instagram" data-svg-id="c2d9d8269b"><path fill-rule="evenodd" clip-rule="evenodd" d="M5.066.727H18.84a4.345 4.345 0 014.34 4.339V18.84a4.343 4.343 0 01-4.339 4.339H5.066A4.343 4.343 0 01.727 18.84V5.066A4.343 4.343 0 015.066.727zm15.632 2.51h-.491l-3.275.012.012 3.726 3.754-.012V3.236zm-8.745 4.96c3.114 0 3.757 2.923 3.757 3.757a3.761 3.761 0 01-3.757 3.755 3.76 3.76 0 01-3.756-3.755c-.001-.834.643-3.757 3.757-3.757zm6.614 12.523a2.153 2.153 0 002.152-2.15h-.003V9.453h-3.08c.288.712.452 1.685.452 2.5a6.145 6.145 0 01-6.138 6.14 6.146 6.146 0 01-6.14-6.14c0-.815.164-1.788.453-2.5H3.145v9.115c0 1.187.965 2.151 2.153 2.151h13.269z" fill="#fff"/></svg><svg width="19" height="19" fill="none" xmlns="http://www.w3.org/2000/svg" viewBox="0 0 19 19" x="416" y="91" data-name="icon_linkedin" data-svg-id="5f4a6bae25"><path fill-rule="evenodd" clip-rule="evenodd" d="M3.965 2.847a1.871 1.871 0 11-3.743-.001 1.871 1.871 0 013.743.001zM14.8 5.531c-1.814 0-3.436.662-4.587 2.124V5.92h-3.75v12.495h3.75v-6.757c0-1.428 1.308-2.82 2.947-2.82s2.043 1.392 2.043 2.785v6.79h3.736v-7.068c0-4.91-2.325-5.815-4.14-5.815zM.244 18.416H3.98V5.962H.244v12.454z" fill="#fff"/></svg><svg width="25" height="19" fill="none" xmlns="http://www.w3.org/2000/svg" viewBox="0 0 25 19" x="211" y="350" data-name="icon_twitter" data-svg-id="b889348c08"><path d="M24.428 2.443c-.872.376-1.81.63-2.793.744A4.757 4.757 0 0023.773.574c-.94.543-1.98.936-3.089 1.146A4.926 4.926 0 0017.135.231c-2.684 0-4.861 2.112-4.861 4.718 0 .37.043.73.126 1.076-4.04-.197-7.625-2.076-10.022-4.93a4.584 4.584 0 00-.658 2.371c0 1.637.858 3.083 2.162 3.928a4.944 4.944 0 01-2.203-.592v.06c0 2.287 1.676 4.194 3.9 4.628a5.027 5.027 0 01-2.194.081c.618 1.876 2.414 3.24 4.543 3.278a9.94 9.94 0 01-6.04 2.02c-.393 0-.78-.023-1.16-.066a14.072 14.072 0 007.454 2.121c8.944 0 13.835-7.193 13.835-13.428l-.013-.612a9.704 9.704 0 002.424-2.441z" fill="#fff"/></svg><svg width="24" height="23" fill="none" xmlns="http://www.w3.org/2000/svg" viewBox="0 0 24 23" x="177" y="350" data-name="icon_youtube" data-svg-id="3d4e1ec4c0"><path fill-rule="evenodd" clip-rule="evenodd" d="M6.245 9.227h1.488V5.602L9.465.489H7.953l-.92 3.494h-.095L5.972.49h-1.5l1.773 5.276v3.462zm9.402-.017c.214 0 .43-.118.656-.24l.026-.015c.237-.13.463-.32.68-.566v.672h1.179V2.994h-1.179V7.6c-.11.13-.232.239-.363.325-.133.085-.243.129-.329.129-.11 0-.192-.032-.24-.098-.05-.063-.077-.167-.077-.309V2.995h-1.176v5.07c0 .361.072.632.207.812.139.18.343.333.616.333zm-2.688-.483c-.362.285-.856.486-1.487.486a2.271 2.271 0 01-1.46-.501c-.363-.296-.545-.69-.545-1.189V4.488c0-.455.187-.814.56-1.084.374-.268.878-.401 1.507-.401.576 0 1.046.14 1.414.424.366.283.55.65.55 1.096v3.026c0 .5-.18.891-.54 1.178zM10.99 4.355c-.119.073-.179.166-.179.28v2.876a.39.39 0 00.166.337c.111.08.27.12.477.12.21 0 .378-.042.502-.121a.38.38 0 00.187-.336V4.635c0-.114-.062-.207-.19-.28a1.017 1.017 0 00-.5-.106.9.9 0 00-.463.106zm-6.159 7.362h14.242c2.264 0 4.1 1.765 4.1 3.939v3.33c0 2.175-1.837 3.94-4.1 3.94H4.832c-2.264 0-4.099-1.765-4.099-3.94v-3.33c0-2.174 1.835-3.939 4.1-3.939zm2.12 3.38h-1.26v5.216H4.473v-5.216h-1.26v-.89h3.738v.89zm2.445 5.288h1.313v-4.928H9.397v3.74c-.123.109-.26.196-.408.265a.905.905 0 01-.366.104c-.123 0-.214-.024-.271-.078-.053-.052-.08-.134-.08-.252V15.46H6.959v4.118c0 .293.078.512.23.658.155.149.382.222.686.222.247 0 .502-.051.762-.158.265-.103.515-.256.76-.455v.54zm6.284-.938c0 .323-.102.569-.306.742-.2.173-.497.258-.88.258-.256 0-.483-.032-.68-.098a1.708 1.708 0 01-.555-.31v.35h-1.31v-6.181h1.31V16.2c.177-.137.363-.245.556-.317.199-.074.398-.109.6-.109.41 0 .722.096.938.29.218.194.327.48.327.853v2.53zm2.576-1.39h2.42V16.85c0-.447-.155-.791-.465-1.03-.312-.238-.757-.357-1.336-.357-.567 0-1.026.128-1.384.385-.36.258-.539.595-.539 1.003v2.122c0 .454.165.813.489 1.07.325.26.772.39 1.34.39.629 0 1.103-.123 1.42-.367.321-.246.477-.61.477-1.094v-.242h-1.3v.215c0 .279-.045.457-.128.54-.084.08-.23.122-.441.122-.201 0-.344-.048-.43-.144-.083-.097-.123-.269-.123-.517v-.89zm-4.73-1.514l.276-.046c.176 0 .309.04.404.119.092.079.136.195.136.35v2.356c0 .144-.039.248-.113.312-.074.066-.19.097-.35.097l-.313-.048a1.143 1.143 0 01-.308-.161V16.68l.268-.139z" fill="#fff"/></svg><svg fill="none" height="42" width="43" xmlns="http://www.w3.org/2000/svg" viewBox="0 0 43 42" x="310" y="143" data-name="info" data-svg-id="b35abebfa3"><g stroke="#fff"><circle cx="21.006" cy="21" r="20.5"/><path d="M21.006 16v16M18.006 32h6" stroke-linecap="round"/><circle cx="21.006" cy="11" fill="#fff" r="1"/></g></svg><svg height="40" width="40" xmlns="http://www.w3.org/2000/svg" viewBox="0 0 40 40" x="153" y="204" data-name="kitchen" data-svg-id="e41240d9aa"><g fill="none" fill-rule="evenodd"><g fill="#fff" fill-rule="nonzero"><path d="M37.07 27.227h-9.482a1.76 1.76 0 00-1.758-1.758h-3.486a1.76 1.76 0 00-1.758 1.758h-1.172c0-.362-.11-.698-.298-.978a2.93 2.93 0 001.47-2.538v-1.496a1.76 1.76 0 00-1.758-1.758H7.793a2.577 2.577 0 00-2.573 2.574 1.76 1.76 0 003.243.942h2.79c.086.973.651 1.81 1.457 2.276-.188.28-.298.616-.298.978H2.93A2.933 2.933 0 000 30.157v6.913A2.933 2.933 0 002.93 40h34.14A2.933 2.933 0 0040 37.07v-6.914a2.933 2.933 0 00-2.93-2.93zM8.094 22.8a.586.586 0 00-.558.408.587.587 0 01-1.144-.178c0-.773.628-1.402 1.401-1.402h3.447v1.172H8.094zm18.322 4.426h-1.743v-.586h1.157c.323 0 .586.262.586.586zm-4.072-.586H23.5v.586h-1.743c0-.324.263-.586.586-.586zm6.416 1.757v10.43H13.584v-2.812c.001-.646.527-1.171 1.172-1.172h10.489c.644 0 1.17.526 1.17 1.172v1.054a.587.587 0 001.173 0v-1.054c0-.626-.244-1.215-.686-1.657a2.328 2.328 0 00-1.657-.687H14.756c-.626 0-1.215.244-1.658.687a2.329 2.329 0 00-.685 1.657v2.812H11.24v-10.43zm-10.518-1.171H16.5v-.586h1.157c.323 0 .586.262.586.586zm-5.83-5.598h6.416c.323 0 .586.263.586.586v1.496a1.76 1.76 0 01-1.758 1.758H14.17a1.76 1.76 0 01-1.758-1.758zm1.758 5.012h1.157v.586h-1.743c0-.324.263-.586.586-.586zM1.172 37.07v-6.915c0-.969.788-1.758 1.758-1.758h7.138v10.43H2.93a1.76 1.76 0 01-1.758-1.758zm37.656 0a1.76 1.76 0 01-1.758 1.757h-7.138v-10.43h7.138c.97 0 1.758.789 1.758 1.758z"/><path d="M36.547 29.57h-4.334a1.11 1.11 0 00-1.11 1.11v5.867c0 .612.498 1.11 1.11 1.11h4.334a1.11 1.11 0 001.11-1.11V30.68a1.11 1.11 0 00-1.11-1.11zm-.063 6.914h-4.209v-5.742h4.21zM12.998 33.086c.97 0 1.758-.789 1.758-1.758s-.789-1.758-1.758-1.758-1.758.789-1.758 1.758.789 1.758 1.758 1.758zm0-2.344a.587.587 0 11-.001 1.173.587.587 0 01.001-1.173zM15.87 31.328c0 .97.788 1.758 1.757 1.758s1.758-.789 1.758-1.758-.789-1.758-1.758-1.758-1.758.789-1.758 1.758zm2.343 0a.587.587 0 11-1.173-.001.587.587 0 011.173.001zM27.002 29.57c-.97 0-1.758.789-1.758 1.758s.789 1.758 1.758 1.758c.97 0 1.758-.789 1.758-1.758s-.789-1.758-1.758-1.758zm0 2.344a.587.587 0 11.001-1.173.587.587 0 01-.001 1.173zM22.314 33.086c.97 0 1.758-.789 1.758-1.758s-.788-1.758-1.758-1.758c-.969 0-1.757.789-1.757 1.758s.788 1.758 1.757 1.758zm0-2.344a.587.587 0 110 1.173.587.587 0 010-1.173zM7.787 29.57H3.453a1.11 1.11 0 00-1.11 1.11v5.867c0 .612.498 1.11 1.11 1.11h4.334a1.11 1.11 0 001.11-1.11V30.68a1.11 1.11 0 00-1.11-1.11zm-.062 6.914h-4.21v-5.742h4.21zM37.07 0H2.93A2.933 2.933 0 000 2.93v6.914a2.933 2.933 0 002.93 2.93h7.138v.664c0 .969.789 1.757 1.758 1.757h16.348a1.76 1.76 0 001.758-1.758v-.664h7.138A2.933 2.933 0 0040 9.843V2.93A2.933 2.933 0 0037.07 0zM2.93 11.602a1.76 1.76 0 01-1.758-1.758V2.93c0-.97.788-1.758 1.758-1.758h11.826v3.714a11.603 11.603 0 00-4.615 4.753l-.004.007-.002.005a.583.583 0 00-.067.27v1.68zm25.244 2.421H11.826a.587.587 0 01-.586-.585v-2.93h.977a.586.586 0 000-1.172h-.54A10.429 10.429 0 0115.49 5.82h1.413a.586.586 0 000-1.172h-.976V1.172h8.144v3.476h-4.824a.586.586 0 000 1.172h5.26c1.559.84 2.861 2.043 3.816 3.516H14.56a.586.586 0 000 1.172H28.76v2.93a.587.587 0 01-.586.585zm10.654-4.18a1.76 1.76 0 01-1.758 1.759h-7.138v-1.68a.584.584 0 00-.067-.271l-.002-.005a11.602 11.602 0 00-4.619-4.76V1.172H37.07c.97 0 1.758.788 1.758 1.758z"/><path d="M7.787 2.344H3.453a1.11 1.11 0 00-1.11 1.109V9.32c0 .612.498 1.11 1.11 1.11h4.334a1.11 1.11 0 001.11-1.11V3.453a1.11 1.11 0 00-1.11-1.11zm-.062 6.914h-4.21V3.516h4.21zM36.547 2.344h-4.334a1.11 1.11 0 00-1.11 1.109V9.32c0 .612.498 1.11 1.11 1.11h4.334a1.11 1.11 0 001.11-1.11V3.453a1.11 1.11 0 00-1.11-1.11zm-.063 6.914h-4.209V3.516h4.21z"/></g><g stroke="#fff" transform="translate(31.5 21.308)"><path d="M2.997 6.192V1.567a1 1 0 00-1-1H1.5a1 1 0 00-1 1v.468" stroke-linecap="round"/><circle cx="2" cy="5.792" r="1"/><circle cx="4" cy="5.792" r="1"/></g></g></svg><svg height="40" width="40" xmlns="http://www.w3.org/2000/svg" viewBox="0 0 40 40" x="203" y="204" data-name="kitchen_dark" data-svg-id="ae88ffb900"><g fill="none" fill-rule="evenodd"><g fill="#292929" fill-rule="nonzero"><path d="M37.07 27.227h-9.482a1.76 1.76 0 00-1.758-1.758h-3.486a1.76 1.76 0 00-1.758 1.758h-1.172c0-.362-.11-.698-.298-.978a2.93 2.93 0 001.47-2.538v-1.496a1.76 1.76 0 00-1.758-1.758H7.793a2.577 2.577 0 00-2.573 2.574 1.76 1.76 0 003.243.942h2.79c.086.973.651 1.81 1.457 2.276-.188.28-.298.616-.298.978H2.93A2.933 2.933 0 000 30.157v6.913A2.933 2.933 0 002.93 40h34.14A2.933 2.933 0 0040 37.07v-6.914a2.933 2.933 0 00-2.93-2.93zM8.094 22.8a.586.586 0 00-.558.408.587.587 0 01-1.144-.178c0-.773.628-1.402 1.401-1.402h3.447v1.172H8.094zm18.322 4.426h-1.743v-.586h1.157c.323 0 .586.262.586.586zm-4.072-.586H23.5v.586h-1.743c0-.324.263-.586.586-.586zm6.416 1.757v10.43H13.584v-2.812c.001-.646.527-1.171 1.172-1.172h10.489c.644 0 1.17.526 1.17 1.172v1.054a.587.587 0 001.173 0v-1.054c0-.626-.244-1.215-.686-1.657a2.328 2.328 0 00-1.657-.687H14.756c-.626 0-1.215.244-1.658.687a2.329 2.329 0 00-.685 1.657v2.812H11.24v-10.43zm-10.518-1.171H16.5v-.586h1.157c.323 0 .586.262.586.586zm-5.83-5.598h6.416c.323 0 .586.263.586.586v1.496a1.76 1.76 0 01-1.758 1.758H14.17a1.76 1.76 0 01-1.758-1.758zm1.758 5.012h1.157v.586h-1.743c0-.324.263-.586.586-.586zM1.172 37.07v-6.915c0-.969.788-1.758 1.758-1.758h7.138v10.43H2.93a1.76 1.76 0 01-1.758-1.758zm37.656 0a1.76 1.76 0 01-1.758 1.757h-7.138v-10.43h7.138c.97 0 1.758.789 1.758 1.758z"/><path d="M36.547 29.57h-4.334a1.11 1.11 0 00-1.11 1.11v5.867c0 .612.498 1.11 1.11 1.11h4.334a1.11 1.11 0 001.11-1.11V30.68a1.11 1.11 0 00-1.11-1.11zm-.063 6.914h-4.209v-5.742h4.21zM12.998 33.086c.97 0 1.758-.789 1.758-1.758s-.789-1.758-1.758-1.758-1.758.789-1.758 1.758.789 1.758 1.758 1.758zm0-2.344a.587.587 0 11-.001 1.173.587.587 0 01.001-1.173zM15.87 31.328c0 .97.788 1.758 1.757 1.758s1.758-.789 1.758-1.758-.789-1.758-1.758-1.758-1.758.789-1.758 1.758zm2.343 0a.587.587 0 11-1.173-.001.587.587 0 011.173.001zM27.002 29.57c-.97 0-1.758.789-1.758 1.758s.789 1.758 1.758 1.758c.97 0 1.758-.789 1.758-1.758s-.789-1.758-1.758-1.758zm0 2.344a.587.587 0 11.001-1.173.587.587 0 01-.001 1.173zM22.314 33.086c.97 0 1.758-.789 1.758-1.758s-.788-1.758-1.758-1.758c-.969 0-1.757.789-1.757 1.758s.788 1.758 1.757 1.758zm0-2.344a.587.587 0 110 1.173.587.587 0 010-1.173zM7.787 29.57H3.453a1.11 1.11 0 00-1.11 1.11v5.867c0 .612.498 1.11 1.11 1.11h4.334a1.11 1.11 0 001.11-1.11V30.68a1.11 1.11 0 00-1.11-1.11zm-.062 6.914h-4.21v-5.742h4.21zM37.07 0H2.93A2.933 2.933 0 000 2.93v6.914a2.933 2.933 0 002.93 2.93h7.138v.664c0 .969.789 1.757 1.758 1.757h16.348a1.76 1.76 0 001.758-1.758v-.664h7.138A2.933 2.933 0 0040 9.843V2.93A2.933 2.933 0 0037.07 0zM2.93 11.602a1.76 1.76 0 01-1.758-1.758V2.93c0-.97.788-1.758 1.758-1.758h11.826v3.714a11.603 11.603 0 00-4.615 4.753l-.004.007-.002.005a.583.583 0 00-.067.27v1.68zm25.244 2.421H11.826a.587.587 0 01-.586-.585v-2.93h.977a.586.586 0 000-1.172h-.54A10.429 10.429 0 0115.49 5.82h1.413a.586.586 0 000-1.172h-.976V1.172h8.144v3.476h-4.824a.586.586 0 000 1.172h5.26c1.559.84 2.861 2.043 3.816 3.516H14.56a.586.586 0 000 1.172H28.76v2.93a.587.587 0 01-.586.585zm10.654-4.18a1.76 1.76 0 01-1.758 1.759h-7.138v-1.68a.584.584 0 00-.067-.271l-.002-.005a11.602 11.602 0 00-4.619-4.76V1.172H37.07c.97 0 1.758.788 1.758 1.758z"/><path d="M7.787 2.344H3.453a1.11 1.11 0 00-1.11 1.109V9.32c0 .612.498 1.11 1.11 1.11h4.334a1.11 1.11 0 001.11-1.11V3.453a1.11 1.11 0 00-1.11-1.11zm-.062 6.914h-4.21V3.516h4.21zM36.547 2.344h-4.334a1.11 1.11 0 00-1.11 1.109V9.32c0 .612.498 1.11 1.11 1.11h4.334a1.11 1.11 0 001.11-1.11V3.453a1.11 1.11 0 00-1.11-1.11zm-.063 6.914h-4.209V3.516h4.21z"/></g><g stroke="#292929" transform="translate(31.5 21.308)"><path d="M2.997 6.192V1.567a1 1 0 00-1-1H1.5a1 1 0 00-1 1v.468" stroke-linecap="round"/><circle cx="2" cy="5.792" r="1"/><circle cx="4" cy="5.792" r="1"/></g></g></svg><svg fill="none" height="43" width="44" xmlns="http://www.w3.org/2000/svg" viewBox="0 0 44 43" x="315" y="32" data-name="left" data-svg-id="108867814d"><path clip-rule="evenodd" d="M22.306 1.5c7.304-.048 14.592 4.37 20.277 13.387a.5.5 0 10.846-.533C37.623 5.144 30.053.449 22.299.5 14.93.55 7.546 4.887 1.507 13.4V7.489a.5.5 0 00-1 0v8.028h7.236a.5.5 0 000-1H1.946C7.933 5.815 15.206 1.547 22.306 1.5z" fill="#fff" fill-rule="evenodd"/><rect height="24.358" rx="4.5" stroke="#fff" transform="rotate(-45 4.09 24.492)" width="24.358" x="4.09" y="24.492"/></svg><svg width="17" height="16" xmlns="http://www.w3.org/2000/svg" viewBox="0 0 17 16" x="416" y="235" data-name="list" data-svg-id="9aeec213d0"><path d="M6.6 4.3h9.8a.6.6 0 010 1.2H6.6a.6.6 0 010-1.2zm0 3.1h9.8a.6.6 0 010 1.2H6.6a.6.6 0 010-1.2zm0 3.1h9.8a.6.6 0 010 1.2H6.6a.6.6 0 010-1.2zm7.8 2.5h1.2a2.6 2.6 0 01-2.6 2.6H3A2.6 2.6 0 01.4 13V3A2.6 2.6 0 013 .4h10A2.6 2.6 0 0115.6 3h-1.2A1.4 1.4 0 0013 1.6H3A1.4 1.4 0 001.6 3v10A1.4 1.4 0 003 14.4h10a1.4 1.4 0 001.4-1.4z" fill="#222" fill-rule="evenodd"/></svg><svg height="16" width="17" xmlns="http://www.w3.org/2000/svg" viewBox="0 0 17 16" x="416" y="261" data-name="list_favourite" data-svg-id="1481cc380f"><path d="M13 0a2.6 2.6 0 012.6 2.6h-1.2A1.4 1.4 0 0013 1.2H3a1.4 1.4 0 00-1.4 1.4v10A1.4 1.4 0 003 14h10a1.4 1.4 0 001.4-1.4h1.2a2.6 2.6 0 01-2.6 2.6H3a2.6 2.6 0 01-2.6-2.6v-10A2.6 2.6 0 013 0zm3.4 10.1a.6.6 0 010 1.2h-3.8a.6.6 0 010-1.2zM6.993 4.114l.989 1.577 1.737.497a.597.597 0 01.403.4.625.625 0 01-.1.563L8.895 8.625l.086 1.888a.616.616 0 01-.239.519.57.57 0 01-.558.078L6.5 10.443l-1.683.667a.57.57 0 01-.558-.078.616.616 0 01-.239-.519l.087-1.888-1.13-1.474a.625.625 0 01-.099-.563.597.597 0 01.403-.4L5.02 5.69l.988-1.577a.592.592 0 01.986 0zM6.5 5.562l-.617.984a.593.593 0 01-.256.226l-.08.03-1.098.313.715.933a.62.62 0 01.122.298l.005.109-.054 1.187 1.053-.417a.568.568 0 01.352-.023l.068.022 1.054.418-.055-1.187a.628.628 0 01.07-.315l.057-.092.715-.933-1.097-.313a.585.585 0 01-.285-.185l-.052-.07zM16.4 7a.6.6 0 010 1.2h-3.8a.6.6 0 010-1.2zm0-3.1a.6.6 0 010 1.2h-3.8a.6.6 0 010-1.2z" fill="#222"/></svg><svg height="18" width="17" xmlns="http://www.w3.org/2000/svg" viewBox="0 0 17 18" x="416" y="207" data-name="list_shopping" data-svg-id="c5887a6cef"><g fill="none" fill-rule="evenodd"><path d="M11.782 3h.718a3 3 0 013 3v8a3 3 0 01-3 3h-8a3 3 0 01-3-3V6a3 3 0 013-3h.918" stroke="#222" stroke-width="1.1"/><path d="M5.316 3.758V2.2a.3.3 0 01.3-.3h1.218a.3.3 0 00.294-.239C7.285.906 7.743.528 8.5.528c.761 0 1.237.382 1.428 1.145a.3.3 0 00.29.227h1.299a.3.3 0 01.3.3v1.558a.3.3 0 01-.3.3H5.616a.3.3 0 01-.3-.3z" stroke="#222" stroke-width="1.1"/><g fill="#222" fill-rule="nonzero"><path d="M8.317 6.684a.627.627 0 00-.885-.002l-2.057 2.06-.808-.81a.625.625 0 00-.883.884l1.25 1.25a.628.628 0 00.884.001l2.5-2.5a.625.625 0 000-.883zM8.317 11.384a.627.627 0 00-.885-.002l-2.057 2.06-.808-.808a.625.625 0 00-.883.883l1.25 1.25a.623.623 0 00.883 0l2.5-2.5a.625.625 0 000-.883zM12.875 7.75h-2.5a.625.625 0 000 1.25h2.5a.625.625 0 000-1.25zM12.875 12.45h-2.5a.625.625 0 000 1.25h2.5a.625.625 0 000-1.25z"/></g></g></svg><svg width="202" height="22" xmlns="http://www.w3.org/2000/svg" viewBox="0 0 202 22" x="204" y="0" data-name="logo" data-svg-id="abbe8a4e92"><g fill="#FFF" fill-rule="nonzero"><path d="M71.4 20.32c5.337-.1 8.81-3.93 8.909-9.735.1-5.866-3.578-10.354-8.88-10.472C64.96-.03 58.485-.007 52.015.105c-5.518.1-9.079 4.206-9.093 10.207-.015 6.267 3.275 9.924 9.064 10.009 3.152.047 6.305.009 9.458.01 3.316-.001 6.638.051 9.956-.011zm-18.461-5.231c-3.081.073-4.613-1.407-4.791-4.432-.192-3.274 1.37-5.128 4.6-5.189 5.992-.114 11.991-.145 17.981.016 2.992.081 4.439 2.04 4.325 4.991-.112 2.909-1.477 4.657-4.636 4.608-3-.046-5.994-.01-8.991-.009-2.827.001-5.659-.051-8.488.015zM160.74 3.058c.12-1.948-1.278-2.959-3.216-2.961-8.326-.008-16.662-.23-24.975.117-4.954.208-8.889 5.493-8.374 10.656.479 4.812 3.462 10.011 9.4 9.512 3.638-.306 7.323-.057 10.986-.056h11.991c1.818 0 4.142.262 4.169-2.277.028-2.609-2.173-2.865-4.334-2.85-6.994.045-13.99-.076-20.982.056-3.476.066-6.073-.842-6.128-4.739-.057-4.039 2.445-5.365 6.224-5.3 7.159.114 14.321.016 21.482.044 1.742 0 3.621.013 3.757-2.202zM36.66.346c-1.715-.676-2.758.794-3.841 1.72-4.122 3.523-8.431 6.27-14.253 6.008-5.4-.243-9.295-3.165-13.141-6.353C2.964-.319.606-.817.237 3.086-.215 7.865.119 12.718.129 17.539a2.43 2.43 0 002.82 2.69c1.653-.06 2.247-1.19 2.25-2.708.006-2.881 0-5.762 0-9.152 9.481 6.451 18.406 6.617 28 .061 0 3.061-.025 5.549.008 8.035.027 1.934.295 3.827 2.858 3.755 2.435-.068 2.265-1.973 2.272-3.64.017-3.99 0-7.98 0-11.97.008-1.652.269-3.496-1.677-4.264zM119.986 17.952c.013-2.96-2.571-2.9-4.808-2.889-5.491.025-10.983.008-16.475.008-9.227 0-9.225 0-9.255-9.017a34.656 34.656 0 00-.076-3.489A2.393 2.393 0 0086.8.114c-1.233-.1-2.33.78-2.5 2.005-.109 4.787-.895 9.643.446 14.344.761 2.666 2.878 3.922 5.714 3.9 4.327-.033 8.654-.008 12.98-.008v-.025c3.994 0 7.988.024 11.982-.01 1.918-.019 4.552.51 4.564-2.368zM194.142 3.91c-7.822 5.662-13.529 5.8-21.212-.162-1.179-.915-2.315-1.887-3.475-2.828a2.25 2.25 0 00-3.478.189 2.148 2.148 0 00.086 3.464c4.961 4.439 9.87 9.039 17.636 8.618 5 .546 9.4-1.728 13.143-5.178 1.92-1.771 6.822-2.912 4.284-6.441-2.941-4.09-5.041.932-6.984 2.338z"/><path d="M145.312 7.87c-3.487 0-6.973.018-10.459-.013-1.675-.015-3.054.338-3.021 2.362.028 1.711.871 2.859 2.723 2.865 7.138.025 14.277.041 21.415 0 1.931-.01 3.238-1.009 3.092-3.047-.139-1.939-1.691-2.177-3.291-2.171-3.487.018-6.973.008-10.459.004zM19.113 14.73c-1.624.145-2.955.967-3 2.944a3.072 3.072 0 003.252 3.454c2.317.087 3.189-1.5 3.163-3.459-.027-1.898-1.28-2.895-3.415-2.939zM183.88 14.758c-2.154-.148-3.551.885-3.686 2.983a3.1 3.1 0 002.9 3.358c2.264.341 3.194-1.163 3.835-3.289-.456-1.413-.996-2.911-3.049-3.052z"/></g></svg><svg height="26" width="26" xmlns="http://www.w3.org/2000/svg" viewBox="0 0 26 26" x="349" y="256" data-name="messenger" data-svg-id="40076ded71"><g fill="none"><rect height="25" rx="6" stroke="#dbdbdb" width="25" x=".5" y=".5"/><path d="M18.9 7.182c-1.537-1.392-3.578-2.159-5.747-2.159s-4.21.767-5.748 2.159C5.855 8.585 5 10.456 5 12.448c0 1.492.48 2.923 1.392 4.151l-.7 4.38 4.43-1.637c.964.352 1.983.53 3.03.53 2.17 0 4.21-.766 5.749-2.158 1.55-1.403 2.405-3.274 2.405-5.266s-.854-3.863-2.405-5.266zm-5.033 7.398l-1.802-1.41-4.31 1.706 4.932-4.906 1.824 1.457 3.946-1.53z" fill="#292929"/></g></svg><svg fill="none" height="43" width="43" xmlns="http://www.w3.org/2000/svg" viewBox="0 0 43 43" x="258" y="90" data-name="minus_m" data-svg-id="508d5aa131"><g stroke="#fff"><circle cx="19.097" cy="19.091" r="18.591"/><g stroke-linecap="round"><path d="M32.46 32.455L42.007 42M28.642 19.09H9.552"/></g></g></svg><svg width="12" height="9" fill="none" xmlns="http://www.w3.org/2000/svg" viewBox="0 0 12 9" x="104" y="386" data-name="ok" data-svg-id="ed1ee615e4"><path fill-rule="evenodd" clip-rule="evenodd" d="M11.766 1.845a.5.5 0 00-.707-.707L4.567 7.63l-2.97-2.969a.5.5 0 10-.706.708L4.213 8.69a.5.5 0 00.793-.115.5.5 0 00.116-.087l6.644-6.644z" fill="#000"/></svg><svg width="17" height="13" fill="none" xmlns="http://www.w3.org/2000/svg" viewBox="0 0 17 13" x="416" y="371" data-name="ok_big" data-svg-id="b75d615c37"><path fill-rule="evenodd" clip-rule="evenodd" d="M16.473 1.59a.5.5 0 00-.708-.707L5.85 10.8l-4.63-4.63a.5.5 0 10-.707.707l4.983 4.984a.5.5 0 00.824-.185.497.497 0 00.186-.118l9.966-9.967z" fill="#000"/></svg><svg width="12" height="9" fill="none" xmlns="http://www.w3.org/2000/svg" viewBox="0 0 12 9" x="126" y="386" data-name="ok_white" data-svg-id="6fb0c96afd"><path fill-rule="evenodd" clip-rule="evenodd" d="M11.766 1.845a.5.5 0 00-.707-.707L4.567 7.63l-2.97-2.969a.5.5 0 10-.706.708L4.213 8.69a.5.5 0 00.793-.115.5.5 0 00.116-.087l6.644-6.644z" fill="#fff"/></svg><svg height="26" width="26" xmlns="http://www.w3.org/2000/svg" viewBox="0 0 26 26" x="112" y="300" data-name="pinterest" data-svg-id="6f2eebb751"><g fill="none"><rect height="25" rx="6" stroke="#dbdbdb" width="25" x=".5" y=".5"/><path d="M14.352 16.672c-1.035 0-2.03-.539-2.36-1.16 0 0-.56 2.154-.684 2.568-.414 1.47-1.657 2.94-1.74 3.065a.128.128 0 01-.228-.062c-.02-.186-.331-2.05.021-3.562l1.243-5.095s-.311-.6-.311-1.47c0-1.388.828-2.423 1.864-2.423.87 0 1.305.642 1.305 1.408 0 .849-.56 2.133-.85 3.314-.248.994.518 1.801 1.533 1.801 1.823 0 3.065-2.278 3.065-4.97 0-2.05-1.429-3.583-4.018-3.583-2.92 0-4.763 2.112-4.763 4.473 0 .808.249 1.388.642 1.844.186.207.207.29.145.517-.041.166-.145.58-.207.746-.062.228-.27.331-.476.228-1.347-.539-1.968-1.968-1.968-3.583 0-2.651 2.32-5.84 6.897-5.84 3.686 0 6.11 2.588 6.11 5.364-.022 3.686-2.113 6.42-5.22 6.42z" fill="#292929"/></g></svg><svg fill="none" height="43" width="43" xmlns="http://www.w3.org/2000/svg" viewBox="0 0 43 43" x="311" y="90" data-name="plus_m" data-svg-id="3711adf1c6"><g stroke="#fff"><circle cx="19.097" cy="19.091" r="18.591"/><g stroke-linecap="round"><path d="M32.46 32.455L42.007 42M19.097 9.545v19.091M28.642 19.09H9.552"/></g></g></svg><svg fill="none" height="48" width="44" xmlns="http://www.w3.org/2000/svg" viewBox="0 0 44 48" x="204" y="32" data-name="reset" data-svg-id="086d61eb0f"><path clip-rule="evenodd" d="M5.819.156a.5.5 0 01.726.688l-4.39 4.635h19.851c11.598 0 21 9.402 21 21s-9.402 21-21 21c-11.432 0-20.73-9.135-20.994-20.505a.486.486 0 01.488-.495c.28 0 .505.228.512.508.27 10.81 9.118 19.492 19.994 19.492 11.046 0 20-8.954 20-20s-8.954-20-20-20H2.275l3.966 3.756a.5.5 0 11-.688.726L.663 6.329l-.364-.343.344-.364zM27.527 20.43a.5.5 0 00-.707.02l-4.823 5.093-5.103-5.103a.5.5 0 00-.707.707l5.118 5.118-5.123 5.278a.5.5 0 00.717.696l5.098-5.251 4.818 5.241a.5.5 0 00.736-.676l-4.86-5.288 4.855-5.128a.5.5 0 00-.02-.707z" fill="#fff" fill-rule="evenodd"/></svg><svg fill="none" height="43" width="44" xmlns="http://www.w3.org/2000/svg" viewBox="0 0 44 43" x="204" y="90" data-name="right" data-svg-id="f31fcb0e4b"><path clip-rule="evenodd" d="M21.706 1.5C14.402 1.452 7.114 5.87 1.429 14.887a.5.5 0 11-.846-.533C6.39 5.144 13.96.449 21.713.5c7.37.049 14.754 4.387 20.793 12.9V7.489a.5.5 0 011 0v8.028H36.27a.5.5 0 010-1h5.796C36.08 5.815 28.806 1.547 21.706 1.5z" fill="#fff" fill-rule="evenodd"/><rect height="24.358" rx="4.5" stroke="#fff" transform="rotate(-45 4.09 24.491)" width="24.358" x="4.091" y="24.491"/></svg><svg height="26" width="26" xmlns="http://www.w3.org/2000/svg" viewBox="0 0 26 26" x="148" y="300" data-name="robo" data-svg-id="8f62e5decf"><g fill="none"><rect height="25" rx="6" stroke="#dbdbdb" width="25" x=".5" y=".5"/><path d="M15.85 15.729c-.7 0-1.271-.572-1.271-1.272 0-.701.571-1.272 1.271-1.272s1.272.57 1.272 1.272c0 .7-.571 1.272-1.272 1.272m.225 2.087c-.869.867-2.53.935-3.018.935s-2.152-.068-3.019-.935a.329.329 0 11.466-.466c.547.547 1.716.742 2.553.742.834 0 2.005-.195 2.552-.742.129-.13.336-.13.466 0a.333.333 0 010 .466m-7.088-3.36c0-.7.57-1.271 1.271-1.271.7 0 1.271.571 1.271 1.272s-.57 1.272-1.271 1.272c-.7 0-1.271-.572-1.271-1.272m12.2-1.272a1.778 1.778 0 00-3.014-1.28c-1.215-.878-2.891-1.445-4.758-1.51l.81-3.817 2.648.564a1.267 1.267 0 002.535-.06 1.27 1.27 0 00-1.271-1.273c-.5 0-.928.29-1.135.71l-2.957-.63a.318.318 0 00-.376.245s-.888 4.233-.888 4.258c-1.9.049-3.609.617-4.843 1.509a1.78 1.78 0 10-1.957 2.908 3.586 3.586 0 00-.042.539c0 2.739 3.187 4.958 7.118 4.958 3.93 0 7.117-2.219 7.117-4.958 0-.18-.015-.36-.041-.535a1.788 1.788 0 001.054-1.628" fill="#292929"/></g></svg><svg height="40" width="29" xmlns="http://www.w3.org/2000/svg" viewBox="0 0 29 40" x="0" y="300" data-name="robotic" data-svg-id="7f96c8053c"><path d="M27.742 15.484a.644.644 0 00.645-.645V8.387c0-1.067-.868-1.935-1.935-1.935s-1.936.868-1.936 1.935v6.452c0 .357.288.645.645.645h.645v3.87h-3.87v-3.87h.645a.644.644 0 00.645-.645V4.516c0-1.067-.869-1.935-1.936-1.935s-1.935.868-1.935 1.935V14.84c0 .357.288.645.645.645h.645v3.87h-3.87v-3.87h.644a.644.644 0 00.646-.645V1.935C18.065.87 17.196 0 16.129 0s-1.935.869-1.935 1.935V14.84c0 .357.288.645.645.645h.645v3.87h-3.871v-3.87h.645a.644.644 0 00.645-.645V4.516a1.938 1.938 0 00-1.935-1.935 1.938 1.938 0 00-1.936 1.935V14.84c0 .357.289.645.645.645h.646v3.87h-.646a.644.644 0 00-.645.646v5.54l-1.29-1.291v-1.668a.642.642 0 00-.19-.457L3.439 18.01A2.016 2.016 0 000 19.433v.645c0 .53.215 1.05.59 1.424l6.05 6.05a.646.646 0 001.102-.455v-1.023l1.29 1.29v2.959a3.23 3.23 0 003.226 3.225v5.807c0 .357.288.645.645.645h11.613a.644.644 0 00.645-.645v-5.807a3.23 3.23 0 003.226-3.225V20a.644.644 0 00-.645-.645h-.645v-3.871zm-7.097-1.29v-1.29h1.29v1.29zM21.29 3.87c.356 0 .645.29.645.645v7.097h-1.29V4.516c0-.356.29-.645.645-.645zm-5.806 10.323v-1.29h1.29v1.29zm.645-12.904c.356 0 .645.29.645.645v9.678h-1.29V1.935c0-.355.29-.645.645-.645zm-5.806 12.904v-1.29h1.29v1.29zm.645-10.323c.356 0 .645.29.645.645v7.097h-1.29V4.516c0-.356.289-.645.645-.645zM6.452 25.539l-4.95-4.95a.728.728 0 01-.212-.51v-.646a.724.724 0 011.235-.512l3.927 3.927zM23.87 38.71H13.548v-5.16h1.936v3.87h1.29v-3.87h1.29v3.87h1.29v-3.87h1.291v3.87h1.29v-3.87h1.936zm3.226-8.386a1.938 1.938 0 01-1.936 1.935h-3.226v-.378l2.392-2.392a.642.642 0 00.19-.456v-3.344a1.933 1.933 0 001.29-1.817c0-1.067-.87-1.936-1.936-1.936s-1.936.869-1.936 1.936c0 .84.542 1.55 1.29 1.817v3.077l-2.39 2.392a.642.642 0 00-.19.456v.645h-1.29v-3.99a1.933 1.933 0 001.29-1.816c0-1.067-.868-1.936-1.935-1.936s-1.936.869-1.936 1.936c0 .84.541 1.55 1.29 1.816v3.99h-1.29v-.645a.642.642 0 00-.189-.456l-2.391-2.392v-3.077a1.933 1.933 0 001.29-1.817c0-1.067-.869-1.936-1.936-1.936s-1.935.869-1.935 1.936c0 .84.541 1.55 1.29 1.817v3.344c0 .172.068.336.19.456l2.39 2.392v.378h-3.225a1.938 1.938 0 01-1.935-1.935v-9.678h16.774zm-3.871-6.452a.646.646 0 111.291 0 .646.646 0 01-1.291 0zm-5.161 2.58a.646.646 0 111.29.001.646.646 0 01-1.29 0zm-5.162-2.58a.646.646 0 111.291 0 .646.646 0 01-1.29 0zm12.903-9.677v-1.29h1.29v1.29zm.646-6.452c.356 0 .645.29.645.645v3.226h-1.29V8.387c0-.356.289-.645.645-.645z" fill="#fff"/></svg><svg height="40" width="29" xmlns="http://www.w3.org/2000/svg" viewBox="0 0 29 40" x="39" y="300" data-name="robotic_dark" data-svg-id="62e7086299"><path d="M27.742 15.484a.644.644 0 00.645-.645V8.387c0-1.067-.868-1.935-1.935-1.935s-1.936.868-1.936 1.935v6.452c0 .357.288.645.645.645h.645v3.87h-3.87v-3.87h.645a.644.644 0 00.645-.645V4.516c0-1.067-.869-1.935-1.936-1.935s-1.935.868-1.935 1.935V14.84c0 .357.288.645.645.645h.645v3.87h-3.87v-3.87h.644a.644.644 0 00.646-.645V1.935C18.065.87 17.196 0 16.129 0s-1.935.869-1.935 1.935V14.84c0 .357.288.645.645.645h.645v3.87h-3.871v-3.87h.645a.644.644 0 00.645-.645V4.516a1.938 1.938 0 00-1.935-1.935 1.938 1.938 0 00-1.936 1.935V14.84c0 .357.289.645.645.645h.646v3.87h-.646a.644.644 0 00-.645.646v5.54l-1.29-1.291v-1.668a.642.642 0 00-.19-.457L3.439 18.01A2.016 2.016 0 000 19.433v.645c0 .53.215 1.05.59 1.424l6.05 6.05a.646.646 0 001.102-.455v-1.023l1.29 1.29v2.959a3.23 3.23 0 003.226 3.225v5.807c0 .357.288.645.645.645h11.613a.644.644 0 00.645-.645v-5.807a3.23 3.23 0 003.226-3.225V20a.644.644 0 00-.645-.645h-.645v-3.871zm-7.097-1.29v-1.29h1.29v1.29zM21.29 3.87c.356 0 .645.29.645.645v7.097h-1.29V4.516c0-.356.29-.645.645-.645zm-5.806 10.323v-1.29h1.29v1.29zm.645-12.904c.356 0 .645.29.645.645v9.678h-1.29V1.935c0-.355.29-.645.645-.645zm-5.806 12.904v-1.29h1.29v1.29zm.645-10.323c.356 0 .645.29.645.645v7.097h-1.29V4.516c0-.356.289-.645.645-.645zM6.452 25.539l-4.95-4.95a.728.728 0 01-.212-.51v-.646a.724.724 0 011.235-.512l3.927 3.927zM23.87 38.71H13.548v-5.16h1.936v3.87h1.29v-3.87h1.29v3.87h1.29v-3.87h1.291v3.87h1.29v-3.87h1.936zm3.226-8.386a1.938 1.938 0 01-1.936 1.935h-3.226v-.378l2.392-2.392a.642.642 0 00.19-.456v-3.344a1.933 1.933 0 001.29-1.817c0-1.067-.87-1.936-1.936-1.936s-1.936.869-1.936 1.936c0 .84.542 1.55 1.29 1.817v3.077l-2.39 2.392a.642.642 0 00-.19.456v.645h-1.29v-3.99a1.933 1.933 0 001.29-1.816c0-1.067-.868-1.936-1.935-1.936s-1.936.869-1.936 1.936c0 .84.541 1.55 1.29 1.816v3.99h-1.29v-.645a.642.642 0 00-.189-.456l-2.391-2.392v-3.077a1.933 1.933 0 001.29-1.817c0-1.067-.869-1.936-1.936-1.936s-1.935.869-1.935 1.936c0 .84.541 1.55 1.29 1.817v3.344c0 .172.068.336.19.456l2.39 2.392v.378h-3.225a1.938 1.938 0 01-1.935-1.935v-9.678h16.774zm-3.871-6.452a.646.646 0 111.291 0 .646.646 0 01-1.291 0zm-5.161 2.58a.646.646 0 111.29.001.646.646 0 01-1.29 0zm-5.162-2.58a.646.646 0 111.291 0 .646.646 0 01-1.29 0zm12.903-9.677v-1.29h1.29v1.29zm.646-6.452c.356 0 .645.29.645.645v3.226h-1.29V8.387c0-.356.289-.645.645-.645z" fill="#292929"/></svg><svg fill="none" height="42" width="43" xmlns="http://www.w3.org/2000/svg" viewBox="0 0 43 42" x="363" y="143" data-name="save" data-svg-id="bb2b104b02"><g stroke="#fff"><circle cx="21.006" cy="21" r="20.5"/><path d="M25.76 13H15a2 2 0 00-2 2v13a2 2 0 002 2h13a2 2 0 002-2V16.92a2 2 0 00-.698-1.519l-2.24-1.92A2 2 0 0025.76 13z"/><path d="M16.5 13v3a1 1 0 001 1h5a1 1 0 001-1v-3"/><rect height="6" rx="3" width="6" x="18.5" y="20.5"/></g></svg><svg fill="none" height="19" width="19" xmlns="http://www.w3.org/2000/svg" viewBox="0 0 19 19" x="416" y="120" data-name="save_no_circle" data-svg-id="08020d3aec"><g stroke="#fff"><path d="M13.76 1H3a2 2 0 00-2 2v13a2 2 0 002 2h13a2 2 0 002-2V4.92a2 2 0 00-.698-1.519l-2.24-1.92A2 2 0 0013.76 1z"/><path d="M4.5 1v3a1 1 0 001 1h5a1 1 0 001-1V1"/><rect height="6" rx="3" width="6" x="6.5" y="8.5"/></g></svg><svg width="11" height="18" xmlns="http://www.w3.org/2000/svg" viewBox="0 0 11 18" x="391" y="204" data-name="scroll_arrow" data-svg-id="5d03eda312"><g fill-rule="nonzero" fill="none"><path d="M5.577 0h-.152C2.43.002.003 1.996 0 4.456v9.088c.003 2.46 2.43 4.453 5.425 4.456h.152c2.994-.003 5.42-1.996 5.423-4.456V4.456C10.997 1.996 8.57.003 5.577 0zm4.605 13.543c0 1.004-.485 1.966-1.349 2.676-.863.71-2.035 1.108-3.256 1.108h-.152C2.882 17.325.822 15.632.819 13.543V4.456C.822 2.366 2.882.674 5.425.672h.152c1.221 0 2.393.399 3.256 1.108.864.71 1.35 1.672 1.35 2.676v9.087z" fill="#B1B1B1"/><path d="M6.4 13.08l-1.033.849V6.334c0-.184-.163-.334-.364-.334-.2 0-.364.15-.364.334v7.594l-1.032-.848a.388.388 0 00-.515.027.316.316 0 00.03.473l1.604 1.318c.03.024.066.043.105.056a.377.377 0 00.171.046.563.563 0 00.277-.104l1.604-1.317a.316.316 0 00.025-.468.388.388 0 00-.51-.032l.002.001z" fill="#FFF"/></g></svg><svg width="20" height="19" xmlns="http://www.w3.org/2000/svg" viewBox="0 0 20 19" x="312" y="350" data-name="search" data-svg-id="b233efd1d8"><g transform="matrix(0 1 1 0 1 1)" stroke="#FFF" fill="none" fill-rule="evenodd"><circle stroke-linecap="round" stroke-linejoin="round" cx="8" cy="8" r="8"/><path d="M18 18l-4.35-4.35" stroke-linecap="round" stroke-linejoin="round"/><circle cx="1.734" cy="8.337" r="1.577"/><circle cx="14.219" cy="8.337" r="1.577"/></g></svg><svg width="20" height="19" xmlns="http://www.w3.org/2000/svg" viewBox="0 0 20 19" x="342" y="350" data-name="search_dark" data-svg-id="1a41f74f18"><g transform="matrix(0 1 1 0 1 1)" stroke="#222" fill="none" fill-rule="evenodd"><circle stroke-linecap="round" stroke-linejoin="round" cx="8" cy="8" r="8"/><path d="M18 18l-4.35-4.35" stroke-linecap="round" stroke-linejoin="round"/><circle cx="1.734" cy="8.337" r="1.577"/><circle cx="14.219" cy="8.337" r="1.577"/></g></svg><svg width="20" height="19" xmlns="http://www.w3.org/2000/svg" viewBox="0 0 20 19" x="372" y="350" data-name="search_simple" data-svg-id="6145830411"><g transform="translate(1 1)" stroke="#222" fill="none" fill-rule="evenodd" stroke-linecap="round" stroke-linejoin="round"><circle cx="8" cy="8" r="8"/><path d="M18 18l-4.35-4.35"/></g></svg><svg height="25" width="26" xmlns="http://www.w3.org/2000/svg" viewBox="0 0 26 25" x="36" y="350" data-name="see" data-svg-id="9b7b755e93"><g fill="none" fill-rule="evenodd"><circle cx="13" cy="13.5" r="3.5" stroke="#fff"/><path d="M6.13 5.5L3.473 2.843M20 5.5l2.657-2.657" stroke="#fff" stroke-linecap="round"/><g fill="#fff" fill-rule="nonzero"><path d="M13 .085a.5.5 0 01.492.41l.008.09V4.5a.5.5 0 01-.992.09L12.5 4.5V.585a.5.5 0 01.5-.5zM3.12 2.49a.5.5 0 01.637-.058l.07.058 2.656 2.656a.5.5 0 01-.638.765l-.069-.057L3.12 3.197a.5.5 0 010-.707zM6.646 23.172a.5.5 0 00.638.058l.07-.058 1.06-1.06a.5.5 0 00-.638-.766l-.069.058-1.06 1.06a.5.5 0 000 .708zM19.414 23.172a.5.5 0 01-.638.058l-.069-.058-1.06-1.06a.5.5 0 01.637-.766l.07.058 1.06 1.06a.5.5 0 010 .708zM13 24.7a.5.5 0 00.492-.41l.008-.09v-2.5a.5.5 0 00-.992-.09l-.008.09v2.5a.5.5 0 00.5.5zM23.01 2.49a.5.5 0 00-.638-.058l-.069.058-2.657 2.656a.5.5 0 00.638.765l.07-.057 2.656-2.657a.5.5 0 000-.707zM13 6.5C5.739 6.5 1.52 8.69.512 13.12v.221C1.52 17.796 5.74 20 13 20c7.261 0 11.48-2.204 12.488-6.659v-.221C24.479 8.69 20.26 6.5 13 6.5zm.4 1.002c6.463.074 10.1 1.96 11.057 5.614l.028.115.027-.11C23.63 17.023 19.848 19 13 19l-.4-.002c-6.463-.075-10.1-1.972-11.057-5.65l-.029-.117-.026.11C2.37 9.464 6.152 7.5 13 7.5z"/></g></g></svg><svg width="10" height="14" xmlns="http://www.w3.org/2000/svg" viewBox="0 0 10 14" x="445" y="0" data-name="select_arrows" data-svg-id="4f77f29f33"><g stroke="#292929" fill="none" fill-rule="evenodd"><path d="M1 4l4-4 4 4M1 10l4 4 4-4"/></g></svg><svg width="10" height="14" xmlns="http://www.w3.org/2000/svg" viewBox="0 0 10 14" x="445" y="24" data-name="select_arrows_light" data-svg-id="e5e3f0cbf6"><g stroke="#fff" fill="none" fill-rule="evenodd"><path d="M1 4l4-4 4 4M1 10l4 4 4-4"/></g></svg><svg fill="none" height="42" width="43" xmlns="http://www.w3.org/2000/svg" viewBox="0 0 43 42" x="0" y="204" data-name="share" data-svg-id="cf402ca8b9"><g stroke="#fff"><path d="M24.806 16.4l-8 4M24.806 26.4l-8-4" stroke-linecap="round"/><circle r="2" transform="matrix(-1 0 0 1 26.806 15.5)"/><circle r="2" transform="matrix(-1 0 0 1 14.506 21.4)"/><circle r="2" transform="matrix(-1 0 0 1 26.806 26.9)"/><circle cx="21.006" cy="21" r="20.5"/></g></svg><svg height="26" width="26" xmlns="http://www.w3.org/2000/svg" viewBox="0 0 26 26" x="184" y="300" data-name="share_list" data-svg-id="e469b25cb5"><g fill="#fff"><path d="M16.706 14.987c-.804 0-1.522.383-1.98.976l-3.843-2.147a2.51 2.51 0 00-.003-1.653l3.84-2.143a2.497 2.497 0 001.983.982c1.377 0 2.501-1.122 2.501-2.501S18.083 6 16.704 6a2.503 2.503 0 00-2.36 3.329l-3.836 2.143a2.489 2.489 0 00-1.984-.982c-1.377 0-2.5 1.122-2.5 2.501s1.123 2.501 2.503 2.501c.807 0 1.528-.386 1.987-.985l3.84 2.147a2.49 2.49 0 00-.146.834c0 1.376 1.121 2.5 2.501 2.5s2.501-1.12 2.501-2.5-1.124-2.501-2.504-2.501zm0-8.2a1.718 1.718 0 010 3.433c-.947 0-1.716-.77-1.716-1.716s.772-1.717 1.716-1.717zm-8.179 7.92c-.947 0-1.717-.769-1.717-1.716s.77-1.716 1.717-1.716c.947 0 1.717.77 1.717 1.716a1.72 1.72 0 01-1.717 1.717zm8.18 4.494c-.948 0-1.717-.77-1.717-1.716s.77-1.717 1.716-1.717a1.718 1.718 0 010 3.433z"/><path d="M13 .5C6.096.5.5 6.096.5 13S6.096 25.5 13 25.5 25.5 19.904 25.5 13 19.904.5 13 .5zm0 1c6.351 0 11.5 5.149 11.5 11.5S19.351 24.5 13 24.5 1.5 19.351 1.5 13 6.649 1.5 13 1.5z"/></g></svg><svg width="23" height="19" xmlns="http://www.w3.org/2000/svg" viewBox="0 0 23 19" x="246" y="350" data-name="shopping_cart" data-svg-id="a15b3c77f0"><g transform="translate(1)" stroke="#FFF" fill="none" fill-rule="evenodd" stroke-linecap="round" stroke-linejoin="round"><rect x=".418" y="4.574" width="20.703" height="3.836" rx="1.267"/><path d="M9.654.288L7.332 6.871M11.885.288l2.322 6.583"/><g><path d="M17.913 18H3.626L1.608 8.384h18.323zM6.605 9.975v6.057M10.949 9.969v6.057M15.293 9.969v6.057"/></g></g></svg><svg width="23" height="19" xmlns="http://www.w3.org/2000/svg" viewBox="0 0 23 19" x="279" y="350" data-name="shopping_cart_dark" data-svg-id="bd12f0549b"><g transform="translate(1)" stroke="#222" fill="none" fill-rule="evenodd" stroke-linecap="round" stroke-linejoin="round"><rect x=".418" y="4.574" width="20.703" height="3.836" rx="1.267"/><path d="M9.654.288L7.332 6.871M11.885.288l2.322 6.583"/><g><path d="M17.913 18H3.626L1.608 8.384h18.323zM6.605 9.975v6.057M10.949 9.969v6.057M15.293 9.969v6.057"/></g></g></svg><svg height="26" width="26" xmlns="http://www.w3.org/2000/svg" viewBox="0 0 26 26" x="220" y="300" data-name="skype" data-svg-id="ecd9ce42da"><g fill="none"><path d="M6.5.5a5.973 5.973 0 00-4.237 1.77A6.01 6.01 0 00.5 6.52V19.5c0 1.648.677 3.147 1.765 4.235A5.981 5.981 0 006.5 25.5h12.98a6.002 6.002 0 004.253-1.767 6.002 6.002 0 001.767-4.254V6.521c0-.949-.223-1.85-.938-2.642-.64-.71-1.657-1.329-3.194-1.843C18.488 1.073 13.848.5 6.5.5z" stroke="#dbdbdb"/><rect height="25" rx="6" stroke="#dbdbdb" width="25" x=".5" y=".5"/><path d="M16.692 21.187a4.637 4.637 0 01-2.133-.518 7.978 7.978 0 01-1.429.124c-4.287 0-7.766-3.438-7.766-7.663 0-.517.062-1.035.166-1.532a4.376 4.376 0 01-.622-2.237c0-2.444 2.01-4.432 4.494-4.432.87 0 1.699.249 2.403.683.435-.062.87-.103 1.325-.103 4.287 0 7.767 3.438 7.767 7.663 0 .559-.063 1.118-.187 1.636.29.6.477 1.263.477 1.967 0 2.423-2.01 4.412-4.495 4.412z" fill="#292929"/><path d="M17.293 13.752c-.166-.394-.456-.684-.828-.932a6.066 6.066 0 00-1.326-.601 15.975 15.975 0 00-1.719-.435c-.497-.103-.87-.207-1.077-.27a3.887 3.887 0 01-.621-.248c-.186-.103-.352-.207-.456-.352a.668.668 0 01-.165-.435c0-.29.165-.517.476-.725.331-.207.787-.33 1.346-.33.6 0 1.036.103 1.305.29.27.206.497.496.704.848.166.29.31.477.456.6.165.146.372.208.662.208.311 0 .58-.104.808-.331.207-.208.31-.456.31-.746s-.082-.58-.248-.87a2.765 2.765 0 00-.745-.828c-.332-.27-.767-.477-1.284-.622-.518-.165-1.119-.227-1.823-.227-.87 0-1.636.124-2.278.352-.663.227-1.16.58-1.512 1.035a2.464 2.464 0 00-.518 1.553c0 .601.166 1.119.497 1.533.332.414.787.725 1.326.973.538.228 1.222.435 2.03.601.6.124 1.076.249 1.429.352.33.104.62.249.828.456.207.186.29.414.29.725 0 .372-.187.704-.58.952-.394.27-.932.394-1.574.394-.456 0-.85-.062-1.118-.207-.27-.125-.497-.29-.642-.497-.166-.208-.311-.477-.456-.787a1.79 1.79 0 00-.456-.663 1.086 1.086 0 00-.683-.228c-.331 0-.6.104-.808.29-.207.207-.331.435-.331.725 0 .455.166.911.497 1.387.331.456.766.85 1.284 1.119.725.373 1.657.58 2.775.58.932 0 1.74-.145 2.423-.415.684-.29 1.222-.683 1.574-1.18a2.905 2.905 0 00.539-1.698c0-.518-.104-.974-.311-1.346z" fill="#fff"/></g></svg><svg width="11" height="8" fill="none" xmlns="http://www.w3.org/2000/svg" viewBox="0 0 11 8" x="148" y="386" data-name="small_arr_r" data-svg-id="2276c31c96"><path d="M7 7l3-3-3-3M1 4h8" stroke="#B3B3B3" stroke-linecap="round"/></svg><svg width="13" height="10" fill="none" xmlns="http://www.w3.org/2000/svg" viewBox="0 0 13 10" x="81" y="386" data-name="small_hamb" data-svg-id="22e6e2284c"><path d="M1 5h11M1 1h11M1 9h6" stroke="#000" stroke-linecap="round"/></svg><svg height="26" width="26" xmlns="http://www.w3.org/2000/svg" viewBox="0 0 26 26" x="256" y="300" data-name="telegram" data-svg-id="75b7b3f759"><g fill="none"><rect height="25" rx="6" stroke="#dbdbdb" width="25" x=".5" y=".5"/><path d="M10.728 15.246l-.269 3.782c.385 0 .552-.165.752-.364l1.804-1.724 3.737 2.738c.686.382 1.169.18 1.354-.63L20.559 7.55h.001c.217-1.014-.366-1.41-1.034-1.161L5.104 11.91c-.984.382-.97.93-.167 1.18l3.687 1.146 8.564-5.359c.403-.266.77-.119.468.148z" fill="#292929"/></g></svg><svg width="11" height="12" fill="none" xmlns="http://www.w3.org/2000/svg" viewBox="0 0 11 12" x="391" y="232" data-name="tick" data-svg-id="0ba642d6cc"><path d="M1.517 6.478l2.914 3.4 4.866-8.02" stroke="#fff" stroke-width="2" stroke-linecap="round"/></svg><svg height="26" width="26" xmlns="http://www.w3.org/2000/svg" viewBox="0 0 26 26" x="292" y="300" data-name="tumblr" data-svg-id="f09d596aaa"><g fill="none"><rect height="25" rx="6" stroke="#dbdbdb" width="25" x=".5" y=".5"/><path d="M16.175 20.98a7.887 7.887 0 01-1.76.207c-.705 0-1.14-.104-1.699-.29a4.11 4.11 0 01-1.408-.808 2.716 2.716 0 01-.767-1.118c-.144-.394-.186-.953-.186-1.699v-5.674H8.077v-2.32c.621-.207 1.367-.497 1.802-.89.435-.394.807-.829 1.077-1.367.269-.539.476-1.222.559-2.05h2.154v3.727h3.728v2.9h-3.728v4.162c0 .953.02 1.492.103 1.76.104.27.352.54.6.705.353.207.788.331 1.223.331.787 0 1.574-.269 2.402-.807v2.547h.02c-.828.331-1.304.56-1.842.683z" fill="#292929"/></g></svg><svg height="26" width="26" xmlns="http://www.w3.org/2000/svg" viewBox="0 0 26 26" x="328" y="300" data-name="twitter" data-svg-id="d1274936be"><g fill="none"><rect height="25" rx="6" stroke="#dbdbdb" width="25" x=".5" y=".5"/><path d="M19.53 9.786v.434c0 4.35-3.355 9.361-9.506 9.361a9.534 9.534 0 01-5.116-1.47c.27.02.518.041.787.041a6.67 6.67 0 004.142-1.408 3.337 3.337 0 01-3.127-2.278c.207.041.414.062.621.062.311 0 .622-.041.89-.124a3.31 3.31 0 01-2.63-3.23v-.042c.415.248.953.393 1.492.414a3.276 3.276 0 01-1.491-2.734c0-.6.165-1.16.455-1.657a9.568 9.568 0 006.876 3.438 3.05 3.05 0 01-.083-.745c0-1.823 1.491-3.293 3.335-3.293.952 0 1.822.393 2.443 1.035a6.217 6.217 0 002.113-.807 3.372 3.372 0 01-1.47 1.822 6.617 6.617 0 001.926-.518 6.8 6.8 0 01-1.657 1.699z" fill="#292929"/></g></svg><svg height="26" width="26" xmlns="http://www.w3.org/2000/svg" viewBox="0 0 26 26" x="364" y="300" data-name="viber" data-svg-id="8e24eef897"><g fill="none"><rect height="25" rx="6" stroke="#dbdbdb" width="25" x=".5" y=".5"/><g fill="#292929"><path d="M12.343 5.364c.042-.642.642-.414.953-.456 3.893.125 7.249 3.625 7.207 7.394 0 .373.124.911-.435.911-.538 0-.393-.56-.455-.932-.518-3.997-2.382-5.882-6.441-6.503-.332-.041-.85.02-.829-.414z"/><path d="M18.163 12.468c-.621.082-.497-.456-.56-.808-.414-2.444-1.283-3.335-3.79-3.873-.372-.083-.952-.02-.848-.58.082-.538.6-.352.994-.31 2.506.29 4.556 2.423 4.535 4.763-.041.248.124.725-.331.808z"/><path d="M16.61 11.184c0 .33-.042.642-.415.683-.269.041-.435-.186-.476-.456-.104-.994-.642-1.594-1.677-1.76-.311-.041-.601-.145-.456-.56.103-.268.352-.31.621-.31 1.119-.02 2.403 1.284 2.403 2.403zM20.545 18.826c-.435 1.18-1.906 2.381-3.17 2.36-.186-.04-.538-.103-.848-.227-5.55-2.34-9.59-6.193-11.867-11.702C3.894 7.414 4.7 5.84 6.627 5.22a1.485 1.485 0 011.036 0c.828.29 2.92 3.127 2.961 3.956.042.642-.414.994-.849 1.284-.849.559-.849 1.263-.476 2.07.808 1.782 2.195 3.024 3.997 3.811.642.29 1.284.27 1.719-.393.787-1.18 1.76-1.119 2.816-.394.539.373 1.077.725 1.574 1.119.684.559 1.554 1.014 1.14 2.154z"/></g></g></svg><svg width="47" height="43" fill="none" xmlns="http://www.w3.org/2000/svg" viewBox="0 0 47 43" x="258" y="32" data-name="videos" data-svg-id="690c7fce48"><path fill-rule="evenodd" clip-rule="evenodd" d="M24.798 41.025c7.304.048 14.194-4.017 18.669-13.36.119-.25.456-.304.69-.156.233.147.267.436.156.69-4.322 9.81-11.769 13.877-19.522 13.826-7.37-.049-15.1-3.017-19.8-13.516l-1.5 6.028a.5.5 0 11-1 0l2-8.528 7.236 1.5a.5.5 0 110 1l-5.796-1c3.56 9.5 11.767 13.469 18.867 13.516zM24.067 1.009C16.764.961 9.874 5.025 5.4 14.369c-.12.249-.456.303-.69.156-.234-.147-.268-.437-.156-.69C8.873 4.026 16.32-.041 24.073.01c7.372.049 15.1 3.016 19.8 13.516l1.5-6.028a.5.5 0 111 0l-2 8.528-7.235-1.5a.5.5 0 110-1l5.796 1c-3.56-9.5-11.766-13.47-18.867-13.516z" fill="#fff"/><path d="M17.887 21v-6.565c0-3.742 4.303-5.85 7.26-3.555l8.458 6.565c2.32 1.802 2.32 5.308 0 7.11l-8.459 6.565c-2.956 2.295-7.259.188-7.259-3.555V21z" stroke="#fff"/><path d="M22.196 21.736h.189c.801 0 1.35.45 1.35 1.107 0 .595-.486 1.035-1.161 1.035-.747 0-1.269-.53-1.305-1.34h-.792c.009 1.232.873 2.087 2.115 2.087 1.143 0 1.98-.747 1.98-1.782 0-.666-.333-1.142-1.035-1.485.594-.314.864-.71.864-1.296 0-.936-.756-1.62-1.791-1.62-1.161 0-1.89.756-1.89 1.953h.783c-.009-.755.396-1.206 1.071-1.206.576 0 .99.378.99.91 0 .575-.486.962-1.206.962-.036 0-.09 0-.162-.009v.684zm3.051 2.773h2.097c1.683 0 2.718-1.17 2.718-3.06 0-.802-.18-1.459-.54-1.98-.45-.658-1.134-.963-2.115-.963h-2.16v6.003zm.855-.747v-4.51h1.125c.783 0 1.27.199 1.575.649.261.387.387.881.387 1.575 0 1.547-.657 2.286-2.016 2.286h-1.07z" fill="#fff"/></svg><svg height="26" width="26" xmlns="http://www.w3.org/2000/svg" viewBox="0 0 26 26" x="0" y="350" data-name="whatsapp" data-svg-id="0d4f13ef18"><g fill="none"><rect height="25" rx="6" stroke="#dbdbdb" width="25" x=".5" y=".5"/><path d="M13.192 20.783a7.921 7.921 0 01-3.872-.994l-4.432 1.408 1.45-4.246a7.924 7.924 0 01-1.14-4.1c0-4.39 3.583-7.932 7.994-7.932 4.412 0 7.995 3.541 7.995 7.932 0 4.39-3.583 7.932-7.995 7.932z" fill="#292929"/><path d="M17.127 15.605c-.165.456-.973.89-1.325.932-.352.042-.352.29-2.361-.476-1.988-.787-3.252-2.796-3.355-2.941-.104-.124-.808-1.056-.808-2.009s.497-1.429.684-1.615c.186-.187.393-.249.517-.249.125 0 .27.02.373.02.124 0 .27-.061.435.332s.56 1.346.6 1.45c.042.103.083.207.021.331a2.672 2.672 0 01-.186.332c-.104.103-.207.248-.29.331-.104.104-.207.207-.083.393s.518.829 1.098 1.347c.745.662 1.387.87 1.574.973s.31.083.414-.041c.124-.125.497-.56.621-.767.125-.186.27-.165.435-.103.187.062 1.14.538 1.346.642.187.103.332.145.373.228.062.041.062.435-.083.89z" fill="#fff"/></g></svg></svg>