<svg width="438" height="586" viewBox="0 0 438 586" fill="none" xmlns="http://www.w3.org/2000/svg">
<path fill-rule="evenodd" clip-rule="evenodd" d="M145 337.548C169.603 337.548 189.548 317.603 189.548 293C189.548 268.397 169.603 248.452 145 248.452C120.397 248.452 100.452 268.397 100.452 293C100.452 317.603 120.397 337.548 145 337.548Z" stroke="#303030"/>
<path fill-rule="evenodd" clip-rule="evenodd" d="M145 422.333C216.429 422.333 274.333 364.429 274.333 293C274.333 221.571 216.429 163.667 145 163.667C73.5711 163.667 15.6666 221.571 15.6666 293C15.6666 364.429 73.5711 422.333 145 422.333Z" stroke="#303030"/>
<path fill-rule="evenodd" clip-rule="evenodd" d="M145 585C306.267 585 437 454.267 437 293C437 131.733 306.267 1 145 1C-16.2671 1 -147 131.733 -147 293C-147 454.267 -16.2671 585 145 585Z" stroke="#303030" stroke-width="0.921659"/>
</svg>
