<svg height="302" viewBox="0 0 302 302" width="302" xmlns="http://www.w3.org/2000/svg"><path d="m255.73877 43.8770716c-50.53421-50.5334796-129.727726-58.3327505-189.148925-18.6280876-59.421199 39.7046629-82.52044 115.854949-55.171142 181.880361 27.349297 66.025413 97.529967 103.536939 167.622297 89.594017 70.09232-13.942922 120.574951-75.456992 120.574951-146.922642.106609-39.750634-15.692601-77.892349-43.877181-105.9236484zm-138.823973 192.0558014c0-6.588165 13.365334-11.358284 13.212331-15.21938-.261007-1.350034-4.086103-2.493063-2.623566-4.122104.553531-.493014 1.217033-.846367 1.935048-1.030525.935372-.305053 1.886224-.560416 2.848572-.765019-.648017-.288008-2.79007-1.390535-2.79007-3.370585 0-3.23108 9.450238-6.196655 10.408758-42.067051h-.92702s-1.872048 0-1.872048-3.402085c0-3.091578 1.872048-3.091578 1.872048-3.091578h.2115c-.02785-.318321-.07899-.634174-.153-.945023-.17577-.910079-.77626-1.681176-1.61554-2.074552h-.39601s-1.660541 0-1.714543-2.133054c-.039802-1.0046.618764-1.903833 1.58854-2.169054.558014-.252006 1.773043-.81902 3.150083-1.471537-.11701-.693017.2835-3.060076 3.57759-3.060076 1.4393-10.511034 2.0487-21.119084 1.82254-31.725793-.18747-3.864194-2.07977-7.446038-5.16613-9.778745-9.756242-7.492687-8.208204-22.109052-8.100201-26.352658.066486-2.42471.270821-4.843677.612015-7.245182l3.9691-37.8774465c-.009912-.2933903.101035-.577989.306903-.7872601.205869-.209271.48861-.3248687.782124-.3197676.161999 0 1.768549-.1710043 1.579539 1.9980499-.73352 8.5097128-2.493062 42.8320713-2.493062 42.8320713v.301507.139504c-.022332 1.322321.995285 2.430291 2.314732 2.520253 1.31945.089962 2.47803-.86963 2.63539-2.182745.04803-.238511.07215-.481219.072-.724518l2.16456-43.034576c0-.8100202.1845-1.9485487 1.47153-1.9716992 1.69655-.0308508 1.53454 2.2147053 1.53454 2.2237055s-.0315 42.8815717-.0315 42.9715747c.00167.084626.0107.168947.027.252006.11901 1.274744 1.13217 2.282225 2.40756 2.39406.08304.016459.16737.025495.25201.027.09379-.001637.18721-.012185.27901-.0315 1.24776-.139393 2.22655-1.135093 2.34455-2.38506.0165-.084547.02553-.170379.02701-.256506 0-.090003 0-42.9715747 0-42.9715747s-.16201-2.2500562 1.53453-2.2237055c1.28704.0231505 1.44904 1.161679 1.47154 1.9716992l2.16455 43.034576c.00041.243272.02453.485925.07201.724518.15735 1.313115 1.31594 2.272707 2.63539 2.182745 1.31944-.089962 2.33706-1.197932 2.31473-2.520253 0-.049502 0-.094503 0-.139504s0-.193505 0-.301507c0 0-1.75954-34.3223585-2.49306-42.8320713-.18901-2.1690542 1.41753-1.9935498 1.57954-1.9980499.29351-.0051011.57625.1104966.78212.3197676.20587.2092711.31682.4938698.3069.7872601l3.9646 37.8774465c.3412 2.401505.54553 4.820472.61202 7.245182.108 4.248106 1.65604 18.859971-8.1002 26.352658-3.08636 2.332707-4.97866 5.914551-5.16613 9.778745-.2254 10.606695.384 21.214686 1.82254 31.725793 3.29409 0 3.6946 2.367059 3.57759 3.060076 1.39054.648017 2.61007 1.215031 3.15008 1.471537.96978.265221 1.62834 1.164454 1.58854 2.169054-.0495 2.115053-1.71454 2.133054-1.71454 2.133054h-.39601c-.83928.393376-1.43977 1.164473-1.61554 2.074552-.07357.310752-.12322.626684-.14851.945023h.21151s1.86755 0 1.86755 3.091578c0 3.415585-1.86755 3.402085-1.86755 3.402085h-.92702c.96302 35.870396 10.40876 38.835971 10.40876 42.067051 0 1.98005-2.14206 3.082577-2.79007 3.370585.96234.204603 1.9132.459966 2.84857.765019.71808.183994 1.38162.537367 1.93505 1.030525 1.46703 1.629041-2.36256 2.77657-2.62357 4.122104-.153 3.865596 13.21233 8.631215 13.21233 15.21938-.49598 3.675388-2.59995 6.94017-5.74214 8.910223 2.98869.128502 5.44802 2.395723 5.81864 5.364134v7.983199h-65.935646v-7.983199c.370622-2.968411 2.829949-5.235632 5.818646-5.364134-3.126774-1.978668-5.215046-5.242108-5.701643-8.910223zm112.304803-76.146404c-5.51746 0-9.99024-4.472787-9.99024-9.990249 0-5.517463 4.47278-9.99025 9.99024-9.99025 5.51747 0 9.99025 4.472787 9.99025 9.99025 0 5.515705-4.47004 9.987765-9.98574 9.990249zm-148.643211-9.990249c0 5.517462-4.472787 9.990249-9.99025 9.990249-5.517462 0-9.99025-4.472787-9.99025-9.990249 0-5.517463 4.472788-9.990252 9.99025-9.990252 2.651139-.001193 5.194036 1.051439 7.068675 2.926077 1.874638 1.874638 2.927269 4.417536 2.926077 7.068675z" fill="none" stroke="#292929" transform="translate(1 1)"/></svg>