<?xml version="1.0" encoding="UTF-8"?>
<svg width="19px" height="21px" viewBox="0 0 19 21" version="1.1" xmlns="http://www.w3.org/2000/svg" xmlns:xlink="http://www.w3.org/1999/xlink">
    <!-- Generator: Sketch 55.2 (78181) - https://sketchapp.com -->
    <title>Combined Shape</title>
    <desc>Created with Sketch.</desc>
    <g id="Page-1" stroke="none" stroke-width="1" fill="none" fill-rule="evenodd">
        <g id="Kitchen-Copy" transform="translate(-53.000000, -223.000000)" fill="#FFFFFF" fill-rule="nonzero" stroke="#FFFFFF" stroke-width="0.2">
            <g id="left" transform="translate(53.000000, 41.000000)">
                <path d="M13.536,195.103 C16.0020755,195.106306 18.0002456,197.104924 18.003,199.571 L18.003,201.588 C18.003,201.827415 17.8089154,202.0215 17.5695,202.0215 C17.3300846,202.0215 17.136,201.827415 17.136,201.588 L17.136,199.571 C17.1332459,197.583917 15.5230832,195.973754 13.536,195.971 L5.467,195.971 C3.47991681,195.973754 1.8697541,197.583917 1.867,199.571 L1.867,201.588 C1.867,201.827415 1.67291544,202.0215 1.4335,202.0215 C1.19408456,202.0215 1,201.827415 1,201.588 L1,199.571 C1.00275441,197.104924 3.00092455,195.106306 5.467,195.103 L13.536,195.103 Z M5.033,187.468 C5.03520446,185.001696 7.03369634,183.002757 9.5,183 C11.9669258,183 13.9668158,184.999741 13.9669999,187.466667 C13.9671839,189.933593 11.9675923,191.933632 9.50066652,191.934 C7.03374076,191.934368 5.03355226,189.934926 5.033,187.468 Z M13.101,187.468 L13.102,187.468 C13.0992447,185.480527 11.4884737,183.870203 9.501,183.868 C7.5127749,183.868 5.901,185.479775 5.901,187.468 C5.901,189.456225 7.5127749,191.068 9.501,191.068 C11.4892251,191.068 13.101,189.456225 13.101,187.468 Z" id="Combined-Shape"></path>
            </g>
        </g>
    </g>
</svg>