<svg height="40" viewBox="0 0 40 40" width="40" xmlns="http://www.w3.org/2000/svg"><g fill="#fff"><path d="m38.1616211 17.5354004h-6.9293213v-6.3433838h5.6768799c1.0134887 0 1.8383789-.824585 1.8383789-1.83837894v-7.51525875c0-1.01348875-.8248902-1.83837891-1.8383789-1.83837891h-12.5253296c-1.0137939 0-1.8383789.82489016-1.8383789 1.83837891v3.17169187h-3.8381958v-1.91925047c0-1.70410156-1.3867188-3.09082031-3.0911255-3.09082031h-12.52532959c-1.70410156 0-3.09082031 1.38671875-3.09082031 3.09082031v35.07080079c0 1.0134887.82489016 1.8383789 1.83837891 1.8383789h15.03021239c1.0137939 0 1.8383789-.8248902 1.8383789-1.8383789v-8.8079834h2.5857544v8.8079834c0 1.0137939.8248902 1.8383789 1.8383789 1.8383789h15.0305176c1.0134887 0 1.8383789-.8248902 1.8383789-1.8383789v-18.7878418c0-1.013794-.8248902-1.8383789-1.8383789-1.8383789zm.6665039 1.8383789v3.1716919h-5.2163696c.0808716-.2069092.1257324-.4315185.1257324-.6665039 0-1.0137939-.8248901-1.8386841-1.8383789-1.8386841-1.013794 0-1.8386841.8248902-1.8386841 1.8386841 0 .2349854.0448608.4595947.1257324.6665039h-1.4587402v-1.9192505c0-.3234863-.2624512-.5859375-.5859375-.5859375h-3.7576294c-.3234864 0-.5859375.2624512-.5859375.5859375v1.9192505h-1.3330078v-3.1716919c0-.3677368.2990722-.6665039.6665039-.6665039h15.0302124c.3674316 0 .6665039.2987671.6665039.6665039zm-7.5958252 2.5048828c0-.3674316.2990722-.6665039.6665039-.6665039.3677368 0 .6668091.2990723.6668091.6665039 0 .3677368-.2990723.6665039-.6668091.6665039-.3674317 0-.6665039-.2987671-.6665039-.6665039zm-6.2625122.6668091v-1.333313h2.5857544v1.333313zm11.9393921-12.5253296h-1.9192505v-5.09063722h2.5857544v4.42413328c0 .36743172-.2990723.66650394-.6665039.66650394zm.6665039-8.18176269v1.91925047h-2.5857544v-2.58575438h1.9189453c.3677368 0 .6668091.29907227.6668091.66650391zm-13.8583374 0c0-.36743164.2990722-.66650391.6665039-.66650391h9.4342041v8.8482666h-9.4342041c-.3677368 0-.6665039-.29907222-.6665039-.66650394zm-22.5454712 24.38385009h1.29272461c.02227781 0 .0402832.0180054.0402832.0402832v4.3838501c0 .0222779-.01800539.0402832-.0402832.0402832h-1.29272461zm0-10.6463623h1.29272461c.02227781 0 .0402832.0180053.0402832.0402832v4.3838501c0 .0222778-.01800539.0402832-.0402832.0402832h-1.29272461zm16.3635254 22.5857544c0 .3674316-.2990723.6665039-.6665039.6665039h-15.03051759c-.36743164 0-.66650391-.2990723-.66650391-.6665039v-6.3031006h1.29272461c.66864016 0 1.2121582-.5435181 1.2121582-1.2121582v-4.3838501c0-.6683349-.54351804-1.2121582-1.2121582-1.2121582h-1.29272461v-1.3330078h13.1918335c.3234863 0 .5859375-.2624512.5859375-.5859375 0-.3234864-.2624512-.5859375-.5859375-.5859375h-13.1918335v-1.3330078h1.29272461c.66864016 0 1.2121582-.5438232 1.2121582-1.2121582v-4.3838501c0-.6686402-.54351804-1.2124634-1.2121582-1.2124634h-1.29272461v-11.31317139c0-1.05804445.86090086-1.91894531 1.91894531-1.91894531h12.52532959c1.0583496 0 1.9189453.86090086 1.9189453 1.91894531v19.45434569h-.6661987c-.3234863 0-.5859375.2624512-.5859375.5859375 0 .3237915.2624512.5859375.5859375.5859375h.6661987v14.4445801zm1.171875-9.9798584v-21.99981692h3.8381958v3.17169188c0 1.01379394.824585 1.83837894 1.8383789 1.83837894h5.6765747v6.3433838h-6.9290161c-1.0137939 0-1.8383789.8245849-1.8383789 1.8383789v8.8079834zm19.4543457 10.6463623h-15.0302124c-.3677368 0-.6665039-.2990723-.6665039-.6665039v-14.4442749h16.3632202v14.4442749c0 .3674316-.2990723.6665039-.6665039.6665039z"/><path d="m10.6060791 5.01007078h-2.50518801c-.66833492 0-1.2121582.54382328-1.2121582 1.2121582v1.25244141c0 .66864016.54382328 1.2121582 1.2121582 1.2121582h2.50518801c.668335 0 1.2121582-.54351804 1.2121582-1.2121582v-1.25244141c0-.66833492-.5438232-1.2121582-1.2121582-1.2121582zm.0402832 2.46459961c0 .02227789-.0180053.0402832-.0402832.0402832h-2.50518801c-.02227781 0-.0402832-.01800531-.0402832-.0402832v-1.25244141c0-.02227781.01800539-.0402832.0402832-.0402832h2.50518801c.0222779 0 .0402832.01800539.0402832.0402832z"/><path d="m35.0302124 21.2121582h1.8786621c.3237915 0 .5859375-.2624512.5859375-.5859375s-.262146-.5859375-.5859375-.5859375h-1.8786621c-.3234863 0-.5859375.2624512-.5859375.5859375s.2624512.5859375.5859375.5859375z"/><path d="m25.6362915 8.68682859h6.2628174c.3234863 0 .5859375-.26214593.5859375-.5859375v-5.01007078c0-.32348633-.2624512-.5859375-.5859375-.5859375h-1.2524414c-.3234863 0-.5859375.26245117-.5859375.5859375 0 .32379149.2624512.5859375.5859375.5859375h.6665039v3.83819578h-5.0909424v-3.83819578h1.9192505c.3234863 0 .5859375-.26214601.5859375-.5859375 0-.32348633-.2624512-.5859375-.5859375-.5859375h-2.505188c-.3234863 0-.5859375.26245117-.5859375.5859375v5.01007078c0 .32379157.2624512.5859375.5859375.5859375z"/></g></svg>