<svg height="24" viewBox="0 0 24 24" width="24" xmlns="http://www.w3.org/2000/svg"><g fill="#fff"><path d="m6.36024845 11.1304348c0-.292969-.23706833-.5300373-.53003727-.5300373s-.53003727.2370683-.53003727.5300373c0 1.3918012 1.53520497 3.3028074 1.71016149 3.5165714.10509317.127354.25724224.1935901.41043479.1935901.11801242 0 .23706832-.0393541.33590062-.1200994.22618633-.1858385.25878261-.5196522.07349068-.7463851-.56824845-.6925217-1.46991304-2.0766211-1.46991304-2.843677z"/><path d="m17.4906832 10.6003975c-.2929689 0-.5300372.2370683-.5300372.5300373 0 .764472-.9016646 2.1501118-1.4699628 2.8442236-.1852919.2261863-.1521987.5600497.0740373.7458385.0983354.0807453.2173913.1200994.3359006.1200994.1531926 0 .3048447-.0662361.4099379-.1935901.1749565-.213764 1.7101615-2.1247205 1.7101615-3.5165714 0-.292969-.2370683-.5300373-.5300373-.5300373z"/><path d="m11.660472 10.6003975c-.2929689 0-.5300372.2370683-.5300372.5300373v3.1801242c0 .292969.2370683.5300373.5300372.5300373.292969 0 .5300373-.2370683.5300373-.5300373v-3.1801242c-.0000497-.292969-.237118-.5300373-.5300373-.5300373z"/><path d="m17.4906832 2.12009938c-.3211925 0-.6568447.04248447-1.0054161.10722981-1.1673541-1.36079503-2.8954037-2.22732919-4.8247951-2.22732919-1.92939125 0-3.65749063.86653416-4.82479498 2.2272795-.34862112-.06469565-.68427329-.10722981-1.00541615-.10722981-3.21485714.00004969-5.83026087 2.61545342-5.83026087 5.83026087 0 2.20288194 1.24223602 4.20546584 3.19254658 5.19562734l-.0103354 8.0098385c-.00049689.5781366.22409938 1.1216397.63249689 1.5305342.40889441.409441.95185094.6345838 1.53003727.6345838h12.63354036c1.1925466 0 2.1625342-.9699876 2.1625342-2.1625342v-8.0201739c1.9430559-.9927453 3.1801242-2.9922484 3.1801242-5.18787574 0-3.21480745-2.6154534-5.83021118-5.8302609-5.83021118zm1.5900621 19.03831052c0 .6076522-.4948074 1.1025094-1.1025093 1.1025094h-12.63354035c-.29450931 0-.57142857-.1149317-.78002484-.3234783-.20809938-.2085963-.32298137-.4855155-.32248608-.7805217l.00278421-2.076174h14.83577636zm.3281491-8.845267c-.0279751.0113788-.0543602.0248447-.079205.0408944-.0667826.0413913-.1216397.0962981-.1625341.1594037-.0413913.0626087-.0693665.1351056-.0807454.2127205-.0046708.0295155-.0062111.059031-.0057142.0890435v5.2054658h-14.83438514l.00680745-5.1982609c.0004969-.0289689-.00104348-.0584844-.0051677-.0869565-.01137888-.0802484-.04089441-.1547826-.08387578-.2194782-.04039751-.0605715-.0931677-.1133417-.15736646-.1537392-.02638509-.0165466-.05436024-.0310559-.08332919-.0429813-1.73962733-.7607454-2.86335404-2.47403731-2.86335404-4.36894414 0-2.63045963 2.1397764-4.77018634 4.77018634-4.77018634.10280745 0 .21132919.01242236.31781366.02081988-.53624844.93197515-.84785093 2.0089441-.84785093 3.15930435 0 .29296894.23706833.53003726.53003727.53003726s.53003727-.23706832.53003727-.53003726c0-2.9223851 2.37783851-5.30022361 5.30022355-5.30022361 2.9223851 0 5.300174 2.37783851 5.300174 5.30022361 0 .29296894.2370683.53003726.5300372.53003726.292969 0 .5300373-.23706832.5300373-.53003726 0-1.15036025-.3116025-2.22727951-.8478509-3.15930435.1064844-.00839752.2150062-.02081988.3178136-.02081988 2.6304597 0 4.7701864 2.1397764 4.7701864 4.77018634 0 1.88819876-1.1190559 3.59935404-2.8519752 4.36283234z"/></g></svg>