<svg height="18" viewBox="0 0 15 18" width="15" xmlns="http://www.w3.org/2000/svg"><g fill="none" fill-rule="evenodd"><path d="m11.53495 11.17975c0-1.79255-1.3323-3.2798-3.0587-3.52365v-.4155c0-.27615-.2239-.5-.5-.5-.27615 0-.5.22385-.5.5v.4155c-1.7263.24385-3.05865 1.7311-3.05865 3.52365v.18825h-.4704c-.27615 0-.5.22385-.5.5s.22385.5.5.5h8.05815c.2761 0 .5-.22385.5-.5s-.2239-.5-.5-.5h-.4704zm-1 .18825h-5.11735v-.18825c0-1.41085 1.1478-2.55865 2.55865-2.55865 1.4109 0 2.5587 1.1478 2.5587 2.55865zm-.1372-8.43675c.72035 0 1.3064.58605 1.3064 1.3064 0 .7204-.58605 1.30645-1.3064 1.30645h-3.21145c-.1661 0-.3064.14035-.3064.3064v.8064c0 .27615-.22385.5-.5.5s-.5-.22385-.5-.5v-.8064c0-.72035.58605-1.3064 1.3064-1.3064h3.21145c.16605 0 .3064-.14035.3064-.30645s-.14035-.3064-.3064-.3064c-.3426141-.03614613-.51392112-.20231453-.51392112-.49850522 0-.29619068.17130702-.46335561.51392112-.50149478z" fill="#222" fill-rule="nonzero"/><g stroke="#222" stroke-width="1.1"><path d="m2.55.55v13.9h9.45c1.3530976 0 2.45-1.0969024 2.45-2.45v-9c0-1.35309764-1.0969024-2.45-2.45-2.45z"/><path d="m3.334069 14.6204329v2.5658671l1.48630024-.7863 1.55953076.8595308v-2.6390979" stroke-linejoin="round"/><path d="m2.45 14.45v-13.9h-1.45c-.24852814 0-.45.20147186-.45.45v13c0 .2485281.20147186.45.45.45z"/></g></g></svg>