<svg height="40" viewBox="0 0 40 40" width="40" xmlns="http://www.w3.org/2000/svg"><g fill="#fff"><path d="m39.7570485 15.2019417c-.0041165-.0456699-.0132038-.0907961-.0271844-.1345242-.0090874-.039068-.0217476-.0772039-.0377476-.1140194-.0185631-.0359612-.0407767-.0699806-.0662524-.1014369-.0255534-.0373593-.0551457-.071767-.0881554-.1027573-.0106407-.0092427-.0152233-.0219029-.0264854-.0311456l-6.3739806-4.95029131v-5.13056311c0-1.09809708-.8902524-1.98834951-1.9883495-1.98834951h-7.1826019l-2.8758835-2.23293204c-.7104466-.55409709-1.7067185-.55409709-2.4171651 0l-2.8765048 2.23293204h-7.18260198c-1.09809709 0-1.98834951.89017476-1.98834951 1.98834951v5.13064078l-6.37196117 4.95029124c-.01126213.0093204-.01592233.0219029-.02648543.0311457-.03300971.0309126-.06260195.065398-.08815534.1027572-.02547573.0314563-.04768932.0653981-.06625243.1014369-.01607767.0367379-.0286602.0749515-.03774757.1140194-.01382525.0431068-.02291263.087534-.02718447.1325826 0 .0139029-.00792233.025864-.00792233.039767v22.536466c.00093204.4215922.13732039.8316893.38904854 1.1697864.00396117.0059806.0046602.0132815.00924272.0185631.0046602.0052815.01460194.0112621.02120389.0185631.37234951.4899417.95145631.7787961 1.56683495.7814369h35.79029123c.6177864-.0018641 1.199301-.2921165 1.5721165-.784699.0052816-.006602.0132816-.0086214.0178641-.0152233.0046602-.006602.0052816-.0125826.0093204-.0185631.2517282-.3381748.3881165-.7482719.3890485-1.1697865v-22.5346796c0-.0139029-.0073009-.025864-.008-.039767zm-20.2732427-13.74019413c.2314563-.18392233.5592233-.18392233.7906796 0l1.5290097 1.18702913h-3.8441165zm-17.33040774 36.97739803 17.33048544-13.4618252c.2316116-.1836117.5591456-.1836117.7906796 0l17.335068 13.4618252zm36.28605824-1.0333204-17.3490485-13.4744077c-.710602-.5536311-1.7065631-.5536311-2.4171651 0l-17.34966988 13.4744077v-21.1547184l10.86104858 8.4339417c.289398.2243884.705864.1717282.9302524-.1176699.2243883-.289398.1717281-.705864-.1176699-.9302524l-11.03401943-8.567767 4.66267961-3.6234563v5.1213204c0 .3660583.2967767.6627573.66275728.6627573.36605825 0 .66275728-.2967767.66275728-.6627573v-11.93009709c0-.36605825.29669903-.66275728.66275728-.66275728h22.53460198c.3660582 0 .6627572.29669903.6627572.66275728v11.93009709c0 .3660583.2966991.6627573.6627573.6627573.3660583 0 .6627573-.2967767.6627573-.6627573v-5.1213204l4.6626796 3.6234563-11.0532039 8.583068c-.1901359.1440777-.288233.3792621-.256699.615767.031534.2365048.1877282.4378252.4090097.5270679.2212816.0892428.4734757.0527379.6602719-.0956893l10.8803883-8.448466z"/><path d="m27.8348871 15.904466v-2.6511068c0-4.39254367-3.5608677-7.95339803-7.9534114-7.95339803s-7.953398 3.56085436-7.953398 7.95339803c0 4.3925437 3.5608543 7.9533981 7.953398 7.9533981.3660583 0 .6627573-.296699.6627573-.6627573s-.296699-.6627573-.6627573-.6627573c-3.6604272 0-6.6278058-2.9673786-6.6278058-6.6278058 0-3.66042719 2.9673786-6.62780583 6.6278058-6.62780583s6.6278059 2.96737864 6.6278059 6.62780583v2.6511068c0 .7321165-.5934758 1.3255922-1.3255923 1.3255922s-1.3255922-.5934757-1.3255922-1.3255922v-2.6511068c0-.3660583-.296699-.6627573-.6627573-.6627573-.3660582 0-.6627573.296699-.6627573.6627573 0 1.4641553-1.1869514 2.6511068-2.6511068 2.6511068-1.4641553 0-2.6511068-1.1869515-2.6511068-2.6511068s1.1869515-2.6511068 2.6511068-2.6511068c.3660583 0 .6627573-.296699.6627573-.66275728 0-.36605826-.296699-.66275729-.6627573-.66275729-1.7798058-.00396116-3.3455534 1.17514567-3.8333204 2.88683497s.2211263 3.5390291 1.7356894 4.4738641c1.5145631.9348349 3.4657864.7495145 4.7772427-.4538253.1443107 1.4016311 1.3625631 2.4438058 2.769631 2.3693204 1.4071457-.0745631 2.5085826-1.2394563 2.5041687-2.6485437z"/></g></svg>