<svg height="37" viewBox="0 0 37 37" width="37" xmlns="http://www.w3.org/2000/svg"><g fill="#fff"><path d="m18.392233 26.9656718c-.396798 0-.7184466.3216486-.7184466.7184466v.0028738.0028738.0057476c0 .3967981.3216486.7184466.7184466.7184466.3967981 0 .7184466-.3216485.7184466-.7184466 0-.0010058 0-.001868 0-.0028738s0-.001868 0-.0028738 0-.0019398 0-.0028738c0-.0009339 0-.0019398 0-.0028738 0-.396798-.3216485-.7184466-.7184466-.7184466z"/><path d="m29.7436893 0h-22.7029126c-3.88234175 0-7.0407767 3.15843495-7.0407767 7.0407767v22.7029126c0 3.8823418 3.15843495 7.0407767 7.0407767 7.0407767h11.3514563c.3967981 0 .7184466-.3216485.7184466-.7184466v-5.5679611c0-.3967981-.3216485-.7184466-.7184466-.7184466-.396798 0-.7184466.3216485-.7184466.7184466v4.8495145h-10.6330097c-3.08996699 0-5.6038835-2.5139165-5.6038835-5.6038835v-22.7029126c0-3.08996699 2.51391651-5.6038835 5.6038835-5.6038835h22.7029126c3.089967 0 5.6038835 2.51391651 5.6038835 5.6038835v22.7029126c0 3.089967-2.5139165 5.6038835-5.6038835 5.6038835h-4.5980582v-12.6805107h4.1656252c.3689942 0 .6779262-.2794757.7148544-.6465301l.5166349-5.1336602c.0203321-.202099-.045765-.403264-.1819825-.5538504s-.3298388-.2365127-.5328718-.2365127h-4.6822602v-2.6956835c0-.487897.1554-.6693048.5733922-.6693048h4.0766097c.3967981 0 .7184466-.3216486.7184466-.7184466v-5.00469904c0-.39679806-.3216485-.7184466-.7184466-.7184466h-5.3536485c-3.0334971 0-4.6422428 1.33243106-5.4576078 2.45019029-1.1403903 1.56319615-1.3106621 3.40931655-1.3106621 4.37059805v3.0179786h-3.5203884c-.396798 0-.7184466.3216486-.7184466.7184466v5.101402c0 .396798.3216486.7184466.7184466.7184466h3.5203884v2.0475728c0 .3967981.3216485.7184466.7184466.7184466.396798 0 .7184466-.3216485.7184466-.7184466v-2.7660194c0-.3967981-.3216486-.7184466-.7184466-.7184466h-3.5203884v-3.6645806h3.5203884c.396798 0 .7184466-.3216485.7184466-.7184466v-3.7364252c0-1.6188039.5195087-5.38389519 5.3313767-5.38389519h4.6352019v3.56780579h-3.3581631c-.9273709 0-2.0102854.5516233-2.0102854 2.1061981v3.4141301c0 .3967981.3216485.7184466.7184466.7184466h4.6063204l-.3720117 3.696767h-4.2343087c-.3967981 0-.7184466.3216485-.7184466.7184466v14.1174757c0 .3967981.3216485.7184466.7184466.7184466h5.3165048c3.8823418 0 7.0407767-3.1584349 7.0407767-7.0407767v-22.7029126c0-3.88234175-3.1584349-7.0407767-7.0407767-7.0407767z"/><path d="m4.16699029 7.36407767c-.39679806 0-.7184466.32164854-.7184466.7184466v5.99902913c0 .3967981.32164854.7184466.7184466.7184466s.7184466-.3216485.7184466-.7184466v-5.99902913c0-.39679806-.32164854-.7184466-.7184466-.7184466z"/><path d="m4.16699029 16.4798718c-.39679806 0-.7184466.3216486-.7184466.7184466v.0084777c0 .3967981.32164854.7184466.7184466.7184466s.7184466-.3216485.7184466-.7184466v-.0084777c0-.396798-.32164854-.7184466-.7184466-.7184466z"/></g></svg>