<svg height="40" viewBox="0 0 32 40" width="32" xmlns="http://www.w3.org/2000/svg"><g fill="#fff"><path d="m25.8043046 15.4059603-.8930463.9761589 4.0614238 3.7231788c.9561258.8796358 1.501159 2.1190398 1.5014901 3.4178808v16.2119205h1.3245033v-16.2119205c-.0016556-1.6705298-.7023179-3.2635762-1.9324503-4.3942053z"/><path d="m20.5403974 0h-17.2185431c-1.82781456.00231788-3.30894037 1.48344371-3.31125827 3.31125828v33.11258282c.0023179 1.8278145 1.48344371 3.3089403 3.31125827 3.3112582h16.5562914v-1.1847682c-.0031457-2.9832781.8799669-5.9009934 2.5377483-8.3814569.1754967-.2629139.1402318-.6127484-.0827814-.8357616l-4.6357616-4.6357616c-.4284768-.4289735-.6556291-1.0188742-.6256623-1.6243378.0301325-.6057946.3147352-1.170033.7832782-1.5544702.9024834-.6899006 2.1788079-.5913907 2.9649006.2283113l6.5370861 6.5372517.9364239-.9364239-4.4417219-4.4430463v-19.59337752c-.0023179-1.82781457-1.4834437-3.3089404-3.3112582-3.31125828zm1.9867549 21.5801325-.7708609-.770861c-1.2705298-1.2980132-3.3139073-1.4332781-4.7443709-.3135762-.7566225.6218544-1.2157285 1.5347683-1.2635761 2.5134107-.0476821.9784768.3198675 1.9316225 1.0125828 2.6246688l4.2582781 4.2584437c-1.5880795 2.559106-2.4397351 5.5067881-2.4609272 8.5183775h-15.2364238c-1.09701984 0-1.98675496-.8897351-1.98675496-1.9867549v-1.986755h16.55629136v-1.3245033h-16.55629136v-27.81456955h21.19205296zm0-17.60662257h-21.19205296v-.66225165c0-1.09701985.88973512-1.98675497 1.98675496-1.98675497h17.2185431c1.0970198 0 1.9867549.88973512 1.9867549 1.98675497z"/><path d="m3.98410596 11.9205298h2.64900662c.73162253 0 1.32450331-.5928808 1.32450331-1.3245033v-2.64900663c0-.73162253-.59288078-1.32450331-1.32450331-1.32450331h-2.64900662c-.73162253 0-1.32450331.59288078-1.32450331 1.32450331v2.64900663c0 .7316225.59288078 1.3245033 1.32450331 1.3245033zm0-3.97350993h2.64900662v2.64900663h-2.64900662z"/><path d="m10.6066225 11.9205298h2.6490066c.7316226 0 1.3245034-.5928808 1.3245034-1.3245033v-2.64900663c0-.73162253-.5928808-1.32450331-1.3245034-1.32450331h-2.6490066c-.73162251 0-1.32450329.59288078-1.32450329 1.32450331v2.64900663c0 .7316225.59288078 1.3245033 1.32450329 1.3245033zm0-3.97350993h2.6490066v2.64900663h-2.6490066z"/><path d="m17.2291391 11.9205298h2.6490066c.7316225 0 1.3245033-.5928808 1.3245033-1.3245033v-2.64900663c0-.73162253-.5928808-1.32450331-1.3245033-1.32450331h-2.6490066c-.7316226 0-1.3245033.59288078-1.3245033 1.32450331v2.64900663c0 .7316225.5928807 1.3245033 1.3245033 1.3245033zm0-3.97350993h2.6490066v2.64900663h-2.6490066z"/><path d="m3.98410596 18.5430464h2.64900662c.73162253 0 1.32450331-.5928808 1.32450331-1.3245034v-2.6490066c0-.7316225-.59288078-1.3245033-1.32450331-1.3245033h-2.64900662c-.73162253 0-1.32450331.5928808-1.32450331 1.3245033v2.6490066c0 .7316226.59288078 1.3245034 1.32450331 1.3245034zm0-3.97351h2.64900662v2.6490066h-2.64900662z"/><path d="m3.98410596 25.1655629h2.64900662c.73162253 0 1.32450331-.5928808 1.32450331-1.3245033v-2.6490066c0-.7316225-.59288078-1.3245033-1.32450331-1.3245033h-2.64900662c-.73162253 0-1.32450331.5928808-1.32450331 1.3245033v2.6490066c0 .7316225.59288078 1.3245033 1.32450331 1.3245033zm0-3.9735099h2.64900662v2.6490066h-2.64900662z"/><path d="m10.6066225 18.5430464h2.6490066c.7316226 0 1.3245034-.5928808 1.3245034-1.3245034v-2.6490066c0-.7316225-.5928808-1.3245033-1.3245034-1.3245033h-2.6490066c-.73162251 0-1.32450329.5928808-1.32450329 1.3245033v2.6490066c0 .7316226.59288078 1.3245034 1.32450329 1.3245034zm0-3.97351h2.6490066v2.6490066h-2.6490066z"/><path d="m17.2291391 18.5430464h2.6490066c.7316225 0 1.3245033-.5928808 1.3245033-1.3245034v-2.6490066c0-.7316225-.5928808-1.3245033-1.3245033-1.3245033h-2.6490066c-.7316226 0-1.3245033.5928808-1.3245033 1.3245033v2.6490066c0 .7316226.5928807 1.3245034 1.3245033 1.3245034zm0-3.97351h2.6490066v2.6490066h-2.6490066z"/><path d="m10.6066225 25.1655629h2.6490066c.7316226 0 1.3245034-.5928808 1.3245034-1.3245033v-2.6490066c0-.7316225-.5928808-1.3245033-1.3245034-1.3245033h-2.6490066c-.73162251 0-1.32450329.5928808-1.32450329 1.3245033v2.6490066c0 .7316225.59288078 1.3245033 1.32450329 1.3245033zm0-3.9735099h2.6490066v2.6490066h-2.6490066z"/><path d="m3.98410596 31.7880795h2.64900662c.73162253 0 1.32450331-.5928808 1.32450331-1.3245033v-2.6490067c0-.7316225-.59288078-1.3245033-1.32450331-1.3245033h-2.64900662c-.73162253 0-1.32450331.5928808-1.32450331 1.3245033v2.6490067c0 .7316225.59288078 1.3245033 1.32450331 1.3245033zm0-3.97351h2.64900662v2.6490067h-2.64900662z"/><path d="m10.6066225 31.7880795h2.6490066c.7316226 0 1.3245034-.5928808 1.3245034-1.3245033v-2.6490067c0-.7316225-.5928808-1.3245033-1.3245034-1.3245033h-2.6490066c-.73162251 0-1.32450329.5928808-1.32450329 1.3245033v2.6490067c0 .7316225.59288078 1.3245033 1.32450329 1.3245033zm0-3.97351h2.6490066v2.6490067h-2.6490066z"/><path d="m11.2688742 35.7615894h1.3245033v1.3245033h-1.3245033z"/></g></svg>