<?xml version="1.0" encoding="UTF-8"?>
<svg width="18px" height="18px" viewBox="0 0 18 18" version="1.1" xmlns="http://www.w3.org/2000/svg" xmlns:xlink="http://www.w3.org/1999/xlink">
    <!-- Generator: Sketch 55.2 (78181) - https://sketchapp.com -->
    <title>gear</title>
    <desc>Created with Sketch.</desc>
    <g id="Page-1" stroke="none" stroke-width="1" fill="none" fill-rule="evenodd">
        <g id="view_acc" transform="translate(-166.000000, -334.000000)" fill="#222222" fill-rule="nonzero">
            <g id="Group-4" transform="translate(166.000000, 297.000000)">
                <g id="gear" transform="translate(0.000000, 37.000000)">
                    <path d="M9,4.69720459 C6.62750244,4.69720459 4.69720459,6.62750244 4.69720459,9 C4.69720459,11.3724976 6.62750244,13.3027954 9,13.3027954 C11.3724976,13.3027954 13.3027954,11.3724976 13.3027954,9 C13.3027954,6.62750244 11.3724976,4.69720459 9,4.69720459 Z M9,12.2270966 C7.22062684,12.2270966 5.77290343,10.7793732 5.77290343,9 C5.77290343,7.22062684 7.22062684,5.77290343 9,5.77290343 C10.7793732,5.77290343 12.2270966,7.22062684 12.2270966,9 C12.2270966,10.7793732 10.7793732,12.2270966 9,12.2270966 Z" id="Shape"></path>
                    <path d="M17.5764771,6.95050049 L16.1930237,6.64974977 C16.0727234,6.28143311 15.9237213,5.92218018 15.7478027,5.57611084 L16.5136871,4.38478088 C16.6504669,4.17192079 16.6203918,3.89245605 16.4415894,3.71365355 L14.2863465,1.55841064 C14.1075439,1.37960817 13.8280792,1.34953309 13.6152191,1.48631288 L12.4238892,2.25219727 C12.0778198,2.0762787 11.7185669,1.92727659 11.3502502,1.80697634 L11.0494995,0.423522949 C10.9958038,0.176330566 10.7769013,0 10.523941,0 L7.47605897,0 C7.22309875,0 7.00419618,0.176330566 6.95050049,0.423522949 L6.64974977,1.80697634 C6.28143311,1.92727659 5.92218018,2.0762787 5.57611084,2.25219727 L4.38478088,1.48631288 C4.17192079,1.34953309 3.89245605,1.37960817 3.71365355,1.55841064 L1.55841064,3.71365355 C1.37960817,3.89245605 1.34953309,4.17192079 1.48631288,4.38478088 L2.25219727,5.57611084 C2.0762787,5.92218018 1.92727659,6.28143311 1.80697634,6.64974977 L0.423522949,6.95050049 C0.176330566,7.0043335 1.70530257e-13,7.22309875 1.70530257e-13,7.47605897 L1.70530257e-13,10.523941 C1.70530257e-13,10.7769013 0.176330566,10.9956665 0.423522949,11.0494995 L1.80697634,11.3502502 C1.92727659,11.7185669 2.0762787,12.0778198 2.25219727,12.4238892 L1.48631288,13.6152191 C1.34953309,13.8280792 1.37960817,14.1075439 1.55841064,14.2863465 L3.71365355,16.4415894 C3.89245605,16.6203918 4.17192079,16.6504669 4.38478088,16.5136871 L5.57611084,15.7478027 C5.92218018,15.9237213 6.28143311,16.0727234 6.64974977,16.1930237 L6.95050049,17.5764771 C7.00419618,17.8236694 7.22309875,18 7.47605897,18 L10.523941,18 C10.7769013,18 10.9958038,17.8236694 11.0494995,17.5764771 L11.3502502,16.1930237 C11.7185669,16.0727234 12.0778198,15.9237213 12.4238892,15.7478027 L13.6152191,16.5136871 C13.8280792,16.6504669 14.1075439,16.6205292 14.2863465,16.4415894 L16.4415894,14.2863465 C16.6203918,14.1075439 16.6504669,13.8280792 16.5136871,13.6152191 L15.7478027,12.4238892 C15.9237213,12.0778198 16.0727234,11.7185669 16.1930237,11.3502502 L17.5764771,11.0494995 C17.8236694,10.9956665 18,10.7769013 18,10.523941 L18,7.47605897 C18,7.22309875 17.8236694,7.0043335 17.5764771,6.95050049 Z M16.9243012,10.0903931 L15.6557922,10.3661499 C15.4609223,10.4085846 15.3054657,10.5552521 15.2519073,10.7472382 C15.1125183,11.2472534 14.9120178,11.7307892 14.6560364,12.1843872 C14.5579834,12.3581085 14.5640259,12.5717926 14.6719666,12.7396088 L15.3744049,13.8321991 L13.8323364,15.3744049 L12.7396088,14.6719666 C12.5717926,14.5640259 12.3581085,14.5579834 12.1845245,14.6560364 C11.7307892,14.9120178 11.2472534,15.1125183 10.7472382,15.2519073 C10.5552521,15.3054657 10.4085846,15.4609222 10.3661499,15.6557922 L10.0903931,16.9243012 L7.90960693,16.9243012 L7.6338501,15.6557922 C7.59141541,15.4609222 7.44474793,15.3054657 7.25276183,15.2519073 C6.75274658,15.1125183 6.26921082,14.9120178 5.81561279,14.6560364 C5.64189149,14.5579834 5.42820741,14.5641632 5.26039123,14.6719666 L4.16780089,15.3744049 L2.62573242,13.8321991 L3.32803343,12.7396088 C3.43597412,12.5717926 3.44215392,12.3581085 3.34410096,12.1843872 C3.08811952,11.7307892 2.88761903,11.2472534 2.74809266,10.7472382 C2.69453429,10.5552521 2.53921507,10.4085846 2.3443451,10.3661499 L1.07569884,10.0903931 L1.07569884,7.90960693 L2.34420778,7.6338501 C2.53907775,7.59141541 2.69453429,7.44474793 2.74809266,7.25276183 C2.88748167,6.75274658 3.0879822,6.26921082 3.34396364,5.81561279 C3.4420166,5.64189149 3.43597412,5.42820741 3.32803343,5.26039123 L2.6255951,4.16780089 L4.16766357,2.6255951 L5.26039123,3.32803343 C5.42820741,3.43597412 5.64189149,3.4420166 5.81547547,3.34396364 C6.26921082,3.0879822 6.75274658,2.88748167 7.25276183,2.74809266 C7.44474793,2.69453429 7.59141541,2.53907775 7.6338501,2.34420778 L7.90960693,1.07569884 L10.0903931,1.07569884 L10.3661499,2.34420778 C10.4085846,2.53907775 10.5552521,2.69453429 10.7472382,2.74809266 C11.2472534,2.88748167 11.7307892,3.0879822 12.1843872,3.34396364 C12.3581085,3.4420166 12.5717926,3.4358368 12.7396088,3.32803343 L13.8321991,2.6255951 L15.3742676,4.16780089 L14.6719666,5.26039123 C14.5640259,5.42820741 14.5578461,5.64189149 14.655899,5.81561279 C14.9120178,6.26921082 15.112381,6.75274658 15.2519073,7.25276183 C15.3054657,7.44474793 15.4607849,7.59141541 15.6556549,7.6338501 L16.9243012,7.90960693 L16.9243012,10.0903931 Z" id="Shape"></path>
                </g>
            </g>
        </g>
    </g>
</svg>