<svg height="24" viewBox="0 0 27 24" width="27" xmlns="http://www.w3.org/2000/svg"><g fill="#fff"><path d="m18.5186043.01715745c-2.1334979 0-4.0627405.87681702-5.4462639 2.28944681-1.3842893-1.41262979-3.31317444-2.28944681-5.44708083-2.28944681-4.21154042 0-7.62525957 3.41407659-7.62525957 7.62561702 0 8.71480853 13.0723404 16.34006813 13.0723404 16.34006813s13.0723405-7.6252596 13.0723405-16.34006813c0-4.21154043-3.4140766-7.62561702-7.6260766-7.62561702zm.3822127 18.23453615c-2.3728851 2.1798128-4.7768681 3.7867404-5.8284766 4.4529702-1.0515574-.6662298-3.45599997-2.2732085-5.82878295-4.4529702-1.8192-1.6714723-3.26251915-3.3454468-4.29053617-4.9778042-1.23676596-1.9628426-1.86388085-3.8574128-1.86388085-5.63106387 0-1.74577021.6797617-3.38731915 1.9144851-4.62163404 1.23472341-1.2347234 2.87596596-1.91458723 4.62168511-1.91458723.89443404 0 1.7608851.17719148 2.57474046.52667234.7870978.33788936 1.491217.82100425 2.093617 1.43571063l.7786723.79424681.7779064-.79429787c.6024-.61475745 1.3069277-1.09787234 2.093566-1.43571064.8146212-.34948085 1.6803574-.52662127 2.5747915-.52662127 1.7465361 0 3.3877787.67981276 4.6221446 1.91453617 1.2342128 1.23431489 1.9140766 2.87591489 1.9140766 4.62163404 0 1.77365106-.6271659 3.66822123-1.8638808 5.63106383-1.0276085 1.6324085-2.4709787 3.3063319-4.2901277 4.9778553z"/><path d="m8.0106383 2.35526809c-.10651915-.10611064-.24577021-.15957447-.38537873-.15957447-3.00796595 0-5.44667234 2.43870638-5.44667234 5.44708085 0 .13925106.05305532.27885957.15957447.38502127.21262979.21257873.55731064.21257873.77034894 0 .10611064-.1061617.15957447-.24577021.15957447-.38502127 0-1.16410213.45319149-2.2584 1.27618723-3.08139575.82299575-.82299574 1.91729362-1.27618723 3.08098723-1.27618723.13960852 0 .27885958-.05310638.38537873-.15957447.21262979-.21262979.21262979-.55731064 0-.77034893z"/></g></svg>