<?xml version="1.0" encoding="UTF-8"?>
<svg width="36px" height="31px" viewBox="0 0 36 31" version="1.1" xmlns="http://www.w3.org/2000/svg" xmlns:xlink="http://www.w3.org/1999/xlink">
    <title>time</title>
    <g id="Page-1" stroke="none" stroke-width="1" fill="none" fill-rule="evenodd">
        <g id="Recipe_page" transform="translate(-1456.000000, -578.000000)" fill="#FFFFFF" fill-rule="nonzero" stroke="#FFFFFF" stroke-width="0.2">
            <g id="right" transform="translate(1391.000000, 216.000000)">
                <g id="time-group" transform="translate(65.000000, 76.000000)">
                    <g id="icon" transform="translate(0.000000, 286.000000)">
                        <g id="time">
                            <path d="M16.844,27.884 C10.1402934,28.87008 3.7936153,24.5726347 2.22023531,17.9819966 C0.64685532,11.3913585 4.36790156,4.69045005 10.7941228,2.54202844 C17.2203441,0.393606841 24.2232754,3.50926296 26.93,9.721 C27.3119568,9.81295158 27.681329,9.95096248 28.03,10.132 C25.5103454,3.25340119 18.1014365,-0.506641178 11.061997,1.52069021 C4.02255752,3.5480216 -0.251583176,10.6727372 1.27329091,17.8378289 C2.798165,25.0029207 9.60307248,29.7697943 16.858,28.755 C16.8473835,28.7036592 16.841691,28.6514224 16.841,28.599 L16.844,27.884 Z" id="Path_93"></path>
                            <path d="M30.611,23.395 L22.542,23.395 C20.0759245,23.3983064 18.0777544,25.3969239 18.075,27.863 L18.075,29.88 C18.075,30.1194154 18.2690846,30.3135 18.5085,30.3135 C18.7479154,30.3135 18.942,30.1194154 18.942,29.88 L18.942,27.863 C18.9447541,25.8759168 20.5549168,24.2657541 22.542,24.263 L30.611,24.263 C32.5980832,24.2657541 34.2082459,25.8759168 34.211,27.863 L34.211,29.88 C34.211,30.1194154 34.4050846,30.3135 34.6445,30.3135 C34.8839154,30.3135 35.078,30.1194154 35.078,29.88 L35.078,27.863 C35.0752456,25.3969239 33.0770755,23.3983064 30.611,23.395 L30.611,23.395 Z" id="Path_94"></path>
                            <path d="M22.108,15.76 C22.1085523,18.2269257 24.1087408,20.2263681 26.5756665,20.226 C29.0425923,20.2256318 31.0421839,18.2255925 31.0419999,15.7586667 C31.0418158,13.291741 29.0419258,11.292 26.575,11.292 C24.1086963,11.2947565 22.1102045,13.2936958 22.108,15.76 L22.108,15.76 Z M30.176,15.76 C30.176,17.7482251 28.5642251,19.36 26.576,19.36 C24.5877749,19.36 22.976,17.7482251 22.976,15.76 C22.976,13.7717749 24.5877749,12.16 26.576,12.16 C28.5634737,12.1622033 30.1742447,13.772527 30.177,15.76 L30.176,15.76 Z" id="Path_95"></path>
                            <path d="M15.141,7.8 L15.141,3.087 C15.1486707,2.92752098 15.0679554,2.77676132 14.9309795,2.69472477 C14.7940036,2.61268822 14.6229964,2.61268822 14.4860205,2.69472477 C14.3490446,2.77676132 14.2683293,2.92752098 14.276,3.087 L14.276,7.8 C14.2683293,7.95947902 14.3490446,8.11023868 14.4860205,8.19227523 C14.6229964,8.27431178 14.7940036,8.27431178 14.9309795,8.19227523 C15.0679554,8.11023868 15.1486707,7.95947902 15.141,7.8 L15.141,7.8 Z" id="Path_96"></path>
                            <path d="M2.626,14.693 C2.38686082,14.6930002 2.19300029,14.8868608 2.19300029,15.126 C2.19300029,15.3651392 2.38686082,15.5589998 2.626,15.559 L7.339,15.559 C7.5781393,15.559 7.772,15.3651393 7.772,15.126 C7.772,14.8868607 7.5781393,14.693 7.339,14.693 L2.626,14.693 Z" id="Path_97"></path>
                            <path d="M14.236,22.496 L14.236,27.209 C14.236,27.4481393 14.4298607,27.642 14.669,27.642 C14.9081393,27.642 15.102,27.4481393 15.102,27.209 L15.102,22.496 C15.102,22.2568607 14.9081393,22.063 14.669,22.063 C14.4298607,22.063 14.236,22.2568607 14.236,22.496 Z" id="Path_98"></path>
                            <path d="M19.163,13.35 C19.0408361,13.1446959 18.7754759,13.0771253 18.57,13.199 L14.789,15.449 L8.849,8.056 C8.69720525,7.87725525 8.43070276,7.8518333 8.2478518,7.99865584 C8.06500085,8.14547839 8.03226069,8.41118111 8.174,8.598 L14.349,16.285 C14.356,16.293 14.364,16.299 14.371,16.307 C14.378,16.315 14.391,16.328 14.402,16.338 C14.4185851,16.3524092 14.4363097,16.3654518 14.455,16.377 C14.4655594,16.3843679 14.4765822,16.3910484 14.488,16.397 C14.5091149,16.4080277 14.5312102,16.4170666 14.554,16.424 C14.5637799,16.4279606 14.5737998,16.4313005 14.584,16.434 C14.6601095,16.4541232 14.740465,16.4513404 14.815,16.426 C14.828,16.426 14.84,16.415 14.853,16.41 C14.8716122,16.4038588 14.8896757,16.3961651 14.907,16.387 L19.007,13.945 C19.106989,13.8871546 19.1797191,13.791754 19.2090154,13.680015 C19.2383117,13.5682759 19.2217451,13.4494631 19.163,13.35 L19.163,13.35 Z" id="Path_99"></path>
                        </g>
                    </g>
                </g>
            </g>
        </g>
    </g>
</svg>