<?xml version="1.0" encoding="UTF-8"?>
<svg width="18px" height="20px" viewBox="0 0 18 20" version="1.1" xmlns="http://www.w3.org/2000/svg" xmlns:xlink="http://www.w3.org/1999/xlink">
    <title>097-delete-3</title>
    <g id="Page-1" stroke="none" stroke-width="1" fill="none" fill-rule="evenodd">
        <g id="My_account_recipes-list" transform="translate(-1823.000000, -1055.000000)" fill="#FFFFFF" fill-rule="nonzero">
            <g id="Group-39" transform="translate(144.000000, 967.000000)">
                <g id="Group-37" transform="translate(0.000000, 62.000000)">
                    <g id="Group-13" transform="translate(1584.000000, 15.000000)">
                        <g id="Group-36" transform="translate(82.000000, 0.000000)">
                            <g id="097-delete-3" transform="translate(13.000000, 11.000000)">
                                <g id="Group" transform="translate(0.000000, 2.814815)">
                                    <polygon id="Path" points="12.4657037 3.72318519 10.9813333 3.66874074 10.6595185 12.457037 12.1438889 12.5112593"></polygon>
                                    <rect id="Rectangle" x="8.10918519" y="3.69596296" width="1.48533333" height="8.78833333"></rect>
                                    <polygon id="Path" points="7.04392593 12.4568148 6.72211111 3.66848148 5.23774074 3.72296296 5.55959259 12.5112593"></polygon>
                                    <path d="M0.014037037,0.0321111111 L0.014037037,1.51744444 L1.56177778,1.51744444 L2.78962963,15.4705926 C2.8232963,15.854037 3.14440741,16.1481481 3.52933333,16.1481481 L14.1493333,16.1481481 C14.5342963,16.1481481 14.8556296,15.8538148 14.889037,15.4703333 L16.1169259,1.51744444 L17.6896667,1.51744444 L17.6896667,0.0321111111 L0.014037037,0.0321111111 Z M13.4690741,14.6628148 L4.20940741,14.6628148 L3.05281481,1.51744444 L14.6259259,1.51744444 L13.4690741,14.6628148 Z" id="Shape"></path>
                                </g>
                                <path d="M11.2779259,0 L6.42577778,0 C5.74325926,0 5.188,0.555259259 5.188,1.23777778 L5.188,3.58959259 L6.67333333,3.58959259 L6.67333333,1.48533333 L11.0303704,1.48533333 L11.0303704,3.58959259 L12.5157037,3.58959259 L12.5157037,1.23777778 C12.5157037,0.555259259 11.9604444,0 11.2779259,0 Z" id="Path"></path>
                            </g>
                        </g>
                    </g>
                </g>
            </g>
        </g>
    </g>
</svg>