<?xml version="1.0" encoding="UTF-8"?>
<svg width="19px" height="19px" viewBox="0 0 19 19" version="1.1" xmlns="http://www.w3.org/2000/svg" xmlns:xlink="http://www.w3.org/1999/xlink">
    <title>092-edit</title>
    <g id="Page-1" stroke="none" stroke-width="1" fill="none" fill-rule="evenodd">
        <g id="My_account_recipes-list" transform="translate(-1740.000000, -1056.000000)" fill="#FFFFFF" fill-rule="nonzero">
            <g id="Group-39" transform="translate(144.000000, 967.000000)">
                <g id="Group-37" transform="translate(0.000000, 62.000000)">
                    <g id="Group-13" transform="translate(1584.000000, 15.000000)">
                        <g id="092-edit" transform="translate(12.000000, 12.000000)">
                            <path d="M18.7411852,4.13014815 L14.8326296,0.22162963 C14.5371111,-0.0736666667 14.059,-0.0738888889 13.7634444,0.221111111 L1.45788889,12.5017407 C1.35877778,12.6005926 1.28892593,12.7251481 1.25640741,12.8613333 L0.0208148148,18.0306667 C-0.0402222222,18.2861111 0.035962963,18.5554074 0.221777778,18.7412593 C0.365259259,18.8847407 0.558407407,18.9629259 0.75662963,18.9629259 C0.81537037,18.9629259 0.874407407,18.9558519 0.93237037,18.942 L6.10174074,17.7064074 C6.23792593,17.6738889 6.36248148,17.6042963 6.46133333,17.5049259 L18.7417037,5.19933333 C19.0367037,4.90381481 19.0364815,4.42518519 18.7411852,4.13014815 Z M5.54192593,16.2847037 L1.77888889,17.1841852 L2.67811111,13.4211481 L14.2975556,1.82588889 L17.1371852,4.66551852 L5.54192593,16.2847037 Z" id="Shape"></path>
                            <rect id="Rectangle" transform="translate(13.364298, 5.597975) rotate(-45.000000) translate(-13.364298, -5.597975) " x="12.6079529" y="2.81666786" width="1.5126892" height="5.56261332"></rect>
                            <rect id="Rectangle" transform="translate(8.636223, 10.325724) rotate(-45.000000) translate(-8.636223, -10.325724) " x="1.95023188" y="9.56937956" width="13.3719829" height="1.5126892"></rect>
                            <rect id="Rectangle" transform="translate(3.920974, 15.041739) rotate(-45.000000) translate(-3.920974, -15.041739) " x="3.16462921" y="12.2780801" width="1.5126892" height="5.52731736"></rect>
                        </g>
                    </g>
                </g>
            </g>
        </g>
    </g>
</svg>