<?xml version="1.0" encoding="UTF-8"?>
<svg width="38px" height="40px" viewBox="0 0 38 40" version="1.1" xmlns="http://www.w3.org/2000/svg" xmlns:xlink="http://www.w3.org/1999/xlink">
    <title>Combined Shape</title>
    <g id="Page-1" stroke="none" stroke-width="1" fill="none" fill-rule="evenodd">
        <g id="Appliances_page" transform="translate(-215.000000, -1878.000000)" fill="#FFFFFF" fill-rule="nonzero">
            <g id="BANNER" transform="translate(0.000000, 106.000000)">
                <g id="Group-16" transform="translate(143.000000, 1271.000000)">
                    <g id="Group-26" transform="translate(1.000000, 400.000000)">
                        <g id="pdf-(1)" transform="translate(71.000000, 101.000000)">
                            <path d="M26.5134888,3.12638804e-13 C26.7203735,3.12638804e-13 26.9184448,0.0842692057 27.0620117,0.233325195 L27.0620117,0.233325195 L37.1464071,10.7120076 C37.2828613,10.8538737 37.3591675,11.0430542 37.3591675,11.2398885 L37.3591675,11.2398885 L37.3591675,36.5410604 C37.3591675,38.2185588 35.990682,39.5833333 34.3086222,39.5833333 L34.3086222,39.5833333 L11.4834188,39.5833333 C9.80135905,39.5833333 8.43287354,38.2177856 8.43287354,36.5393595 L8.43287354,36.5393595 L8.43287354,29.6875 L2.34175618,29.6875 C1.08328451,29.6875 0.0594523112,28.6639771 0.0594523112,27.4058919 L0.0594523112,27.4058919 L0.0594523112,15.9836263 C0.0594523112,14.7254639 1.08328451,13.7019409 2.34175618,13.7019409 L2.34175618,13.7019409 L8.43287354,13.7019409 L8.43287354,3.04930827 C8.43287354,1.36794434 9.80135905,3.12638804e-13 11.4834188,3.12638804e-13 L11.4834188,3.12638804e-13 Z M25.1796387,1.52241211 L11.4834188,1.52241211 C10.640804,1.52241211 9.95528564,2.20731201 9.95528564,3.04930827 L9.95528564,3.04930827 L9.95528564,13.7019409 L22.8974121,13.7019409 C24.1558838,13.7019409 25.179716,14.7254639 25.179716,15.9836263 L25.179716,15.9836263 L25.179716,27.4058919 C25.179716,28.6639771 24.1558838,29.6875 22.8974121,29.6875 L22.8974121,29.6875 L9.95528564,29.6875 L9.95528564,36.5394368 C9.95528564,37.378418 10.640804,38.0609212 11.4834188,38.0609212 L11.4834188,38.0609212 L34.3085449,38.0609212 C35.1511597,38.0609212 35.8366781,37.3791138 35.8366781,36.5410604 L35.8366781,36.5410604 L35.8366781,12.1794515 L25.9408447,12.1794515 C25.5205037,12.1794515 25.1796387,11.8386637 25.1796387,11.4182454 L25.1796387,11.4182454 L25.1796387,1.52241211 Z M22.8974121,15.224353 L2.34175618,15.224353 C1.9228068,15.224353 1.58194173,15.5649862 1.58194173,15.9836263 L1.58194173,15.9836263 L1.58194173,27.4058919 C1.58194173,27.8245321 1.92272949,28.1650879 2.34175618,28.1650879 L2.34175618,28.1650879 L22.8974121,28.1650879 C23.3163615,28.1650879 23.6572266,27.8245321 23.6572266,27.4058919 L23.6572266,27.4058919 L23.6572266,15.9836263 C23.6572266,15.5649862 23.3164388,15.224353 22.8974121,15.224353 L22.8974121,15.224353 Z M8.21494141,18.5 L8.36494141,18.65 L8.36494141,19.5464844 L8.21494141,19.6964844 L5.411,19.696438 L5.411,21.298438 L7.83701172,21.2993164 L7.98701172,21.4493164 L7.98701172,22.3370117 L7.83701172,22.4870117 L5.411,22.486438 L5.41181641,25.0484375 L5.26181641,25.1984375 L4.15,25.1984375 L4,25.0484375 L4,18.65 L4.15,18.5 L8.21494141,18.5 Z M10.2671875,18.5 L10.4171875,18.65 L10.4171875,25.0484375 L10.2671875,25.1984375 L9.15976562,25.1984375 L9.00976562,25.0484375 L9.00976562,18.65 L9.15976562,18.5 L10.2671875,18.5 Z M12.7457031,18.5 L12.8957031,18.65 L12.895,24.010438 L15.6504883,24.0107422 L15.8004883,24.1607422 L15.8004883,25.0484375 L15.6504883,25.1984375 L11.6338867,25.1984375 L11.4838867,25.0484375 L11.4838867,18.65 L11.6338867,18.5 L12.7457031,18.5 Z M20.6558594,18.5 L20.8058594,18.65 L20.8058594,19.5464844 L20.6558594,19.6964844 L17.764,19.696438 L17.764,21.162438 L20.2427734,21.1630859 L20.3927734,21.3130859 L20.3927734,22.1919922 L20.2427734,22.3419922 L17.764,22.341438 L17.764,24.010438 L20.6866211,24.0107422 L20.8366211,24.1607422 L20.8366211,25.0484375 L20.6866211,25.1984375 L16.5030273,25.1984375 L16.3530273,25.0484375 L16.3530273,18.65 L16.5030273,18.5 L20.6558594,18.5 Z M26.7021281,2.05500895 L26.7021281,10.6570394 L34.9805339,10.6570394 L26.7021281,2.05500895 Z" id="Combined-Shape"></path>
                        </g>
                    </g>
                </g>
            </g>
        </g>
    </g>
</svg>