<?xml version="1.0" encoding="UTF-8"?>
<svg width="34px" height="31px" viewBox="0 0 34 31" version="1.1" xmlns="http://www.w3.org/2000/svg" xmlns:xlink="http://www.w3.org/1999/xlink">
    <title>heart</title>
    <g id="Page-1" stroke="none" stroke-width="1" fill="none" fill-rule="evenodd">
        <g id="Ingredient_page" transform="translate(-1220.000000, -956.000000)" fill="#FFFFFF" fill-rule="nonzero">
            <g id="BANNER" transform="translate(144.000000, 170.000000)">
                <g id="Bitmap" transform="translate(0.000000, 46.000000)">
                    <g id="Group-46-Copy" transform="translate(1076.000000, 740.000000)">
                        <g id="Group-42">
                            <g id="heart">
                                <path d="M23.9198638,0.0221617021 C21.1640957,0.0221617021 18.6721574,1.15471702 16.8851064,2.97936383 C15.097066,1.15471702 12.6055894,0.0221617021 9.84929362,0.0221617021 C4.40938723,0.0221617021 0,4.43201064 0,9.87191702 C0,21.1285447 16.8851064,30.9778383 16.8851064,30.9778383 C16.8851064,30.9778383 33.7702128,21.1285447 33.7702128,9.87191702 C33.7702128,4.43201064 29.3603638,0.0221617021 23.9198638,0.0221617021 Z M24.4135553,23.5751043 C21.3485787,26.3906957 18.243434,28.4663106 16.8851064,29.3268574 C15.5268447,28.4663106 12.4211064,26.3906298 9.3562617,23.5751043 C7.0064617,21.4161191 5.14217447,19.2539021 3.81431915,17.1454404 C2.21682979,14.6101021 1.40680638,12.1629489 1.40680638,9.87198298 C1.40680638,7.61702979 2.28483191,5.49669574 3.87968298,3.90237234 C5.47453404,2.30752128 7.59447234,1.42936383 9.84935957,1.42936383 C11.0046702,1.42936383 12.1238362,1.65823617 13.175066,2.10964894 C14.191734,2.54608936 15.1012213,3.17011277 15.8793213,3.96410851 L16.8851064,4.99001064 L17.8899021,3.96404255 C18.6680021,3.16998085 19.578017,2.54595745 20.5940915,2.10958298 C21.6463106,1.65817021 22.7645532,1.42936383 23.9198638,1.42936383 C26.1758064,1.42936383 28.2957447,2.30745532 29.890134,3.90230638 C31.4843255,5.49662979 32.362483,7.61702979 32.362483,9.87191702 C32.362483,12.162883 31.5523936,14.6100362 29.9549702,17.1453745 C28.6276426,19.2539021 26.7632894,21.4160532 24.4135553,23.5751043 Z" id="Shape"></path>
                                <path d="M10.3470745,3.04222128 C10.2094872,2.9051617 10.0296213,2.83610426 9.84929362,2.83610426 C5.96400426,2.83610426 2.81400851,5.9861 2.81400851,9.87191702 C2.81400851,10.051783 2.8825383,10.2321106 3.02012553,10.3692362 C3.29477234,10.643817 3.73998511,10.643817 4.01515957,10.3692362 C4.15221915,10.2321106 4.2212766,10.051783 4.2212766,9.87191702 C4.2212766,8.36828511 4.80664894,6.95481702 5.86968511,5.89178085 C6.93272128,4.82874468 8.34618936,4.24337234 9.84929362,4.24337234 C10.0296213,4.24337234 10.2094872,4.1747766 10.3470745,4.03725532 C10.6217213,3.76260851 10.6217213,3.31739574 10.3470745,3.04222128 Z" id="Path"></path>
                            </g>
                        </g>
                    </g>
                </g>
            </g>
        </g>
    </g>
</svg>