<?xml version="1.0" encoding="UTF-8"?>
<svg width="37px" height="32px" viewBox="0 0 37 32" version="1.1" xmlns="http://www.w3.org/2000/svg" xmlns:xlink="http://www.w3.org/1999/xlink">
    <title>people</title>
    <g id="Recipe_page-persons" stroke="none" stroke-width="1" fill="none" fill-rule="evenodd">
        <g id="Recipe_page-persons" transform="translate(-1702.000000, -577.000000)" fill="#FFFFFF" fill-rule="nonzero" stroke="#FFFFFF" stroke-width="0.2">
            <g id="persons-right" transform="translate(1391.000000, 216.000000)">
                <g id="person-icon-group" transform="translate(65.000000, 76.000000)">
                    <g id="person-icon" transform="translate(247.000000, 286.000000)">
                        <g id="people">
                            <path d="M17.758,8.05 C19.9809461,8.05 21.783,6.24794612 21.783,4.025 C21.783,1.80205388 19.9809461,0 17.758,0 C15.5350539,0 13.733,1.80205388 13.733,4.025 C13.7352049,6.24703216 15.5359678,8.04779505 17.758,8.05 Z M17.758,0.781 C19.5496117,0.781 21.002,2.23338827 21.002,4.025 C21.002,5.81661173 19.5496117,7.269 17.758,7.269 C15.9663883,7.269 14.514,5.81661173 14.514,4.025 C14.514,2.23274007 15.9657414,0.779207217 17.758,0.777 L17.758,0.781 Z"></path>
                            <path d="M10.511,24.545 L4.027,24.545 C1.80519599,24.5477549 0.00475487485,26.348196 0.002,28.57 L0.002,30.387 C0.002,30.6026672 0.176832805,30.7775 0.3925,30.7775 C0.608167195,30.7775 0.783,30.6026672 0.783,30.387 L0.783,28.57 C0.785203939,26.779302 2.23630197,25.3282039 4.027,25.326 L11.296,25.326 C13.086698,25.3282039 14.5377961,26.779302 14.54,28.57 L14.54,30.387 C14.54,30.6023911 14.7146089,30.777 14.93,30.777 C15.1453911,30.777 15.32,30.6023911 15.32,30.387 L15.32,28.57 C15.3177961,26.3483578 13.5176416,24.547756 11.296,24.545 C11.0845221,24.545 10.902,24.547756 10.511,24.545 Z"></path>
                            <path d="M30.509,24.545 L24.025,24.545 C21.803196,24.5477549 20.0027549,26.348196 20,28.57 L20,30.387 C20,30.6026672 20.1748328,30.7775 20.3905,30.7775 C20.6061672,30.7775 20.781,30.6026672 20.781,30.387 L20.781,28.57 C20.7832039,26.779302 22.234302,25.3282039 24.025,25.326 L31.294,25.326 C33.084698,25.3282039 34.5357961,26.779302 34.538,28.57 L34.538,30.387 C34.538,30.6023911 34.7126089,30.777 34.928,30.777 C35.1433911,30.777 35.318,30.6023911 35.318,30.387 L35.318,28.57 C35.3157961,26.3483578 33.5156416,24.547756 31.294,24.545 C31.0825221,24.545 30.9,24.547756 30.509,24.545 Z"></path>
                            <path d="M20.509,11 L14.025,11 C12.6175028,11.0017452 11.3791042,11.7249258 10.6597057,12.8196403 C10.5878212,12.9290274 10.519812,13.1955447 10.7740647,13.3591123 C11.0283175,13.5226799 11.2719089,13.305465 11.3417766,13.2029193 C11.9255239,12.3461469 12.9093526,11.7823731 14.025,11.781 L21.294,11.781 C22.3715602,11.7823262 23.3261484,12.3083089 23.9160494,13.1172326 C23.9995996,13.231804 24.2126564,13.4721075 24.52097,13.3591123 C24.8292835,13.246117 24.7507825,12.9601381 24.6618123,12.8243033 C23.9431004,11.7270139 22.7033609,11.0017483 21.294,11 C21.0825221,11 20.9,11.002756 20.509,11 Z"></path>
                            <path d="M27.581,21.6950001 C29.2090515,21.6954045 30.6770194,20.7150012 31.300328,19.2109939 C31.9236366,17.7069865 31.5795216,15.9755982 30.4284584,14.8242489 C29.2773951,13.6728997 27.5460924,13.3283544 26.0419302,13.9512893 C24.5377681,14.5742242 23.557,16.0419485 23.557,17.67 C23.5592039,19.8916422 25.3593584,21.692244 27.581,21.6950001 Z M27.581,14.426 C29.3726117,14.426 30.825,15.8783883 30.825,17.67 C30.825,19.4616117 29.3726117,20.914 27.581,20.914 C25.7893883,20.914 24.337,19.4616117 24.337,17.67 C24.337,15.8777401 25.7887414,14.4242072 27.581,14.422 L27.581,14.426 Z"></path>
                            <path d="M7.659,21.695 C9.88194612,21.695 11.684,19.8929461 11.684,17.67 C11.684,15.4470539 9.88194612,13.645 7.659,13.645 C5.43605388,13.645 3.634,15.4470539 3.634,17.67 C3.63620495,19.8920322 5.43696784,21.6927951 7.659,21.695 L7.659,21.695 Z M7.659,14.426 C9.45048145,14.4265522 10.9023681,15.879185 10.902,17.6706665 C10.9016318,19.462148 9.44914829,20.9141839 7.65766677,20.9139998 C5.86618524,20.9138158 4.41399984,19.4614815 4.41399984,17.67 C4.4134475,15.8771217 5.86612197,14.4231042 7.659,14.422 L7.659,14.426 Z"></path>
                        </g>
                    </g>
                </g>
            </g>
        </g>
    </g>
</svg>