<?xml version="1.0" encoding="UTF-8"?>
<svg width="14px" height="14px" viewBox="0 0 14 14" version="1.1" xmlns="http://www.w3.org/2000/svg" xmlns:xlink="http://www.w3.org/1999/xlink">
    <title>Shape</title>
    <g id="Page-1" stroke="none" stroke-width="1" fill="none" fill-rule="evenodd">
        <g id="Ingredient_page" transform="translate(-1628.000000, -1122.000000)" fill="#FFFFFF" fill-rule="nonzero">
            <g id="right" transform="translate(1391.000000, 216.000000)">
                <g id="Group-7" transform="translate(65.000000, 892.000000)">
                    <g id="Group-21" transform="translate(172.000000, 14.000000)">
                        <path d="M10.6829876,8.98672199 C9.87842324,8.98672199 9.16099585,9.37012448 8.70207469,9.9626556 L4.8593361,7.81618257 C4.94937759,7.55767635 4.99875519,7.27883817 4.99875519,6.99128631 C4.99875519,6.70082988 4.94937759,6.42489627 4.85643154,6.16348548 L8.69626556,4.01991701 C9.15228216,4.6153527 9.87261411,5.00165975 10.680083,5.00165975 C12.0568465,5.00165975 13.1809129,3.88049793 13.1809129,2.50082988 C13.1809129,1.12116183 12.059751,1.88293825e-13 10.680083,1.88293825e-13 C9.30041494,1.88293825e-13 8.17925311,1.12116183 8.17925311,2.50082988 C8.17925311,2.79128631 8.22863071,3.07012448 8.32157676,3.32863071 L4.4846473,5.47219917 C4.02863071,4.87385892 3.30829876,4.49045643 2.50082988,4.49045643 C1.12406639,4.49045643 -4.58300065e-13,5.61161826 -4.58300065e-13,6.99128631 C-4.58300065e-13,8.37095436 1.12406639,9.49211618 2.50373444,9.49211618 C3.31120332,9.49211618 4.03153527,9.10580913 4.49045643,8.50746888 L8.33029046,10.6539419 C8.2373444,10.9153527 8.18506224,11.1970954 8.18506224,11.4875519 C8.18506224,12.8643154 9.30622407,13.9883817 10.6858921,13.9883817 C12.0655602,13.9883817 13.186722,12.8672199 13.186722,11.4875519 C13.186722,10.1078838 12.0626556,8.98672199 10.6829876,8.98672199 Z M10.6829876,0.787136929 C11.6298755,0.787136929 12.3995851,1.55684647 12.3995851,2.50373444 C12.3995851,3.45062241 11.6298755,4.22033195 10.6829876,4.22033195 C9.73609959,4.22033195 8.96639004,3.45062241 8.96639004,2.50373444 C8.96639004,1.55684647 9.73900415,0.787136929 10.6829876,0.787136929 Z M2.50373444,8.70788382 C1.55684647,8.70788382 0.787136929,7.93817427 0.787136929,6.99128631 C0.787136929,6.04439834 1.55684647,5.2746888 2.50373444,5.2746888 C3.45062241,5.2746888 4.22033195,6.04439834 4.22033195,6.99128631 C4.22033195,7.93817427 3.44771784,8.70788382 2.50373444,8.70788382 Z M10.6829876,13.2012448 C9.73609959,13.2012448 8.96639004,12.4315353 8.96639004,11.4846473 C8.96639004,10.5377593 9.73609959,9.76804979 10.6829876,9.76804979 C11.6298755,9.76804979 12.3995851,10.5377593 12.3995851,11.4846473 C12.3995851,12.4315353 11.6298755,13.2012448 10.6829876,13.2012448 Z" id="Shape"></path>
                    </g>
                </g>
            </g>
        </g>
    </g>
</svg>