<svg width="24" height="24" viewBox="0 0 24 24" fill="none" xmlns="http://www.w3.org/2000/svg"><path fill-rule="evenodd" clip-rule="evenodd" d="M5.0658 0.727051H18.8398C21.2329 0.727051 23.1796 2.67376 23.1798 5.06568V18.841C23.1798 21.2329 21.2343 23.1797 18.8411 23.1797H5.0658C2.67389 23.1797 0.727173 21.2342 0.727173 18.841V5.06568C0.727173 2.67376 2.67265 0.727051 5.0658 0.727051ZM20.698 3.23623L20.2066 3.23746L16.9318 3.24869L16.9443 6.975L20.698 6.96253V3.23623ZM11.9535 8.19705C15.0674 8.19705 15.7096 11.1202 15.7096 11.9544C15.7096 14.0234 14.0236 15.7094 11.9535 15.7094C9.8821 15.7094 8.19731 14.0234 8.19731 11.9544C8.19594 11.1202 8.8395 8.19705 11.9535 8.19705ZM18.5668 20.7203C19.7553 20.7203 20.7192 19.7551 20.7192 18.5691H20.7165V9.45417H17.6362C17.9243 10.1662 18.0877 11.139 18.0877 11.9546C18.0877 15.3392 15.3355 18.094 11.9496 18.094C8.56375 18.094 5.81019 15.3392 5.81019 11.9546C5.81019 11.139 5.97361 10.1662 6.26293 9.45417H3.14526V18.5691C3.14526 19.7564 4.11046 20.7203 5.29772 20.7203H18.5668Z" fill="white"/></svg>