<svg width="24" height="23" viewBox="0 0 24 23" fill="none" xmlns="http://www.w3.org/2000/svg"><path fill-rule="evenodd" clip-rule="evenodd" d="M6.24547 9.22713H7.73328V5.60178L9.46547 0.48877H7.95273L7.03232 3.98315H6.93752L5.97232 0.48877H4.47204L6.24533 5.76521C6.24547 5.76521 6.24547 9.22713 6.24547 9.22713ZM15.6472 9.20959C15.8608 9.20959 16.0779 9.09173 16.303 8.96956L16.3294 8.95521C16.5664 8.82548 16.792 8.63589 17.0092 8.38904V9.06124H18.1877V2.99411H17.0092V7.59959C16.8994 7.73055 16.7772 7.83904 16.6463 7.92507C16.5129 8.00987 16.4031 8.05356 16.3171 8.05356C16.2062 8.05356 16.1251 8.02233 16.0777 7.9563C16.0278 7.89274 16.0004 7.78918 16.0004 7.64699V2.99534H14.8244V8.0648C14.8244 8.42644 14.8955 8.69713 15.0314 8.87671C15.1696 9.0574 15.3741 9.20959 15.6472 9.20959ZM12.9585 8.72699C12.5968 9.01247 12.1029 9.21329 11.4719 9.21329C10.8646 9.21329 10.3768 9.00754 10.0127 8.71192C9.64862 8.4163 9.46656 8.02219 9.46656 7.52343V4.48808C9.46656 4.03288 9.65369 3.6737 10.0278 3.40439C10.4007 3.1363 10.9045 3.00288 11.5342 3.00288C12.1104 3.00288 12.5805 3.1437 12.9485 3.42685C13.314 3.70987 13.4972 4.07781 13.4972 4.52302V7.5485C13.4972 8.04987 13.3177 8.44014 12.9585 8.72699ZM10.9907 4.3548C10.8722 4.42836 10.8123 4.52055 10.8123 4.63534V7.5111C10.8123 7.65699 10.8685 7.76918 10.9782 7.84781C11.0893 7.92891 11.2489 7.96754 11.4546 7.96754C11.6655 7.96754 11.8326 7.92644 11.9572 7.84658C12.082 7.76548 12.1444 7.65329 12.1444 7.5111V4.63534C12.1444 4.52069 12.082 4.42836 11.9548 4.3548C11.8288 4.2837 11.6616 4.24877 11.4546 4.24877C11.2651 4.24877 11.1104 4.2837 10.9907 4.3548ZM4.83245 11.7175H19.0742C21.3377 11.7175 23.1734 13.4821 23.1733 15.6559V18.9856C23.1733 21.1606 21.3375 22.9252 19.0741 22.9252H4.83245C2.5678 22.9252 0.733276 21.1606 0.733276 18.9856V15.6559C0.733276 13.4822 2.5678 11.7175 4.83245 11.7175ZM6.95122 15.0971H5.69177V20.3125H4.47341V15.0971H3.21382V14.2079H6.95136C6.95122 14.2079 6.95122 15.0971 6.95122 15.0971ZM9.39684 20.3848H10.71C10.71 20.3848 10.71 15.4575 10.7101 15.4575H9.39697V19.1975C9.27355 19.306 9.13752 19.3933 8.98917 19.4619C8.84204 19.5318 8.71739 19.5655 8.62259 19.5655C8.50026 19.5655 8.4093 19.5418 8.35191 19.4882C8.29944 19.4359 8.27204 19.3536 8.27204 19.2363V15.4589H6.95889V19.5767C6.95889 19.8699 7.03739 20.0893 7.18958 20.2352C7.34424 20.3836 7.57122 20.4571 7.87547 20.4571C8.12232 20.4571 8.3767 20.406 8.63739 20.2988C8.90177 20.1964 9.15245 20.0432 9.39684 19.8436V20.3848ZM15.6808 19.447C15.6808 19.77 15.5785 20.0156 15.3753 20.189C15.1745 20.3623 14.8778 20.4471 14.4949 20.4471C14.2393 20.4471 14.0123 20.4147 13.8152 20.3486C13.617 20.2826 13.4299 20.1803 13.2603 20.0393V20.3885H11.9496V14.2079H13.2603V16.1996C13.4374 16.0625 13.6231 15.9552 13.8164 15.8829C14.0146 15.8093 14.2142 15.7744 14.4151 15.7744C14.8253 15.7744 15.1383 15.8704 15.3541 16.0637C15.5723 16.2582 15.6808 16.5438 15.6808 16.9167V19.447ZM18.2574 18.0564H20.6767C20.6767 18.0564 20.6767 16.8505 20.6768 16.8505C20.6768 16.404 20.5222 16.0599 20.2116 15.8216C19.8999 15.5834 19.4546 15.4637 18.876 15.4637C18.3086 15.4637 17.8497 15.5922 17.4918 15.849C17.1326 16.1071 16.953 16.4438 16.953 16.8516V18.9742C16.953 19.4282 17.1177 19.7874 17.4419 20.0442C17.7674 20.3036 18.2138 20.4333 18.7812 20.4333C19.4109 20.4333 19.8849 20.3111 20.2016 20.0667C20.5234 19.8211 20.6793 19.4569 20.6793 18.973V18.7311H19.3786V18.9456C19.3786 19.2249 19.3337 19.4033 19.2514 19.4856C19.1666 19.5667 19.0219 19.6078 18.8099 19.6078C18.609 19.6078 18.4656 19.5604 18.3808 19.4644C18.2972 19.3671 18.2574 19.1951 18.2574 18.9469V18.0564ZM13.5271 16.5425L13.8027 16.4975C13.9786 16.4975 14.112 16.5375 14.2068 16.616C14.299 16.6945 14.3427 16.8105 14.3427 16.9664V19.3222C14.3427 19.4656 14.3041 19.5704 14.2305 19.634C14.1557 19.7 14.0397 19.7312 13.8801 19.7312L13.5671 19.6826C13.4672 19.6515 13.3638 19.5953 13.259 19.5218V16.681L13.5271 16.5425Z" fill="white"/></svg>