<svg width="25" height="19" viewBox="0 0 25 19" fill="none" xmlns="http://www.w3.org/2000/svg"><path d="M24.428 2.44254C23.5564 2.81912 22.6184 3.07227 21.6346 3.18706C22.6398 2.60213 23.4105 1.67802 23.7733 0.574459C22.8331 1.11692 21.7929 1.5098 20.6843 1.72049C19.7976 0.803911 18.5343 0.231445 17.1351 0.231445C14.4514 0.231445 12.274 2.34282 12.274 4.94912C12.274 5.31953 12.3165 5.67994 12.3999 6.02542C8.35936 5.82843 4.77526 3.94898 2.37841 1.09446C1.95936 1.79158 1.71991 2.6009 1.71991 3.46638C1.71991 5.10254 2.57786 6.54912 3.88238 7.3935C3.0843 7.36857 2.33594 7.15775 1.67882 6.8024V6.86227C1.67882 9.14939 3.35484 11.0562 5.57964 11.4902C5.17183 11.5975 4.74279 11.6561 4.29882 11.6561C3.9858 11.6561 3.68156 11.6275 3.38471 11.5713C4.0032 13.4469 5.79909 14.8112 7.92786 14.8487C6.26306 16.1157 4.16662 16.869 1.88827 16.869C1.49539 16.869 1.10882 16.8465 0.727173 16.803C2.88087 18.1423 5.43498 18.9242 8.18224 18.9242C17.1264 18.9242 22.0174 11.731 22.0174 5.49555L22.0037 4.88446C22.9514 4.2209 23.7758 3.39035 24.428 2.44254Z" fill="white"/></svg>