<svg width="19" height="19" viewBox="0 0 19 19" fill="none" xmlns="http://www.w3.org/2000/svg"><path fill-rule="evenodd" clip-rule="evenodd" d="M3.96512 2.84711C3.96512 3.87971 3.12704 4.7178 2.09444 4.7178C1.06184 4.7178 0.223755 3.87985 0.223755 2.84725C0.223755 1.81464 1.06184 0.976562 2.09444 0.976562C3.12704 0.976562 3.96512 1.81451 3.96512 2.84711ZM14.7998 5.53095C12.9865 5.53095 11.364 6.19314 10.2131 7.65478V5.92136H6.46307V18.4159H10.2131V11.6592C10.2131 10.2312 11.5213 8.83821 13.1599 8.83821C14.7985 8.83821 15.2027 10.2312 15.2027 11.6242V18.4146H18.939V11.3462C18.9388 6.43629 16.6143 5.53095 14.7998 5.53095ZM0.243755 18.4157H3.98006V5.96232H0.243755V18.4157Z" fill="white"/></svg>