<svg height="40" viewBox="0 0 40 40" width="40" xmlns="http://www.w3.org/2000/svg"><g fill="none" fill-rule="evenodd"><g fill="#292929" fill-rule="nonzero"><path d="m37.0703125 27.2265625h-9.4824219c0-.9692969-.7885937-1.7578125-1.7578125-1.7578125h-3.4863281c-.9692969 0-1.7578125.7885156-1.7578125 1.7578125h-1.171875c0-.3614844-.1097656-.6977344-.2975781-.9774219.8773437-.5067187 1.4694531-1.4542969 1.4694531-2.5382031v-1.495625c0-.9692969-.7885156-1.7578125-1.7578125-1.7578125h-7.0019531-4.03289065c-1.41914063 0-2.57367188 1.1545312-2.57367188 2.5736719 0 .9692968.78851563 1.7578125 1.7578125 1.7578125.61515625 0 1.1690625-.3149219 1.48539063-.8158594h2.7897656c.0867969.9732812.6514063 1.810625 1.4571094 2.2760156-.1878125.2796875-.2975781.6159375-.2975781.9774219h-9.4824219c-1.61546875 0-2.9296875 1.3142187-2.9296875 2.9296875v6.9140625c0 1.6154687 1.31421875 2.9296875 2.9296875 2.9296875h34.140625c1.6154687 0 2.9296875-1.3142188 2.9296875-2.9296875v-6.9140625c0-1.6154688-1.3142188-2.9296875-2.9296875-2.9296875zm-28.97609375-4.4253125c-.25507813 0-.48085938.165-.55828125.408125-.07773438.2439062-.3021875.4078125-.55851563.4078125-.323125 0-.5859375-.2628125-.5859375-.5859375 0-.7729688.62882813-1.4017969 1.40179688-1.4017969h3.44695315v1.171875h-3.14601565zm18.32179685 4.4253125h-1.7432031v-.5859375h1.1572656c.323125 0 .5859375.2628125.5859375.5859375zm-4.0722656-.5859375h1.1572656v.5859375h-1.7432031c0-.323125.2628125-.5859375.5859375-.5859375zm6.4160156 1.7578125v2.9296875 7.5h-15.1753906v-2.8125c.0007812-.6453125.5265625-1.1710938 1.171875-1.171875h10.4882813c.6445312.0007812 1.1702343.5265625 1.1710937 1.171875v1.0546875c0 .3234375.2632813.5859375.5859375.5859375.3234375 0 .5867188-.2625.5867188-.5859375l-.0007813-.0007813v-1.0539062c0-.6257813-.24375-1.2148438-.6859375-1.6570313-.4429688-.4429687-1.03125-.6867187-1.6570312-.6867187h-10.4882813c-.6265625 0-1.2148438.24375-1.6578125.6867187-.4421875.4421875-.6859375 1.03125-.6859375 1.6570313v2.8125h-1.1722656v-7.5-2.9296875zm-10.5175781-1.171875h-1.7432031v-.5859375h1.1572656c.323125 0 .5859375.2628125.5859375.5859375zm-5.8300781-5.5971875h6.4160156c.323125 0 .5859375.2628125.5859375.5859375v1.495625c0 .9692969-.7885156 1.7578125-1.7578125 1.7578125h-3.4863281c-.9692969 0-1.7578125-.7885156-1.7578125-1.7578125zm1.7578125 5.01125h1.1572656v.5859375h-1.7432031c0-.323125.2628125-.5859375.5859375-.5859375zm-12.9980469 10.4296875v-6.9140625c0-.9692969.78851562-1.7578125 1.7578125-1.7578125h7.1386719v10.4296875h-7.1386719c-.96929688 0-1.7578125-.7885156-1.7578125-1.7578125zm37.65625 0c0 .9692969-.7885938 1.7578125-1.7578125 1.7578125h-7.1386719v-10.4296875h7.1386719c.9692187 0 1.7578125.7885156 1.7578125 1.7578125z"/><path d="m36.5471875 29.5703125c-.0000781 0-.0002344 0-.0003125 0h-4.3339844c-.6117187 0-1.109375.4976563-1.109375 1.109375v5.8671875c0 .6117188.4976563 1.109375 1.109375 1.109375h4.3339844c.6117188 0 1.109375-.4976562 1.109375-1.109375v-5.8671875c0-.6115625-.4975-1.1092188-1.1090625-1.109375zm-.0628125 6.9140625h-4.2089844v-5.7421875h4.2089844z"/><path d="m12.9980469 33.0859375c.9692969 0 1.7578125-.7885156 1.7578125-1.7578125s-.7885156-1.7578125-1.7578125-1.7578125-1.7578125.7885156-1.7578125 1.7578125.7885156 1.7578125 1.7578125 1.7578125zm0-2.34375c.323125 0 .5859375.2628125.5859375.5859375s-.2628125.5859375-.5859375.5859375-.5859375-.2628125-.5859375-.5859375.2628125-.5859375.5859375-.5859375z"/><path d="m15.8691406 31.328125c0 .9692969.7885156 1.7578125 1.7578125 1.7578125s1.7578125-.7885156 1.7578125-1.7578125-.7885156-1.7578125-1.7578125-1.7578125-1.7578125.7885156-1.7578125 1.7578125zm2.34375 0c0 .323125-.2628125.5859375-.5859375.5859375s-.5859375-.2628125-.5859375-.5859375.2628125-.5859375.5859375-.5859375.5859375.2628125.5859375.5859375z"/><path d="m27.0019531 29.5703125c-.9692187 0-1.7578125.7885156-1.7578125 1.7578125s.7885938 1.7578125 1.7578125 1.7578125c.9692188 0 1.7578125-.7885156 1.7578125-1.7578125s-.7885937-1.7578125-1.7578125-1.7578125zm0 2.34375c-.323125 0-.5859375-.2628125-.5859375-.5859375s.2628125-.5859375.5859375-.5859375.5859375.2628125.5859375.5859375-.2628125.5859375-.5859375.5859375z"/><path d="m22.3144531 33.0859375c.9692969 0 1.7578125-.7885156 1.7578125-1.7578125s-.7885156-1.7578125-1.7578125-1.7578125c-.9692968 0-1.7578125.7885156-1.7578125 1.7578125s.7885157 1.7578125 1.7578125 1.7578125zm0-2.34375c.323125 0 .5859375.2628125.5859375.5859375s-.2628125.5859375-.5859375.5859375-.5859375-.2628125-.5859375-.5859375.2628125-.5859375.5859375-.5859375z"/><path d="m7.78710938 29.5703125h-4.33429688c-.61148438.0001563-1.1090625.4978125-1.1090625 1.109375v5.8671875c0 .6117188.49765625 1.109375 1.109375 1.109375h4.33398438c.61171875 0 1.109375-.4976562 1.109375-1.109375v-5.8671875c0-.6117188-.49765625-1.109375-1.109375-1.109375zm-.0625 6.9140625h-4.20898438v-5.7421875h4.20898438z"/><path d="m37.0703125 0c-.5219531 0-33.53929687 0-34.140625 0-1.61546875 0-2.9296875 1.31421875-2.9296875 2.9296875v6.9140625c0 1.6154687 1.31421875 2.9296875 2.9296875 2.9296875h7.1386719v.6640625c0 .9692969.7885156 1.7578125 1.7578125 1.7578125h16.3476562c.9692188 0 1.7578125-.7885156 1.7578125-1.7578125v-.6640625h7.1386719c1.6154687 0 2.9296875-1.3142188 2.9296875-2.9296875v-6.9140625c0-1.61546875-1.3142188-2.9296875-2.9296875-2.9296875zm-34.140625 11.6015625c-.96929687 0-1.7578125-.7885156-1.7578125-1.7578125v-6.9140625c0-.96929687.78851563-1.7578125 1.7578125-1.7578125h11.8261719v3.71367187c-1.97125 1.10695313-3.5617188 2.74390625-4.6146094 4.7534375-.0013281.00234375-.0025781.00476563-.0039063.00710938-.0007812.00148437-.0016406.00296875-.0024218.00445312l.0002343.00007813c-.0425.08117188-.0667968.17328125-.0667968.27125v1.6796875zm25.2441406 2.421875h-16.3476562c-.323125 0-.5859375-.2628125-.5859375-.5859375v-2.9296875h.9765625c.3235937 0 .5859375-.2623437.5859375-.5859375 0-.32359375-.2623438-.5859375-.5859375-.5859375h-.5407032c.955-1.47296875 2.2573438-2.675625 3.8152344-3.515625h1.4129688c.3235937 0 .5859375-.26234375.5859375-.5859375s-.2623438-.5859375-.5859375-.5859375h-.9765625v-3.4765625h8.1445312v3.4765625h-4.8242187c-.3235938 0-.5859375.26234375-.5859375.5859375s.2623437.5859375.5859375.5859375h5.260625c1.5579687.84 2.8603125 2.04265625 3.8152344 3.515625h-13.7633594c-.3235938 0-.5859375.26234375-.5859375.5859375 0 .3235938.2623437.5859375.5859375.5859375h14.1992187v2.9296875c0 .323125-.2628125.5859375-.5859375.5859375zm10.6542969-4.1796875c0 .9692969-.7885937 1.7578125-1.7578125 1.7578125h-7.1386719v-1.6796875c0-.09796875-.024375-.19007812-.0667969-.27125l.0002344-.00007813c-.0007812-.00148437-.0015625-.00289062-.0023437-.00429687-.0013281-.0025-.0026563-.00492188-.0040625-.00742188-1.0528125-2.00945312-2.6432032-3.64640624-4.6145313-4.75328125v-3.71367187h11.8261719c.9692188 0 1.7578125.78851563 1.7578125 1.7578125z"/><path d="m7.78726562 2.34375h-4.33429687c-.61164063 0-1.10921875.49757813-1.10921875 1.10921875v5.8675c0 .61164062.49757812 1.10921875 1.10921875 1.10921875h4.33429687c.61164063 0 1.10921876-.49757813 1.10921876-1.10921875v-5.8675c0-.61164063-.49757813-1.10921875-1.10921876-1.10921875zm-.06265624 6.9140625h-4.20898438v-5.7421875h4.20898438z"/><path d="m36.5470312 2.34375h-4.3342968c-.6116407 0-1.1092188.49757813-1.1092188 1.10921875v5.8675c0 .61164062.4975781 1.10921875 1.1092188 1.10921875h4.3342968c.6116407 0 1.1092188-.49757813 1.1092188-1.10921875v-5.8675c0-.61164063-.4975781-1.10921875-1.1092188-1.10921875zm-.0626562 6.9140625h-4.2089844v-5.7421875h4.2089844z"/></g><g stroke="#292929" transform="translate(31.5 21.307929)"><path d="m.5 6.1920713v-3.15664459-1.46876496c0-.55228475.44771525-1 1-1h.49732134c.55228475 0 1 .44771525 1 1v.46876496" stroke-linecap="round" transform="matrix(-1 0 0 1 3.497322 0)"/><circle cx="2" cy="5.792071" r="1"/><circle cx="4" cy="5.792071" r="1"/></g></g></svg>