<svg fill="none" height="43" viewBox="0 0 44 43" width="44" xmlns="http://www.w3.org/2000/svg"><path clip-rule="evenodd" d="m22.3065 1.50039c7.3036-.04805 14.592 4.3699 20.2766 13.38671.1472.2336.456.3036.6896.1563.2336-.1472.3036-.456.1563-.6896-5.806-9.20929-13.3761-13.904399-21.1291-13.853389-7.3709.048496-14.75507 4.386159-20.79386 12.899589v-5.91137c0-.27614-.22386-.5-.5-.5-.276143 0-.500001.22386-.500001.5v8.02807h7.235851c.27614 0 .5-.2239.5-.5s-.22386-.5-.5-.5h-5.79619c5.98708-8.70136 13.2605-12.96959 20.3608-13.01631z" fill="#fff" fill-rule="evenodd"/><rect height="24.3585" rx="4.5" stroke="#fff" transform="matrix(.70710678 -.70710678 .70710678 .70710678 -16.120194 10.065809)" width="24.3585" x="4.09041" y="24.4917"/></svg>