<svg height="18" viewBox="0 0 17 18" width="17" xmlns="http://www.w3.org/2000/svg"><g fill="none" fill-rule="evenodd" transform="translate(1)"><path d="m10.781574 3h.718426c1.6568542 0 3 1.34314575 3 3v8c0 1.6568542-1.3431458 3-3 3h-8c-1.65685425 0-3-1.3431458-3-3v-8c0-1.65685425 1.34314575-3 3-3h.91841543" stroke="#222" stroke-width="1.1"/><path d="m4.3156137 3.75847499v-1.55847498c0-.16568543.13431458-.30000001.30000001-.30000001h1.21831855c.14213458.00009466.26477478-.09961695.29377976-.23876059.15749446-.75553761.61492379-1.13330641 1.37228798-1.13330641.76116717 0 1.2370015.38157213 1.42750299 1.1447164.03334232.13360617.15336454.2273506.29106828.2273506h1.29797193c.1656854 0 .3.13431458.3.30000001v1.55847498c0 .16568543-.1343146.30000001-.3.30000001h-5.90092949c-.16568543 0-.30000001-.13431458-.30000001-.30000001z" stroke="#222" stroke-width="1.1"/><g fill="#222" fill-rule="nonzero"><path d="m7.3175 6.68375c-.24375-.24375-.64-.245-.885-.00125l-2.0575 2.05875-.8075-.80875c-.24375-.24375-.64-.24375-.88375 0s-.24375.64 0 .88375l1.25 1.25c.12125.1225.28125.18375.44125.18375s.32-.06125.4425-.1825l2.5-2.5c.24375-.24375.24375-.64 0-.88375z"/><path d="m7.3175 11.3837497c-.24375-.24375-.64-.245-.885-.00125l-2.0575 2.05875-.8075-.8075c-.24375-.24375-.64-.24375-.88375 0s-.24375.64 0 .88375l1.25 1.25c.12125.12125.28125.1825.44125.1825s.32-.06125.4425-.1825l2.5-2.5c.24375-.24375.24375-.64 0-.88375z"/><path d="m11.875 7.75h-2.5c-.345 0-.625.28-.625.625s.28.625.625.625h2.5c.345 0 .625-.28.625-.625s-.28-.625-.625-.625z"/><path d="m11.875 12.45h-2.5c-.345 0-.625.28-.625.625s.28.625.625.625h2.5c.345 0 .625-.28.625-.625s-.28-.625-.625-.625z"/></g></g></svg>