<svg height="16" viewBox="0 0 17 16" width="17" xmlns="http://www.w3.org/2000/svg"><path d="m12.6 0c1.4359403 0 2.6 1.16405965 2.6 2.6h-1.2c0-.77319865-.6268014-1.4-1.4-1.4h-10c-.77319865 0-1.4.62680135-1.4 1.4v10c0 .7731986.62680135 1.4 1.4 1.4h10c.7731986 0 1.4-.6268014 1.4-1.4h1.2c0 1.4359403-1.1640597 2.6-2.6 2.6h-10c-1.43594035 0-2.6-1.1640597-2.6-2.6v-10c0-1.43594035 1.16405965-2.6 2.6-2.6zm3.4 10.1c.3313708 0 .6.2686292.6.6s-.2686292.6-.6.6h-3.8c-.3313708 0-.6-.2686292-.6-.6s.2686292-.6.6-.6zm-9.40718854-5.98614906.9888499 1.5772884 1.73722801.49647284c.19149803.05477581.34268033.20559354.40300832.4000715.05984031.19290583.02285137.40448255-.09896296.56364134l-1.12926742 1.47393869.08615937 1.88799809c.00927334.2029545-.0800388.397666-.23883156.5186004-.16093236.1225639-.37151902.1520367-.55820241.0778134l-1.68278931-.6665854-1.68254692.6665713c-.06737772.0267095-.13865404.0403596-.21015379.0403596-.12486091 0-.24691058-.0411952-.34808419-.1181589-.15879276-.1209344-.2481049-.3156459-.23883194-.5185919l.08615941-1.88799907-1.12952628-1.47400574c-.12177849-.15911199-.1587386-.37044357-.09891738-.56358181.06032799-.19447796.21151029-.34529569.40304673-.40008247l1.73739686-.49646193.98858237-1.57719214c.22026444-.35192952.76547902-.35192952.98568319-.0000962zm-.49279322 1.4481021-.61715146.98454468c-.06240855.09965454-.15136621.1777841-.25561525.22544849l-.08087801.02989639-1.09717789.31353176.71509781.93303789c.06622909.0864313.10804996.18937098.12197949.2972801l.0045034.10913824-.05415408 1.18680426 1.05301999-.41713207c.06729342-.02679009.13842874-.04037679.21035776-.04037679.04795268 0 .0955526.00603853.1418299.01797553l.06830274.02231185 1.05345937.41742167-.05416542-1.18724298c-.00484453-.11001512.01914044-.21876707.06862727-.31480342l.05786421-.09137364.71492018-.93304085-1.09711671-.31356548c-.11109627-.03184591-.20979147-.09641374-.28474461-.18470994l-.05158602-.07053069zm9.89998176 1.43804696c.3313708 0 .6.26862915.6.6s-.2686292.6-.6.6h-3.8c-.3313708 0-.6-.26862915-.6-.6s.2686292-.6.6-.6zm0-3.1c.3313708 0 .6.26862915.6.6s-.2686292.6-.6.6h-3.8c-.3313708 0-.6-.26862915-.6-.6s.2686292-.6.6-.6z" fill="#222" transform="translate(.4)"/></svg>