<?xml version="1.0" encoding="UTF-8"?>
<svg width="17px" height="16px" viewBox="0 0 17 16" version="1.1" xmlns="http://www.w3.org/2000/svg" xmlns:xlink="http://www.w3.org/1999/xlink">
    <!-- Generator: Sketch 55.2 (78181) - https://sketchapp.com -->
    <title>Path</title>
    <desc>Created with Sketch.</desc>
    <g id="Page-1" stroke="none" stroke-width="1" fill="none" fill-rule="evenodd">
        <g id="view_acc" transform="translate(-167.000000, -369.000000)" fill="#222222">
            <g id="Group-4" transform="translate(166.000000, 297.000000)">
                <path d="M7.6,76.3 L17.4,76.3 C17.7313708,76.3 18,76.5686292 18,76.9 C18,77.2313708 17.7313708,77.5 17.4,77.5 L7.6,77.5 C7.26862915,77.5 7,77.2313708 7,76.9 C7,76.5686292 7.26862915,76.3 7.6,76.3 Z M7.6,79.4 L17.4,79.4 C17.7313708,79.4 18,79.6686292 18,80 C18,80.3313708 17.7313708,80.6 17.4,80.6 L7.6,80.6 C7.26862915,80.6 7,80.3313708 7,80 C7,79.6686292 7.26862915,79.4 7.6,79.4 Z M7.6,82.5 L17.4,82.5 C17.7313708,82.5 18,82.7686292 18,83.1 C18,83.4313708 17.7313708,83.7 17.4,83.7 L7.6,83.7 C7.26862915,83.7 7,83.4313708 7,83.1 C7,82.7686292 7.26862915,82.5 7.6,82.5 Z M15.4,85 L16.6,85 C16.6,86.4359403 15.4359403,87.6 14,87.6 L4,87.6 C2.56405965,87.6 1.4,86.4359403 1.4,85 L1.4,75 C1.4,73.5640597 2.56405965,72.4 4,72.4 L14,72.4 C15.4359403,72.4 16.6,73.5640597 16.6,75 L15.4,75 C15.4,74.2268014 14.7731986,73.6 14,73.6 L4,73.6 C3.22680135,73.6 2.6,74.2268014 2.6,75 L2.6,85 C2.6,85.7731986 3.22680135,86.4 4,86.4 L14,86.4 C14.7731986,86.4 15.4,85.7731986 15.4,85 Z" id="Combined-Shape"></path>
            </g>
        </g>
    </g>
</svg>