<?xml version="1.0" encoding="UTF-8"?>
<svg width="202px" height="22px" viewBox="0 0 202 22" version="1.1" xmlns="http://www.w3.org/2000/svg" xmlns:xlink="http://www.w3.org/1999/xlink">
    <g id="Logo-1" stroke="none" stroke-width="1" fill="none" fill-rule="evenodd">
        <g id="Logo-1home-copy" transform="translate(-144.000000, -42.000000)" fill="#FFFFFF" fill-rule="nonzero">
            <g id="Logo-1top">
                <g id="Logo-1logo" transform="translate(144.000000, 42.000000)">
                    <path d="M71.4,20.32 C76.737,20.22 80.21,16.39 80.309,10.585 C80.409,4.719 76.731,0.231 71.429,0.113 C64.96,-0.03 58.485,-0.007 52.015,0.105 C46.497,0.205 42.936,4.311 42.9219489,10.312 C42.907,16.579 46.197,20.236 51.986,20.321 C55.138,20.368 58.291,20.33 61.444,20.331 C64.76,20.33 68.082,20.382 71.4,20.32 Z M52.939,15.089 C49.858,15.162 48.326,13.682 48.148,10.657 C47.956,7.383 49.518,5.529 52.748,5.468 C58.74,5.354 64.739,5.323 70.729,5.484 C73.721,5.565 75.168,7.524 75.054,10.475 C74.942,13.384 73.577,15.132 70.418,15.083 C67.418,15.037 64.424,15.073 61.427,15.074 C58.6,15.075 55.768,15.023 52.939,15.089 L52.939,15.089 Z" id="Logo-1Path_1"></path>
                    <path d="M160.74,3.058 C160.86,1.11 159.462,0.099 157.524,0.097 C149.198,0.089 140.862,-0.133 132.549,0.214 C127.595,0.422 123.66,5.707 124.175,10.87 C124.654,15.682 127.637,20.881 133.575,20.382 C137.213,20.076 140.898,20.325 144.561,20.326 C148.561,20.326 152.558,20.326 156.552,20.326 C158.37,20.326 160.694,20.588 160.721,18.049 C160.749,15.44 158.548,15.184 156.387,15.199 C149.393,15.244 142.397,15.123 135.405,15.255 C131.929,15.321 129.332,14.413 129.277,10.516 C129.22,6.477 131.722,5.151 135.501,5.216 C142.66,5.33 149.822,5.232 156.983,5.26 C158.725,5.26 160.604,5.273 160.74,3.058 Z" id="Logo-1Path_2"></path>
                    <path d="M36.66,0.346 C34.945,-0.33 33.902,1.14 32.819,2.066 C28.697,5.589 24.388,8.336 18.566,8.074 C13.166,7.831 9.271,4.909 5.425,1.721 C2.964,-0.319 0.606,-0.817 0.237,3.086 C-0.215,7.865 0.119,12.718 0.129,17.539 C0.0359806326,18.3009198 0.308417865,19.0619955 0.863827754,19.5918014 C1.41923764,20.1216073 2.19231481,20.3578485 2.949,20.229 C4.602,20.169 5.196,19.039 5.199,17.521 C5.205,14.64 5.199,11.759 5.199,8.369 C14.68,14.82 23.605,14.986 33.199,8.43 C33.199,11.491 33.174,13.979 33.207,16.465 C33.234,18.399 33.502,20.292 36.065,20.22 C38.5,20.152 38.33,18.247 38.337,16.58 C38.354,12.59 38.337,8.6 38.337,4.61 C38.345,2.958 38.606,1.114 36.66,0.346 Z" id="Logo-1Path_3"></path>
                    <path d="M119.986049,17.952 C119.999,14.992 117.415,15.052 115.178,15.063 C109.687,15.088 104.195,15.071 98.703,15.071 C89.476,15.071 89.478,15.071 89.448,6.054 C89.4812764,4.89046168 89.4559109,3.72598566 89.372,2.565 C89.3903292,1.88805599 89.1209828,1.23504107 88.6307428,0.76786451 C88.1405029,0.300687948 87.4752763,0.063096913 86.8,0.114 C85.5671725,0.0147505779 84.4708077,0.894035178 84.3,2.119 C84.191,6.906 83.405,11.762 84.746,16.463 C85.507,19.129 87.624,20.385 90.46,20.363 C94.787,20.33 99.114,20.355 103.44,20.355 L103.44,20.33 C107.434,20.33 111.428,20.354 115.422,20.32 C117.34,20.301 119.974,20.83 119.986049,17.952 Z" id="Logo-1Path_4"></path>
                    <path d="M194.142,3.91 C186.32,9.572 180.613,9.71 172.93,3.748 C171.751,2.833 170.615,1.861 169.455,0.92 C168.999945,0.421535103 168.345157,0.153680037 167.671212,0.190303253 C166.997267,0.226926469 166.375361,0.564159133 165.977,1.109 C165.435144,1.52717599 165.12502,2.17855312 165.142007,2.86279774 C165.158995,3.54704237 165.50106,4.18222772 166.063,4.573 C171.024,9.012 175.933,13.612 183.699,13.191 C188.699,13.737 193.099,11.463 196.842,8.013 C198.762,6.242 203.664,5.101 201.126,1.572 C198.185,-2.518 196.085,2.504 194.142,3.91 Z" id="Logo-1Path_5"></path>
                    <path d="M145.312,7.87 C141.825,7.87 138.339,7.888 134.853,7.857 C133.178,7.842 131.799,8.195 131.832,10.219 C131.86,11.93 132.703,13.078 134.555,13.084 C141.693,13.109 148.832,13.125 155.97,13.084 C157.901,13.074 159.208,12.075 159.062,10.037 C158.923,8.098 157.371,7.86 155.771,7.866 C152.284,7.884 148.798,7.874 145.312,7.87 Z" id="Logo-1Path_6"></path>
                    <path d="M19.113,14.73 C17.489,14.875 16.158,15.697 16.113,17.674 C15.9967683,18.5849222 16.2941468,19.5000743 16.9236432,20.1686723 C17.5531397,20.8372703 18.4487334,21.1891926 19.365,21.128 C21.682,21.215 22.554,19.628 22.528,17.669 C22.501,15.771 21.248,14.774 19.113,14.73 Z" id="Logo-1Path_7"></path>
                    <path d="M183.88,14.758 C181.726,14.61 180.329,15.643 180.194,17.741 C180.122939,18.5731789 180.390678,19.3988247 180.936577,20.0309373 C181.482475,20.66305 182.260342,21.0481441 183.094,21.099 C185.358,21.44 186.288,19.936 186.929,17.81 C186.473,16.397 185.933,14.899 183.88,14.758 Z" id="Logo-1Path_8"></path>
                </g>
            </g>
        </g>
    </g>
</svg>