<svg height="26" viewBox="0 0 26 26" width="26" xmlns="http://www.w3.org/2000/svg"><g fill="none"><rect height="25" rx="6" stroke="#dbdbdb" width="25" x=".5" y=".5"/><path d="m13.9006767 2.18162818c-1.5378184-1.39181926-3.5790206-2.15824044-5.74781046-2.15824044-2.16878981 0-4.20999205.76642118-5.74781049 2.15824044-1.55095542 1.40376193-2.40505575 3.27398486-2.40505575 5.26632165 0 1.49243631.48059315 2.92336787 1.39191878 4.15137347l-.70043789 4.3799761 4.43103106-1.6368432c.96377388.3518113 1.98228502.5301553 3.03035429.5301553 2.16878986 0 4.20999206-.7665207 5.74781046-2.15834 1.5509555-1.4037619 2.4050558-3.27398488 2.4050558-5.26632167s-.8541003-3.86255972-2.4050558-5.26632165zm-5.03324039 7.39868632-1.8022492-1.41003185-4.31090765 1.70611067 4.93262342-4.90605095 1.82404458 1.45650874 3.94585984-1.52985669z" fill="#292929" transform="translate(5 5)"/></g></svg>