<svg height="26" viewBox="0 0 26 26" width="26" xmlns="http://www.w3.org/2000/svg"><g fill="none"><rect height="25" rx="6" stroke="#dbdbdb" width="25" x=".5" y=".5"/><path d="m14.3521595 16.6717004c-1.0355094 0-2.0295983-.5384649-2.3609613-1.1597705 0 0-.5591751 2.1538595-.6834362 2.5680632-.4142037 1.4704233-1.65681494 2.9408465-1.73965569 3.0651076-.06213056.0828408-.20710187.0621306-.22781205-.0621305-.02071019-.1863917-.33136299-2.0503085.02071018-3.5621521.18639169-.766277 1.24261126-5.094706 1.24261126-5.094706s-.3106528-.6005954-.3106528-1.4704233c0-1.38758249.8284074-2.42309183 1.8639168-2.42309183.8698278 0 1.3047417.64201579 1.3047417 1.40829271 0 .84911762-.559175 2.13314922-.8491176 3.31362992-.2485223.9940889.5177546 1.8017862 1.5325538 1.8017862 1.8224964 0 3.0651077-2.2781205 3.0651077-4.9704448 0-2.05030851-1.4290029-3.58286234-4.0177763-3.58286234-2.9201363 0-4.76334296 2.11243906-4.76334296 4.47340034 0 .8076973.24852224 1.3875825.64201579 1.8432066.18639168.2071019.20710187.2899427.14497131.5177547-.04142038.1656815-.14497131.5798852-.20710187.7455667-.06213056.2278121-.26923243.331363-.4763343.2278121-1.34616214-.5384649-1.96746775-1.9674678-1.96746775-3.5828623 0-2.65090394 2.31954093-5.84027271 6.89649218-5.84027271 3.6864133 0 6.1095051 2.58877335 6.1095051 5.36393841-.0207101 3.6864132-2.112439 6.4201579-5.218967 6.4201579z" fill="#292929"/></g></svg>