<svg fill="none" height="48" viewBox="0 0 44 48" width="44" xmlns="http://www.w3.org/2000/svg"><path clip-rule="evenodd" d="m5.81893.156216c.18987-.2005117.50634-.2091412.70685-.019274.20051.189867.20914.506332.01927.706844l-4.38916 4.635234h19.85021c11.598 0 21 9.40198 21 20.99998s-9.402 21-21 21c-11.4324 0-20.73105-9.1354-20.99425-20.5046-.00631-.2727.2154-.4954.48817-.4954.27951 0 .50546.2281.51242.5076.26929 10.8111 9.11766 19.4924 19.99366 19.4924 11.0457 0 20-8.9543 20-20s-8.9543-19.99998-20-19.99998h-19.73149l3.96611 3.75558c.20052.1898.20915.5063.01928.7068s-.50633.2092-.70685.0193l-4.891019-4.63136-.363059-.34379.343785-.36306zm21.70767 20.272984c-.2005-.1899-.5169-.1812-.7068.0193l-4.8228 5.0932-5.1029-5.103c-.1953-.1952-.5119-.1952-.7071 0-.1953.1953-.1953.5119 0 .7071l5.1179 5.118-5.1231 5.2778c-.1923.1981-.1876.5147.0105.707.1982.1923.5147.1876.707-.0105l5.0976-5.2515 4.8177 5.2417c.1869.2033.5032.2166.7065.0297.2033-.1868.2167-.5032.0298-.7065l-4.8603-5.2879 4.8553-5.1275c.1899-.2006.1813-.517-.0193-.7069z" fill="#fff" fill-rule="evenodd"/></svg>