<svg fill="none" height="43" viewBox="0 0 44 43" width="44" xmlns="http://www.w3.org/2000/svg"><path clip-rule="evenodd" d="m21.7056 1.50039c-7.3036-.04805-14.59198 4.3699-20.27659 13.38671-.14727.2336-.456022.3036-.689617.1563-.233595-.1472-.303576-.456-.156308-.6896 5.805955-9.20929 13.376115-13.904399 21.129115-13.853389 7.3709.048496 14.7551 4.386159 20.7938 12.899589v-5.91137c0-.27614.2239-.5.5-.5.2762 0 .5.22386.5.5v8.02807h-7.2358c-.2761 0-.5-.2239-.5-.5s.2239-.5.5-.5h5.7962c-5.9871-8.70136-13.2605-12.96959-20.3608-13.01631z" fill="#fff" fill-rule="evenodd"/><rect height="24.3585" rx="4.5" stroke="#fff" transform="matrix(.70710678 -.70710678 .70710678 .70710678 -16.120017 10.065836)" width="24.3585" x="4.09053" y="24.4915"/></svg>