<svg height="26" viewBox="0 0 26 26" width="26" xmlns="http://www.w3.org/2000/svg"><g fill="none"><rect height="25" rx="6" stroke="#dbdbdb" width="25" x=".5" y=".5"/><path d="m15.8502439 15.728532c-.7002512 0-1.2712084-.5711956-1.2712084-1.2719603 0-.7006653.5709572-1.2719603 1.2712084-1.2719603.7003504 0 1.2713077.571295 1.2713077 1.2719603 0 .7007647-.5709573 1.2719603-1.2713077 1.2719603m.2245527 2.0875003c-.8686409.8666725-2.530311.935081-3.0182145.935081-.4880028 0-2.1520544-.0684085-3.0183139-.935081-.12919465-.1293704-.12919465-.3368794 0-.4663491.1293932-.1293704.3367795-.1293704.4661727 0 .5464479.5469698 1.7152532.7422665 2.5521412.7422665.8345065 0 2.005594-.1952967 2.5522404-.7422665.1291947-.1293704.336581-.1293704.4659741 0 .1269125.1294697.1269125.3369787 0 .4663491m-7.08814547-3.3593613c0-.7006654.57095726-1.2719603 1.27130767-1.2719603.7002512 0 1.2712084.5712949 1.2712084 1.2719603s-.5709572 1.2720596-1.2712084 1.2720596c-.70035041-.0001986-1.27130767-.5713942-1.27130767-1.2720596m12.19986997-1.2719603c0-.98393-.7954107-1.7798112-1.7787591-1.7798112-.4806598 0-.9150795.1903324-1.2345933.5005037-1.2151447-.8788848-2.8913021-1.4453147-4.7579771-1.511241l.8100965-3.81598027 2.6474.56404703c.0317529.67385799.583063 1.21099838 1.2639648 1.21099838.7026326 0 1.2712084-.56891209 1.2712084-1.27205961 0-.70304826-.5685758-1.27196033-1.2712084-1.27196033-.500307 0-.9272846.29051254-1.1346709.71039546l-2.9572887-.62987404c-.0829545-.01707729-.1682905-.00228359-.2391392.04398396-.0706502.04636681-.1195696.11715814-.1365375.20016174 0 0-.8881888 4.23348028-.8881888 4.25790478-1.9007102.0487497-3.60871976.6176618-4.84331309 1.5087588-.31961303-.3075898-.75155201-.4956386-1.22973117-.4956386-.98334835 0-1.77875908.7982641-1.77875908 1.7798112 0 .7226077.43183976 1.3452338 1.05161714 1.6234348-.02679154.1759358-.04147727.3564388-.04147727.5396225 0 2.7392174 3.18660431 4.9585702 7.11741777 4.9585702 3.9307142 0 7.1173185-2.2193528 7.1173185-4.9585702 0-.1807015-.0145865-.358921-.0413781-.5346582.6172967-.2783003 1.0539986-.9008271 1.0539986-1.6283991" fill="#292929"/></g></svg>