<svg height="40" viewBox="0 0 29 40" width="29" xmlns="http://www.w3.org/2000/svg"><path d="m27.7419355 15.483871c.3569178 0 .6451613-.2882435.6451613-.6451613v-6.45161293c0-1.0669733-.8685106-1.93548387-1.9354839-1.93548387s-1.9354839.86851057-1.9354839 1.93548387v6.45161293c0 .3569178.2882435.6451613.6451613.6451613h.6451613v3.8709677h-3.8709677v-3.8709677h.6451613c.3569178 0 .6451613-.2882435.6451613-.6451613v-10.32258067c0-1.0669733-.8685106-1.93548387-1.9354839-1.93548387s-1.9354839.86851057-1.9354839 1.93548387v10.32258067c0 .3569178.2882435.6451613.6451613.6451613h.6451613v3.8709677h-3.8709678v-3.8709677h.6451613c.3569179 0 .6451613-.2882435.6451613-.6451613v-12.90322583c0-1.0669733-.8685105-1.93548387-1.9354838-1.93548387s-1.9354839.86851057-1.9354839 1.93548387v12.90322583c0 .3569178.2882435.6451613.6451613.6451613h.6451613v3.8709677h-3.8709678v-3.8709677h.6451613c.3569178 0 .6451613-.2882435.6451613-.6451613v-10.32258067c0-1.0669733-.8685106-1.93548387-1.9354839-1.93548387-1.06697327 0-1.93548384.86851057-1.93548384 1.93548387v10.32258067c0 .3569178.28824347.6451613.64516129.6451613h.64516125v3.8709677h-.64516125c-.35691782 0-.64516129.2882435-.64516129.6451613v5.5393145l-1.29032258-1.2903226v-1.6683467c0-.171686-.06772935-.3354965-.18901209-.4561492l-4.11542339-4.1154234c-.37487403-.3748741-.89371218-.5897178-1.42389113-.5897178-1.11044605 0-2.01360887.9031629-2.01360887 2.0136089v.6451613c0 .530179.21484371 1.0490171.58971774 1.4238911l6.05090726 6.0509073c.1231729.1231729.28855847.1890121.45614919.1890121.08316533 0 .16696065-.015436.24697581-.0491432.24130548-.0992313.39818548-.3354964.39818548-.5960181v-1.0231855l1.29032258 1.2903226v2.9586693c0 1.7786039 1.44720254 3.2258065 3.22580644 3.2258065v5.8064516c0 .3569178.2882435.6451613.6451613.6451613h11.6129032c.3569179 0 .6451613-.2882435.6451613-.6451613v-5.8064516c1.7786039 0 3.2258065-1.4472026 3.2258065-3.2258065v-10.3225806c0-.3569178-.2882435-.6451613-.6451613-.6451613h-.6451613v-3.8709677zm-7.0967742-1.2903226v-1.2903226h1.2903226v1.2903226zm.6451613-10.32258066c.3559727 0 .6451613.28918855.6451613.64516129v7.09677417h-1.2903226v-7.09677417c0-.35597274.2891885-.64516129.6451613-.64516129zm-5.8064516 10.32258066v-1.2903226h1.2903225v1.2903226zm.6451613-12.90322582c.3559727 0 .6451612.28918855.6451612.64516129v9.67741933h-1.2903225v-9.67741933c0-.35597274.2891885-.64516129.6451613-.64516129zm-5.8064517 12.90322582v-1.2903226h1.2903226v1.2903226zm.6451613-10.32258066c.3559728 0 .6451613.28918855.6451613.64516129v7.09677417h-1.2903226v-7.09677417c0-.35597274.2891886-.64516129.6451613-.64516129zm-4.516129 21.66834676-4.94959677-4.9495968c-.13482863-.1348286-.21169355-.3213205-.21169355-.5115927v-.6451613c0-.3988155.32447081-.7232863.72328629-.7232863.19027218 0 .37676411.0768649.51159274.2116936l3.92641129 3.9264113zm17.4193548 13.1703629h-10.3225806v-5.1612903h1.9354839v3.8709677h1.2903225v-3.8709677h1.2903226v3.8709677h1.2903226v-3.8709677h1.2903226v3.8709677h1.2903226v-3.8709677h1.9354838zm3.2258065-8.3870968c0 1.0669734-.8685106 1.9354839-1.9354839 1.9354839h-3.2258064v-.3780242l2.391633-2.391633c.1212828-.1206528.1890121-.2844633.1890121-.4561492v-3.3445691c.7491179-.2671371 1.2903226-.9768775 1.2903226-1.8167213 0-1.0669733-.8685106-1.9354838-1.9354839-1.9354838s-1.9354838.8685105-1.9354838 1.9354838c0 .8398438.5412046 1.5495842 1.2903226 1.8167213v3.077432l-2.3916331 2.391633c-.1212828.1206528-.1890121.2844633-.1890121.4561492v.6451613h-1.2903226v-3.9897303c.7491179-.2671371 1.2903226-.9768776 1.2903226-1.8167213 0-1.0669733-.8685106-1.9354839-1.9354839-1.9354839s-1.9354839.8685106-1.9354839 1.9354839c0 .8398437.5412047 1.5495842 1.2903226 1.8167213v3.9897303h-1.2903226v-.6451613c0-.1716859-.0677293-.3354964-.189012-.4561492l-2.3916331-2.391633v-3.077432c.7491179-.2671371 1.2903226-.9768775 1.2903226-1.8167213 0-1.0669733-.8685106-1.9354838-1.9354839-1.9354838s-1.9354839.8685105-1.9354839 1.9354838c0 .8398438.5412047 1.5495842 1.2903226 1.8167213v3.3445691c0 .1716859.0677294.3354964.1890121.4561492l2.3916331 2.391633v.3780242h-3.2258065c-1.0669733 0-1.9354839-.8685105-1.9354839-1.9354839v-9.6774193h16.7741936zm-3.8709677-6.4516129c0-.3559727.2891885-.6451612.6451612-.6451612.3559728 0 .6451613.2891885.6451613.6451612 0 .3559728-.2891885.6451613-.6451613.6451613-.3559727 0-.6451612-.2891885-.6451612-.6451613zm-5.1612904 2.5806452c0-.3559727.2891886-.6451613.6451613-.6451613.3559728 0 .6451613.2891886.6451613.6451613s-.2891885.6451613-.6451613.6451613c-.3559727 0-.6451613-.2891886-.6451613-.6451613zm-5.1612903-2.5806452c0-.3559727.2891886-.6451612.6451613-.6451612s.6451613.2891885.6451613.6451612c0 .3559728-.2891886.6451613-.6451613.6451613s-.6451613-.2891885-.6451613-.6451613zm12.9032258-9.6774193v-1.2903226h1.2903226v1.2903226zm.6451613-6.45161292c.3559727 0 .6451613.28918855.6451613.64516129v3.22580643h-1.2903226v-3.22580643c0-.35597274.2891886-.64516129.6451613-.64516129z" fill="#292929"/></svg>