<?xml version="1.0" encoding="UTF-8"?>
<svg width="11px" height="18px" viewBox="0 0 11 18" version="1.1" xmlns="http://www.w3.org/2000/svg" xmlns:xlink="http://www.w3.org/1999/xlink">
    <!-- Generator: Sketch 55.2 (78181) - https://sketchapp.com -->
    <title>scroll arrow</title>
    <desc>Created with Sketch.</desc>
    <g id="Page-1" stroke="none" stroke-width="1" fill="none" fill-rule="evenodd">
        <g id="home-copy" transform="translate(-58.000000, -912.000000)" fill-rule="nonzero">
            <g id="left" transform="translate(53.000000, 41.000000)">
                <g id="scroll-arrow" transform="translate(5.000000, 871.000000)">
                    <path d="M5.57675717,0 L5.42463842,0 C2.43008168,0.00221213815 0.00307763086,1.99603494 0,4.45642757 L0,13.5435724 C0.00346148739,16.0038342 2.43024089,17.9974725 5.42463842,18 L5.57675717,18 C8.5707689,17.997156 10.9969237,16.0035179 11,13.5435724 L11,4.45642757 C10.9973076,1.99635127 8.57092816,0.00252864787 5.57675717,0 L5.57675717,0 Z M10.1821873,13.5429991 C10.1821873,14.5465575 9.6969737,15.5090127 8.83328802,16.2186357 C7.96960234,16.9282586 6.79819317,17.3269206 5.57675717,17.3269206 L5.42463842,17.3269206 C2.88208634,17.3250241 0.821516588,15.6320152 0.819208323,13.5429991 L0.819208323,4.45585425 C0.821516588,2.36683817 2.88208634,0.673829251 5.42463842,0.67193273 L5.57675717,0.67193273 C6.79819317,0.67193273 7.96960234,1.07059475 8.83328802,1.78021768 C9.6969737,2.48984062 10.1821873,3.45229587 10.1821873,4.45585425 L10.1821873,13.5429991 Z" id="Path_415" fill="#B1B1B1"></path>
                    <path d="M6.39998023,13.0804325 L5.36741397,13.9289576 L5.36741397,6.33434506 C5.36741397,6.14969138 5.20438954,6 5.00328872,6 C4.80218789,6 4.63916346,6.14969138 4.63916346,6.33434506 L4.63916346,13.9283885 L3.60721699,13.0804325 C3.4569476,12.9573825 3.22649354,12.9694852 3.0924834,13.1074647 C2.95847325,13.2454442 2.97165392,13.4570505 3.12192325,13.5801005 L4.72593374,14.8975624 C4.75683985,14.9221583 4.79232204,14.9414365 4.83067785,14.9544722 C4.88271015,14.9829067 4.94182847,14.9985842 5.00235904,15 C5.10353918,14.9903092 5.19962825,14.9543854 5.27940413,14.8964242 L6.88341462,13.5789623 C7.02886082,13.4550701 7.03965714,13.2471099 6.90770509,13.1110758 C6.77575304,12.9750416 6.54953513,12.9609158 6.39874066,13.0792943 L6.39998023,13.0804325 Z" id="Path_416" fill="#FFFFFF"></path>
                </g>
            </g>
        </g>
    </g>
</svg>