<svg height="25" viewBox="0 0 26 25" width="26" xmlns="http://www.w3.org/2000/svg"><g fill="none" fill-rule="evenodd"><circle cx="13" cy="13.5" r="3.5" stroke="#fff"/><path d="m6.129648 5.5-2.656792-2.656792" stroke="#fff" stroke-linecap="round"/><path d="m22.656792 5.5-2.656792-2.656792" stroke="#fff" stroke-linecap="round" transform="matrix(-1 0 0 1 42.656792 0)"/><g fill="#fff" fill-rule="nonzero"><path d="m13 .085416c.2454599 0 .4496084.17687516.4919443.41012437l.0080557.08987563v3.914135c0 .27614237-.2238576.5-.5.5-.2454599 0-.4496084-.17687516-.4919443-.41012437l-.0080557-.08987563v-3.914135c0-.27614237.2238576-.5.5-.5z"/><path d="m3.11930299 2.48965458c.17356635-.17356635.44299075-.1928515.63785889-.05785545l.06924789.05785545 2.65679202 2.65679203c.19526215.19526215.19526215.51184463 0 .70710678-.17356635.17356635-.44299075.1928515-.63785889.05785545l-.06924789-.05785545-2.65679202-2.65679202c-.19526215-.19526215-.19526215-.51184464 0-.70710679z"/><g transform="translate(6.068988 21.7)"><path d="m.57745838-.2957611c.17356635-.17356635.44299075-.1928515.63785889-.05785545l.06924789.05785545 1.06066017 1.06066017c.19526215.19526215.19526215.51184464 0 .70710678-.17356635.17356635-.44299075.1928515-.63785889.05785545l-.06924789-.05785545-1.06066017-1.06066017c-.19526215-.19526215-.19526215-.51184464 0-.70710678z" transform="matrix(1 0 0 -1 0 1.176244)"/><path d="m11.5774584-.2957611c.1735663-.17356635.4429907-.1928515.6378589-.05785545l.0692479.05785545 1.0606601 1.06066017c.1952622.19526215.1952622.51184464 0 .70710678-.1735663.17356635-.4429907.1928515-.6378589.05785545l-.0692478-.05785545-1.0606602-1.06066017c-.1952622-.19526215-.1952622-.51184464 0-.70710678z" transform="matrix(-1 0 0 -1 24.922684 1.176244)"/><path d="m6.93101177-.5c.24545989 0 .44960837.17687516.49194433.41012437l.00805567.08987563v2.5c0 .27614237-.22385762.5-.5.5-.24545989 0-.44960837-.17687516-.49194433-.41012437l-.00805567-.08987563v-2.5c0-.27614238.22385763-.5.5-.5z" transform="matrix(1 0 0 -1 0 2.5)"/></g><path d="m19.6464466 2.48965458c.1735664-.17356635.4429908-.1928515.6378589-.05785545l.0692479.05785545 2.656792 2.65679203c.1952622.19526215.1952622.51184463 0 .70710678-.1735663.17356635-.4429907.1928515-.6378589.05785545l-.0692479-.05785545-2.656792-2.65679202c-.1952621-.19526215-.1952621-.51184464 0-.70710679z" transform="matrix(-1 0 0 1 42.656792 0)"/><path d="m13 6.5c-7.26095473 0-11.47937067 2.19029405-12.48767899 6.6196979v.2212793c1.00772971 4.4549924 5.22641582 6.6590228 12.48767899 6.6590228 7.2612632 0 11.4799493-2.2040304 12.487679-6.6590228v-.2212793c-1.0083083-4.42940385-5.2267243-6.6196979-12.487679-6.6196979zm.3992992 1.00226432c6.4641558.07396165 10.1005401 1.95954214 11.0579017 5.61344648l.0277991.1152892.027321-.110651c-.8831219 3.9041234-4.6644357 5.879651-11.512321 5.879651l-.3992811-.0022782c-6.46386118-.0744163-10.09999814-1.9716053-11.05774752-5.6499433l-.02897138-.1167785-.02646875.1106283c.882691-3.87814695 4.66427506-5.8416283 11.51246875-5.8416283z"/></g></g></svg>