<svg height="26" viewBox="0 0 26 26" width="26" xmlns="http://www.w3.org/2000/svg"><g fill="#fff" transform="translate(1 1)"><path d="m10.7062241 8.98672199c-.80456435 0-1.52199173.38340249-1.9809129.97593361l-3.84273859-2.14647303c.0900415-.25850622.13941909-.5373444.13941909-.82489626 0-.29045643-.04937759-.56639004-.14232365-.82780083l3.83983402-2.14356847c.4560166.59543569 1.17634855.98174274 1.98381743.98174274 1.3767635 0 2.5008299-1.12116182 2.5008299-2.50082987s-1.1211618-2.50082988-2.5008299-2.50082988c-1.37966805 0-2.50082987 1.12116183-2.50082987 2.50082988 0 .29045643.04937759.5692946.14232365.82780083l-3.83692946 2.14356846c-.4560166-.59834025-1.17634855-.98174274-1.98381743-.98174274-1.37676349 0-2.50082988 1.12116183-2.50082988 2.50082988s1.12406639 2.50082987 2.50373444 2.50082987c.80746888 0 1.52780083-.38630705 1.986722-.9846473l3.83983402 2.14647302c-.09294606.2614108-.14522821.5431535-.14522821.83361 0 1.3767635 1.12116182 2.5008298 2.50082984 2.5008298 1.3796681 0 2.5008299-1.1211618 2.5008299-2.5008298 0-1.3796681-1.1240664-2.50082991-2.5037344-2.50082991zm0-8.19958506c.9468879 0 1.7165975.76970954 1.7165975 1.71659751s-.7697096 1.71659751-1.7165975 1.71659751c-.946888 0-1.71659754-.76970954-1.71659754-1.71659751s.7726141-1.71659751 1.71659754-1.71659751zm-8.17925315 7.92074689c-.94688796 0-1.71659751-.76970955-1.71659751-1.71659751 0-.94688797.76970955-1.71659751 1.71659751-1.71659751.94688797 0 1.71659751.76970954 1.71659751 1.71659751 0 .94688796-.7726141 1.71659751-1.71659751 1.71659751zm8.17925315 4.49336098c-.946888 0-1.71659754-.7697095-1.71659754-1.7165975s.76970954-1.71659751 1.71659754-1.71659751c.9468879 0 1.7165975.76970951 1.7165975 1.71659751s-.7697096 1.7165975-1.7165975 1.7165975z" transform="translate(5 5)"/><path d="m12-.5c-6.90355937 0-12.5 5.59644063-12.5 12.5 0 6.9035594 5.59644063 12.5 12.5 12.5 6.9035594 0 12.5-5.5964406 12.5-12.5 0-6.90355937-5.5964406-12.5-12.5-12.5zm0 1c6.3512746 0 11.5 5.14872538 11.5 11.5 0 6.3512746-5.1487254 11.5-11.5 11.5-6.35127462 0-11.5-5.1487254-11.5-11.5 0-6.35127462 5.14872538-11.5 11.5-11.5z"/></g></svg>