<svg height="26" viewBox="0 0 26 26" width="26" xmlns="http://www.w3.org/2000/svg"><g fill="none"><path d="m6.5.5c-1.64853189 0-3.14885059.67770702-4.23687007 1.76918052-1.08716127 1.09061258-1.76312993 2.59479261-1.76312993 4.2514544v12.97936508c0 1.647619.67691595 3.1471901 1.76486291 4.2351371 1.08794697 1.0879469 2.58751804 1.7648629 4.23513709 1.7648629h12.9793651c1.6575798 0 3.1625083-.6767579 4.2531926-1.7674423 1.0906844-1.0906843 1.7674423-2.5956128 1.7674423-4.2531926v-12.95873018c0-.94854965-.2227391-1.84922211-.9380979-2.64209101-.6408371-.71027264-1.6570695-1.32813241-3.1941359-1.84211441-2.8799976-.96304681-7.5191431-1.5364295-14.8677662-1.5364295z" stroke="#dbdbdb"/><rect height="25" rx="6" stroke="#dbdbdb" width="25" x=".5" y=".5"/><path d="m16.6924106 21.1865211c-.7662769 0-1.4911335-.1863917-2.1331493-.5177547-.4556241.0828408-.9319584.1242612-1.4290029.1242612-4.28700863 0-7.76632001-3.437891-7.76632001-7.6627692 0-.5177546.06213056-1.0355093.16568149-1.5325538-.39349355-.662726-.6213056-1.4290029-.6213056-2.23670016 0-2.44380204 2.00888812-4.43197998 4.49411054-4.43197998.86982788 0 1.69823528.24852225 2.40238168.68343617.4349139-.06213056.8698278-.10355094 1.3254519-.10355094 4.2870087 0 7.7663201 3.43789102 7.7663201 7.66276911 0 .5591751-.0621306 1.1183501-.1863917 1.6361048.2899426.6005954.4763343 1.2633214.4763343 1.9674677 0 2.4230919-2.0088881 4.4112698-4.4941105 4.4112698z" fill="#292929"/><path d="m17.293006 13.7515641c-.1656815-.3934936-.4556241-.6834362-.8284075-.9319585-.3727833-.227812-.8076973-.4349139-1.3254519-.6005954-.5177547-.1656815-1.0976399-.3106528-1.7189455-.4349139-.4970445-.1035509-.8698279-.2071019-1.0769298-.2692324-.2071018-.0621306-.4142037-.1449713-.6213056-.2485223-.1863916-.1035509-.3520731-.2071018-.4556241-.3520731-.1035509-.1242612-.1656815-.2692325-.1656815-.434914 0-.2899426.1656815-.51775464.4763343-.72485651.331363-.20710186.7869871-.33136299 1.3461622-.33136299.6005954 0 1.0355093.10355094 1.3047417.28994262.2692325.20710187.4970445.49704448.7041464.84911768.1656815.2899426.3106528.4763343.4556241.6005954.1656815.1449713.3727834.2071019.662726.2071019.3106528 0 .5798852-.103551.8076973-.331363.2071018-.2071019.3106528-.4556241.3106528-.7455667 0-.2899427-.0828408-.57988528-.2485223-.8698279-.1656815-.28994261-.4142037-.57988523-.7455667-.82840747-.331363-.26923243-.7662769-.4763343-1.2840316-.6213056-.5177546-.1656815-1.1183501-.22781206-1.8224964-.22781206-.8698279 0-1.6361048.12426112-2.2781206.35207318-.6627259.22781205-1.15977043.57988523-1.5118436 1.03550934-.35207318.45562411-.51775467.97337881-.51775467 1.55326401 0 .6005954.16568149 1.1183501.49704448 1.5325538.33136299.4142038.78698709.7248566 1.32545199.9733788.5384648.2278121 1.221901.4349139 2.0295983.6005954.6005954.1242611 1.0769297.2485223 1.4290029.3520732.331363.1035509.6213056.2485222.8284074.4556241.2071019.1863917.2899427.4142037.2899427.7248565 0 .3727834-.1863917.7041464-.5798853.9526686-.3934935.2692325-.9319584.3934936-1.5739742.3934936-.4556241 0-.8491176-.0621306-1.1183501-.2071019-.2692324-.1242611-.4970444-.2899426-.6420158-.4970445-.1656814-.2071018-.3106528-.4763343-.4556241-.7869871-.1242611-.2899426-.2692324-.4970444-.4556241-.6627259-.1863917-.1449713-.41420371-.2278121-.68343614-.2278121-.33136299 0-.60059542.1035509-.80769729.2899426-.20710186.2071019-.33136299.4349139-.33136299.7248566 0 .4556241.1656815.9112482.49704449 1.3875825.33136299.4556241.76627691.8491176 1.28403163 1.1183501.7248565.3727833 1.6568149.5798852 2.775165.5798852.9319584 0 1.7396557-.1449713 2.4230918-.4142037.6834362-.2899427 1.2219011-.6834362 1.5739742-1.1804807.3520732-.4970445.5384649-1.0769297.5384649-1.6982353 0-.5177547-.1035509-.9733788-.3106528-1.3461621z" fill="#fff"/></g></svg>