<svg height="26" viewBox="0 0 26 26" width="26" xmlns="http://www.w3.org/2000/svg"><g fill="none"><rect height="25" rx="6" stroke="#dbdbdb" width="25" x=".5" y=".5"/><path d="m16.1746559 20.9794193c-.5384648.1242611-1.1390603.2071018-1.7603659.2071018-.7041463 0-1.1390602-.1035509-1.6982353-.2899426-.5384648-.1863917-1.0147991-.4556241-1.4082927-.8076973-.3934935-.3520732-.6213056-.7248565-.7662769-1.1183501-.1449713-.3934935-.1863917-.9526686-.1863917-1.6982353v-5.6745912h-2.27812054v-2.3195409c.62130561-.20710187 1.36687233-.49704449 1.80178625-.89053804.43491389-.39349355.80769729-.82840747 1.07692969-1.36687233.2692325-.53846485.4763343-1.22190102.5591751-2.05030849h2.1538594v3.72783363h3.7278336v2.89942613h-3.7278336v4.1627476c0 .9526686.0207102 1.4911334.1035509 1.7603659.103551.2692324.3520732.5384648.6005955.7041463.3520731.2071019.7869871.331363 1.221901.331363.7869871 0 1.5739742-.2692324 2.4023816-.8076973v2.547353h.0207102c-.8284074.331363-1.3047417.559175-1.8432066.6834362z" fill="#292929"/></g></svg>