<svg height="26" viewBox="0 0 26 26" width="26" xmlns="http://www.w3.org/2000/svg"><g fill="none"><rect height="25" rx="6" stroke="#dbdbdb" width="25" x=".5" y=".5"/><path d="m19.5297062 9.78556327v.43491393c0 4.3491392-3.3550503 9.3610044-9.5059758 9.3610044-1.88462698 0-3.64499286-.5384648-5.11541612-1.4704232.26923243.0207102.51775467.0414204.7869871.0414204 1.57397419 0 3.00297709-.5177547 4.14203736-1.4082928-1.47042326-.0207101-2.69232429-.9733787-3.12723821-2.2781205.20710187.0414204.41420374.0621306.62130561.0621306.3106528 0 .6213056-.0414204.89053803-.1242612-1.49113345-.3106528-2.63019373-1.6361047-2.63019373-3.2307891v-.0414204c.41420374.2485223.9526686.3934936 1.49113345.4142038-.89053803-.5798853-1.49113345-1.59468443-1.49113345-2.73374471 0-.60059541.1656815-1.15977046.45562411-1.65681494 1.65681495 1.98817793 4.10061695 3.29291975 6.87578205 3.43789105-.0621306-.2485223-.0828408-.4970445-.0828408-.74556677 0-1.82249644 1.4911335-3.2929197 3.3343401-3.2929197.9526686 0 1.8224964.39349355 2.4438021 1.03550934.7662769-.14497131 1.4704232-.41420374 2.112439-.80769729-.2485222.76627692-.7869871 1.40829271-1.4704233 1.82249645.6834362-.08284075 1.325452-.24852225 1.9260474-.51775468-.4556241.66272598-1.0147991 1.24261121-1.6568149 1.69823532z" fill="#292929"/></g></svg>