<svg height="26" viewBox="0 0 26 26" width="26" xmlns="http://www.w3.org/2000/svg"><g fill="none"><rect height="25" rx="6" stroke="#dbdbdb" width="25" x=".5" y=".5"/><g fill="#292929"><path d="m12.3432713 5.36393839c.0414204-.64201579.6420158-.41420374.9526686-.45562411 3.8935152.12426112 7.2485654 3.62428269 7.2071451 7.39353672 0 .3727833.1242611.9112482-.434914.9112482-.5384648 0-.3934935-.5591751-.4556241-.9319584-.5177546-3.99706607-2.3816715-5.88169307-6.4408681-6.50299868-.331363-.04142037-.8491176.02071019-.8284075-.41420373z"/><path d="m18.1628338 12.4675325c-.6213056.0828407-.4970444-.4556241-.559175-.8076973-.4142037-2.44380206-1.2840316-3.3343401-3.7899642-3.87280495-.3727834-.08284075-.9526686-.02071019-.8491176-.57988524.0828407-.53846485.6005954-.35207317.9940889-.3106528 2.5059326.28994262 4.5562411 2.42309186 4.5355309 4.76334299-.0414203.2485222.1242612.7248565-.331363.8076973z"/><path d="m16.6095698 11.1835009c0 .331363-.0414203.6420158-.4142037.6834361-.2692324.0414204-.4349139-.1863916-.4763343-.4556241-.1035509-.9940889-.6420158-1.59468435-1.6775251-1.76036584-.3106528-.04142037-.6005955-.14497131-.4556241-.55917504.1035509-.26923243.3520731-.31065281.6213056-.31065281 1.11835-.02071018 2.4023816 1.28403159 2.4023816 2.40238169z"/><path d="m20.5445053 18.8255598c-.4349139 1.1804807-1.9053372 2.3816715-3.1686586 2.3609613-.1863916-.0414204-.5384648-.1035509-.8491176-.227812-5.5503301-2.3402511-9.58881651-6.1923459-11.86693706-11.70125559-.76627692-1.84320663.04142037-3.41718083 1.96746774-4.03848643.35207318-.12426112.68343617-.12426112 1.03550934 0 .82840748.28994261 2.92013638 3.12723821 2.96155668 3.95564568.0414204.64201579-.4142037.99408894-.84911762 1.28403154-.84911766.5591751-.84911766 1.2633214-.4763343 2.0710187.80769732 1.7810761 2.19527982 3.0236873 3.99706602 3.8106744.6420158.2899426 1.2840316.2692324 1.7189455-.3934935.7869871-1.1804807 1.7603659-1.1183501 2.8165855-.3934936.5384648.3727834 1.0769297.7248565 1.5739742 1.1183501.6834361.559175 1.553264 1.0147991 1.1390602 2.1538594z"/></g></g></svg>