<svg width="47" height="43" viewBox="0 0 47 43" fill="none" xmlns="http://www.w3.org/2000/svg">
<path fill-rule="evenodd" clip-rule="evenodd" d="M24.798 41.0247C32.1016 41.0727 38.9915 37.0085 43.4666 27.6648C43.5859 27.4157 43.9226 27.3612 44.1562 27.5085C44.3898 27.6558 44.4238 27.9454 44.3125 28.1981C39.9915 38.0085 32.5444 42.0757 24.7914 42.0247C17.4205 41.9762 9.69149 39.0085 4.99149 28.5085L3.49149 34.5366C3.49149 34.8128 3.26763 35.0366 2.99149 35.0366C2.71534 35.0366 2.49149 34.8128 2.49149 34.5366L4.49149 26.0085L11.7273 27.5085C12.0035 27.5085 12.2273 27.7324 12.2273 28.0085C12.2273 28.2847 12.0035 28.5085 11.7273 28.5085L5.93114 27.5085C9.49149 37.0085 17.6977 40.978 24.798 41.0247Z" fill="white"/>
<path fill-rule="evenodd" clip-rule="evenodd" d="M24.0672 1.009C16.7636 0.960943 9.87366 5.02515 5.39856 14.3689C5.27928 14.6179 4.94254 14.6725 4.70894 14.5252C4.47535 14.3779 4.44133 14.0883 4.55263 13.8356C8.87366 4.02515 16.3208 -0.0419917 24.0738 0.00901842C31.4447 0.0575145 39.1737 3.02515 43.8737 13.5251L45.3737 7.49707C45.3737 7.22093 45.5975 6.99707 45.8737 6.99707C46.1498 6.99707 46.3737 7.22093 46.3737 7.49707L44.3737 16.0251L37.1378 14.5251C36.8617 14.5251 36.6378 14.3013 36.6378 14.0251C36.6378 13.749 36.8617 13.5251 37.1378 13.5251L42.934 14.5251C39.3737 5.02515 31.1675 1.05571 24.0672 1.009Z" fill="white"/>
<path d="M17.8872 21.0002L17.8872 14.4351C17.8872 10.6925 22.1899 8.58546 25.1464 10.8802L33.6048 17.4454C35.9259 19.247 35.9259 22.7535 33.6048 24.5551L25.1464 31.1203C22.1899 33.415 17.8872 31.308 17.8872 27.5654L17.8872 21.0002Z" stroke="white"/>
<path d="M22.196 21.7365H22.385C23.186 21.7365 23.735 22.1865 23.735 22.8435C23.735 23.4375 23.249 23.8785 22.574 23.8785C21.827 23.8785 21.305 23.3475 21.269 22.5375H20.477C20.486 23.7705 21.35 24.6255 22.592 24.6255C23.735 24.6255 24.572 23.8785 24.572 22.8435C24.572 22.1775 24.239 21.7005 23.537 21.3585C24.131 21.0435 24.401 20.6475 24.401 20.0625C24.401 19.1265 23.645 18.4425 22.61 18.4425C21.449 18.4425 20.72 19.1985 20.72 20.3955H21.503C21.494 19.6395 21.899 19.1895 22.574 19.1895C23.15 19.1895 23.564 19.5675 23.564 20.0985C23.564 20.6745 23.078 21.0615 22.358 21.0615C22.322 21.0615 22.268 21.0615 22.196 21.0525V21.7365ZM25.2472 24.5085H27.3442C29.0272 24.5085 30.0622 23.3385 30.0622 21.4485C30.0622 20.6475 29.8822 19.9905 29.5222 19.4685C29.0722 18.8115 28.3882 18.5055 27.4072 18.5055H25.2472V24.5085ZM26.1022 23.7615V19.2525H27.2272C28.0102 19.2525 28.4962 19.4505 28.8022 19.9005C29.0632 20.2875 29.1892 20.7825 29.1892 21.4755C29.1892 23.0235 28.5322 23.7615 27.1732 23.7615H26.1022Z" fill="white"/>
</svg>
