<svg height="26" viewBox="0 0 26 26" width="26" xmlns="http://www.w3.org/2000/svg"><g fill="none"><rect height="25" rx="6" stroke="#dbdbdb" width="25" x=".5" y=".5"/><path d="m13.192389 20.7826725c-1.4082927 0-2.7130345-.3520732-3.87280493-.994089l-4.43197998 1.4082927 1.44971308-4.2455883c-.72485654-1.2011908-1.13906028-2.6094835-1.13906028-4.100617 0-4.39055958 3.58286232-7.93200153 7.99413211-7.93200153 4.4112698 0 7.9941321 3.54144195 7.9941321 7.93200153 0 4.3905596-3.5828623 7.9320016-7.9941321 7.9320016z" fill="#292929"/><path d="m17.1273245 15.6051258c-.1656815.4556241-.9733788.890538-1.325452.9319584-.3520731.0414204-.3520731.2899426-2.3609613-.4763343-1.9881779-.7869871-3.2514993-2.7958752-3.3550502-2.9408465-.10355095-.1242612-.8076973-1.0562196-.8076973-2.0088882s.49704448-1.42900286.68343616-1.61539454c.18639164-.18639168.39349354-.24852224.51775464-.24852224.1242612 0 .2692325.02071018.3727834.02071018.1242611 0 .2692324-.06213056.4349139.33136299s.5591751 1.34616211.6005954 1.44971311c.0414204.1035509.0828408.2071018.0207102.331363-.0621305.1242611-.1035509.2071018-.1863917.3313629-.1035509.103551-.2071018.2485223-.2899426.331363-.1035509.103551-.2071018.2071019-.0828407.3934936s.5177546.8284075 1.0976399 1.3461621c.7455667.662726 1.3875825.8698279 1.5739742.9733788s.3106528.0828408.4142037-.0414204c.1242611-.1242611.4970445-.559175.6213056-.7662769.1242611-.1863917.2692324-.1656815.4349139-.1035509.1863917.0621306 1.1390603.5384648 1.3461622.6420158.1863917.1035509.331363.1449713.3727834.227812.0621305.0414204.0621305.434914-.0828408.8905381z" fill="#fff"/></g></svg>